solid OpenSCAD_Model
  facet normal -1 0 0
    outer loop
      vertex 78 0.00999928 3
      vertex 78 20 48
      vertex 78 20 3
    endloop
  endfacet
  facet normal -1 -0 0
    outer loop
      vertex 78 20 48
      vertex 78 0.00999928 3
      vertex 78 0.00999928 48
    endloop
  endfacet
  facet normal 1 -0 2.0732e-008
    outer loop
      vertex 2 0.00999928 48
      vertex 2 38 2
      vertex 2 38 48
    endloop
  endfacet
  facet normal 1 0 2.0732e-008
    outer loop
      vertex 2 38 2
      vertex 2 0.00999928 48
      vertex 2 0.00999928 2
    endloop
  endfacet
  facet normal 0 0 -1
    outer loop
      vertex 78 0.00999928 48
      vertex 40 20 48
      vertex 78 20 48
    endloop
  endfacet
  facet normal 0 0 -1
    outer loop
      vertex 16.2244 27.4073 48
      vertex 40 20 48
      vertex 16.25 27 48
    endloop
  endfacet
  facet normal 0 0 -1
    outer loop
      vertex 2 0.00999928 48
      vertex 40 20 48
      vertex 78 0.00999928 48
    endloop
  endfacet
  facet normal 0 0 -1
    outer loop
      vertex 40 20 48
      vertex 16.2244 26.5927 48
      vertex 16.25 27 48
    endloop
  endfacet
  facet normal 0 0 -1
    outer loop
      vertex 40 20 48
      vertex 16.1479 26.1918 48
      vertex 16.2244 26.5927 48
    endloop
  endfacet
  facet normal 0 0 -1
    outer loop
      vertex 40 20 48
      vertex 16.0218 25.8036 48
      vertex 16.1479 26.1918 48
    endloop
  endfacet
  facet normal 0 0 -1
    outer loop
      vertex 40 20 48
      vertex 15.848 25.4343 48
      vertex 16.0218 25.8036 48
    endloop
  endfacet
  facet normal 0 0 -1
    outer loop
      vertex 40 20 48
      vertex 15.6293 25.0897 48
      vertex 15.848 25.4343 48
    endloop
  endfacet
  facet normal 0 0 -1
    outer loop
      vertex 40 20 48
      vertex 15.3691 24.7752 48
      vertex 15.6293 25.0897 48
    endloop
  endfacet
  facet normal 0 0 -1
    outer loop
      vertex 40 20 48
      vertex 15.0716 24.4958 48
      vertex 15.3691 24.7752 48
    endloop
  endfacet
  facet normal 0 -0 -1
    outer loop
      vertex 14.3838 24.0593 48
      vertex 40 20 48
      vertex 2 0.00999928 48
    endloop
  endfacet
  facet normal 0 0 -1
    outer loop
      vertex 40 20 48
      vertex 14.7414 24.2559 48
      vertex 15.0716 24.4958 48
    endloop
  endfacet
  facet normal 0 0 -1
    outer loop
      vertex 40 20 48
      vertex 14.3838 24.0593 48
      vertex 14.7414 24.2559 48
    endloop
  endfacet
  facet normal 0 0 -1
    outer loop
      vertex 14.3838 24.0593 48
      vertex 2 0.00999928 48
      vertex 14.0043 23.9091 48
    endloop
  endfacet
  facet normal 0 0 -1
    outer loop
      vertex 14.0043 23.9091 48
      vertex 2 0.00999928 48
      vertex 13.609 23.8076 48
    endloop
  endfacet
  facet normal 0 0 -1
    outer loop
      vertex 13.609 23.8076 48
      vertex 2 0.00999928 48
      vertex 13.2041 23.7564 48
    endloop
  endfacet
  facet normal -0 0 -1
    outer loop
      vertex 13.2041 23.7564 48
      vertex 2 0.00999928 48
      vertex 12.7959 23.7564 48
    endloop
  endfacet
  facet normal -0 0 -1
    outer loop
      vertex 12.7959 23.7564 48
      vertex 2 0.00999928 48
      vertex 12.391 23.8076 48
    endloop
  endfacet
  facet normal 0 0 -1
    outer loop
      vertex 9.8521 26.1918 48
      vertex 2 38 48
      vertex 9.77563 26.5927 48
    endloop
  endfacet
  facet normal 0 0 -1
    outer loop
      vertex 2 38 48
      vertex 9.8521 26.1918 48
      vertex 2 0.00999928 48
    endloop
  endfacet
  facet normal -0 0 -1
    outer loop
      vertex 9.97823 25.8036 48
      vertex 2 0.00999928 48
      vertex 9.8521 26.1918 48
    endloop
  endfacet
  facet normal -0 0 -1
    outer loop
      vertex 10.152 25.4343 48
      vertex 2 0.00999928 48
      vertex 9.97823 25.8036 48
    endloop
  endfacet
  facet normal -0 0 -1
    outer loop
      vertex 10.3707 25.0897 48
      vertex 2 0.00999928 48
      vertex 10.152 25.4343 48
    endloop
  endfacet
  facet normal -0 0 -1
    outer loop
      vertex 10.6309 24.7752 48
      vertex 2 0.00999928 48
      vertex 10.3707 25.0897 48
    endloop
  endfacet
  facet normal -0 0 -1
    outer loop
      vertex 10.9284 24.4958 48
      vertex 2 0.00999928 48
      vertex 10.6309 24.7752 48
    endloop
  endfacet
  facet normal -0 0 -1
    outer loop
      vertex 11.2586 24.2559 48
      vertex 2 0.00999928 48
      vertex 10.9284 24.4958 48
    endloop
  endfacet
  facet normal -0 0 -1
    outer loop
      vertex 11.6162 24.0593 48
      vertex 2 0.00999928 48
      vertex 11.2586 24.2559 48
    endloop
  endfacet
  facet normal -0 0 -1
    outer loop
      vertex 11.9957 23.9091 48
      vertex 2 0.00999928 48
      vertex 11.6162 24.0593 48
    endloop
  endfacet
  facet normal -0 0 -1
    outer loop
      vertex 12.391 23.8076 48
      vertex 2 0.00999928 48
      vertex 11.9957 23.9091 48
    endloop
  endfacet
  facet normal 0 0 -1
    outer loop
      vertex 40 20 48
      vertex 16.2244 27.4073 48
      vertex 40 38 48
    endloop
  endfacet
  facet normal 0 0 -1
    outer loop
      vertex 16.1479 27.8082 48
      vertex 40 38 48
      vertex 16.2244 27.4073 48
    endloop
  endfacet
  facet normal 0 0 -1
    outer loop
      vertex 16.0218 28.1964 48
      vertex 40 38 48
      vertex 16.1479 27.8082 48
    endloop
  endfacet
  facet normal 0 0 -1
    outer loop
      vertex 15.848 28.5657 48
      vertex 40 38 48
      vertex 16.0218 28.1964 48
    endloop
  endfacet
  facet normal 0 0 -1
    outer loop
      vertex 15.6293 28.9103 48
      vertex 40 38 48
      vertex 15.848 28.5657 48
    endloop
  endfacet
  facet normal 0 0 -1
    outer loop
      vertex 15.3691 29.2248 48
      vertex 40 38 48
      vertex 15.6293 28.9103 48
    endloop
  endfacet
  facet normal 0 0 -1
    outer loop
      vertex 15.0716 29.5042 48
      vertex 40 38 48
      vertex 15.3691 29.2248 48
    endloop
  endfacet
  facet normal 0 0 -1
    outer loop
      vertex 14.7414 29.7441 48
      vertex 40 38 48
      vertex 15.0716 29.5042 48
    endloop
  endfacet
  facet normal 0 0 -1
    outer loop
      vertex 14.3838 29.9407 48
      vertex 40 38 48
      vertex 14.7414 29.7441 48
    endloop
  endfacet
  facet normal 0 0 -1
    outer loop
      vertex 14.0043 30.0909 48
      vertex 40 38 48
      vertex 14.3838 29.9407 48
    endloop
  endfacet
  facet normal 0 0 -1
    outer loop
      vertex 2 38 48
      vertex 14.0043 30.0909 48
      vertex 13.609 30.1924 48
    endloop
  endfacet
  facet normal 0 0 -1
    outer loop
      vertex 2 38 48
      vertex 13.609 30.1924 48
      vertex 13.2041 30.2436 48
    endloop
  endfacet
  facet normal 0 0 -1
    outer loop
      vertex 2 38 48
      vertex 13.2041 30.2436 48
      vertex 12.7959 30.2436 48
    endloop
  endfacet
  facet normal 0 0 -1
    outer loop
      vertex 2 38 48
      vertex 12.7959 30.2436 48
      vertex 12.391 30.1924 48
    endloop
  endfacet
  facet normal 0 0 -1
    outer loop
      vertex 2 38 48
      vertex 12.391 30.1924 48
      vertex 11.9957 30.0909 48
    endloop
  endfacet
  facet normal 0 0 -1
    outer loop
      vertex 9.77563 26.5927 48
      vertex 2 38 48
      vertex 9.75 27 48
    endloop
  endfacet
  facet normal 0 0 -1
    outer loop
      vertex 9.75 27 48
      vertex 2 38 48
      vertex 9.77563 27.4073 48
    endloop
  endfacet
  facet normal 0 0 -1
    outer loop
      vertex 14.0043 30.0909 48
      vertex 2 38 48
      vertex 40 38 48
    endloop
  endfacet
  facet normal 0 0 -1
    outer loop
      vertex 11.6162 29.9407 48
      vertex 2 38 48
      vertex 11.9957 30.0909 48
    endloop
  endfacet
  facet normal 0 0 -1
    outer loop
      vertex 11.2586 29.7441 48
      vertex 2 38 48
      vertex 11.6162 29.9407 48
    endloop
  endfacet
  facet normal 0 0 -1
    outer loop
      vertex 10.9284 29.5042 48
      vertex 2 38 48
      vertex 11.2586 29.7441 48
    endloop
  endfacet
  facet normal 0 0 -1
    outer loop
      vertex 10.6309 29.2248 48
      vertex 2 38 48
      vertex 10.9284 29.5042 48
    endloop
  endfacet
  facet normal 0 0 -1
    outer loop
      vertex 10.3707 28.9103 48
      vertex 2 38 48
      vertex 10.6309 29.2248 48
    endloop
  endfacet
  facet normal 0 0 -1
    outer loop
      vertex 10.152 28.5657 48
      vertex 2 38 48
      vertex 10.3707 28.9103 48
    endloop
  endfacet
  facet normal 0 0 -1
    outer loop
      vertex 9.97823 28.1964 48
      vertex 2 38 48
      vertex 10.152 28.5657 48
    endloop
  endfacet
  facet normal 0 0 -1
    outer loop
      vertex 9.8521 27.8082 48
      vertex 2 38 48
      vertex 9.97823 28.1964 48
    endloop
  endfacet
  facet normal 0 0 -1
    outer loop
      vertex 9.77563 27.4073 48
      vertex 2 38 48
      vertex 9.8521 27.8082 48
    endloop
  endfacet
  facet normal 0 -1 0
    outer loop
      vertex 2 38 2
      vertex 40 38 48
      vertex 2 38 48
    endloop
  endfacet
  facet normal 0 -1 0
    outer loop
      vertex 40 38 0
      vertex 2 38 2
      vertex 2 38 0
    endloop
  endfacet
  facet normal 0 -1 0
    outer loop
      vertex 2 38 2
      vertex 40 38 0
      vertex 40 38 48
    endloop
  endfacet
  facet normal 1 -0 0
    outer loop
      vertex 2 0.00999928 2
      vertex 2 38 0
      vertex 2 38 2
    endloop
  endfacet
  facet normal 1 0 0
    outer loop
      vertex 2 38 0
      vertex 2 0.00999928 2
      vertex 2 0.00999928 0
    endloop
  endfacet
  facet normal -1 0 0
    outer loop
      vertex 78 0.00999928 0
      vertex 78 20 3
      vertex 78 20 0
    endloop
  endfacet
  facet normal -1 -0 0
    outer loop
      vertex 78 20 3
      vertex 78 0.00999928 0
      vertex 78 0.00999928 3
    endloop
  endfacet
  facet normal 0 -1 0
    outer loop
      vertex 40 20 48
      vertex 58.9169 20 37.216
      vertex 78 20 48
    endloop
  endfacet
  facet normal 0 -1 0
    outer loop
      vertex 40 20 48
      vertex 56.7677 20 36.9445
      vertex 58.9169 20 37.216
    endloop
  endfacet
  facet normal 0 -1 0
    outer loop
      vertex 40 20 48
      vertex 54.6695 20 36.4057
      vertex 56.7677 20 36.9445
    endloop
  endfacet
  facet normal 0 -1 0
    outer loop
      vertex 40 20 48
      vertex 52.6553 20 35.6083
      vertex 54.6695 20 36.4057
    endloop
  endfacet
  facet normal 0 -1 0
    outer loop
      vertex 40 20 48
      vertex 50.757 20 34.5647
      vertex 52.6553 20 35.6083
    endloop
  endfacet
  facet normal 0 -1 0
    outer loop
      vertex 40 20 48
      vertex 49.0044 20 33.2914
      vertex 50.757 20 34.5647
    endloop
  endfacet
  facet normal 0 -1 0
    outer loop
      vertex 40 20 48
      vertex 47.4253 20 31.8084
      vertex 49.0044 20 33.2914
    endloop
  endfacet
  facet normal 0 -1 0
    outer loop
      vertex 40 20 48
      vertex 46.0445 20 30.1393
      vertex 47.4253 20 31.8084
    endloop
  endfacet
  facet normal 0 -1 0
    outer loop
      vertex 40 20 48
      vertex 44.8837 20 28.3102
      vertex 46.0445 20 30.1393
    endloop
  endfacet
  facet normal 0 -1 0
    outer loop
      vertex 40 20 48
      vertex 43.9614 20 26.3501
      vertex 44.8837 20 28.3102
    endloop
  endfacet
  facet normal 0 -1 0
    outer loop
      vertex 40 20 48
      vertex 43.2919 20 24.2899
      vertex 43.9614 20 26.3501
    endloop
  endfacet
  facet normal 0 -1 0
    outer loop
      vertex 40 20 48
      vertex 42.886 20 22.162
      vertex 43.2919 20 24.2899
    endloop
  endfacet
  facet normal 0 -1 0
    outer loop
      vertex 40 20 48
      vertex 42.75 20 20
      vertex 42.886 20 22.162
    endloop
  endfacet
  facet normal 0 -1 0
    outer loop
      vertex 40 20 0
      vertex 42.75 20 20
      vertex 40 20 48
    endloop
  endfacet
  facet normal 0 -1 0
    outer loop
      vertex 78 20 0
      vertex 58.9169 20 2.78404
      vertex 40 20 0
    endloop
  endfacet
  facet normal 0 -1 -0
    outer loop
      vertex 56.7677 20 3.05554
      vertex 40 20 0
      vertex 58.9169 20 2.78404
    endloop
  endfacet
  facet normal 0 -1 -0
    outer loop
      vertex 54.6695 20 3.59427
      vertex 40 20 0
      vertex 56.7677 20 3.05554
    endloop
  endfacet
  facet normal 0 -1 -0
    outer loop
      vertex 52.6553 20 4.39173
      vertex 40 20 0
      vertex 54.6695 20 3.59427
    endloop
  endfacet
  facet normal 0 -1 -0
    outer loop
      vertex 50.757 20 5.43534
      vertex 40 20 0
      vertex 52.6553 20 4.39173
    endloop
  endfacet
  facet normal 0 -1 -0
    outer loop
      vertex 49.0044 20 6.70865
      vertex 40 20 0
      vertex 50.757 20 5.43534
    endloop
  endfacet
  facet normal 0 -1 -0
    outer loop
      vertex 47.4253 20 8.19156
      vertex 40 20 0
      vertex 49.0044 20 6.70865
    endloop
  endfacet
  facet normal 0 -1 -0
    outer loop
      vertex 46.0445 20 9.8607
      vertex 40 20 0
      vertex 47.4253 20 8.19156
    endloop
  endfacet
  facet normal 0 -1 -0
    outer loop
      vertex 44.8837 20 11.6897
      vertex 40 20 0
      vertex 46.0445 20 9.8607
    endloop
  endfacet
  facet normal 0 -1 -0
    outer loop
      vertex 43.9614 20 13.6499
      vertex 40 20 0
      vertex 44.8837 20 11.6897
    endloop
  endfacet
  facet normal 0 -1 -0
    outer loop
      vertex 43.2919 20 15.7101
      vertex 40 20 0
      vertex 43.9614 20 13.6499
    endloop
  endfacet
  facet normal 0 -1 -0
    outer loop
      vertex 42.886 20 17.838
      vertex 40 20 0
      vertex 43.2919 20 15.7101
    endloop
  endfacet
  facet normal 0 -1 -0
    outer loop
      vertex 42.75 20 20
      vertex 40 20 0
      vertex 42.886 20 17.838
    endloop
  endfacet
  facet normal 0 -1 0
    outer loop
      vertex 61.0831 20 37.216
      vertex 78 20 48
      vertex 58.9169 20 37.216
    endloop
  endfacet
  facet normal 0 -1 0
    outer loop
      vertex 63.2323 20 36.9445
      vertex 78 20 48
      vertex 61.0831 20 37.216
    endloop
  endfacet
  facet normal 0 -1 0
    outer loop
      vertex 65.3305 20 36.4057
      vertex 78 20 48
      vertex 63.2323 20 36.9445
    endloop
  endfacet
  facet normal 0 -1 0
    outer loop
      vertex 67.3447 20 35.6083
      vertex 78 20 48
      vertex 65.3305 20 36.4057
    endloop
  endfacet
  facet normal 0 -1 0
    outer loop
      vertex 69.243 20 34.5647
      vertex 78 20 48
      vertex 67.3447 20 35.6083
    endloop
  endfacet
  facet normal 0 -1 0
    outer loop
      vertex 70.9956 20 33.2914
      vertex 78 20 48
      vertex 69.243 20 34.5647
    endloop
  endfacet
  facet normal 0 -1 0
    outer loop
      vertex 72.5747 20 31.8084
      vertex 78 20 48
      vertex 70.9956 20 33.2914
    endloop
  endfacet
  facet normal 0 -1 0
    outer loop
      vertex 73.9555 20 30.1393
      vertex 78 20 48
      vertex 72.5747 20 31.8084
    endloop
  endfacet
  facet normal 0 -1 0
    outer loop
      vertex 75.1163 20 28.3102
      vertex 78 20 48
      vertex 73.9555 20 30.1393
    endloop
  endfacet
  facet normal 0 -1 0
    outer loop
      vertex 76.0386 20 26.3501
      vertex 78 20 48
      vertex 75.1163 20 28.3102
    endloop
  endfacet
  facet normal 0 -1 0
    outer loop
      vertex 76.7081 20 24.2899
      vertex 78 20 48
      vertex 76.0386 20 26.3501
    endloop
  endfacet
  facet normal 0 -1 0
    outer loop
      vertex 77.114 20 22.162
      vertex 78 20 48
      vertex 76.7081 20 24.2899
    endloop
  endfacet
  facet normal 0 -1 0
    outer loop
      vertex 77.182 20 21.081
      vertex 78 20 48
      vertex 77.114 20 22.162
    endloop
  endfacet
  facet normal 0 -1 0
    outer loop
      vertex 77.25 20 20
      vertex 78 20 48
      vertex 77.182 20 21.081
    endloop
  endfacet
  facet normal 0 -1 0
    outer loop
      vertex 77.25 20 20
      vertex 78 20 3
      vertex 78 20 48
    endloop
  endfacet
  facet normal 0 -1 0
    outer loop
      vertex 77.182 20 18.919
      vertex 78 20 3
      vertex 77.25 20 20
    endloop
  endfacet
  facet normal 0 -1 0
    outer loop
      vertex 77.114 20 17.838
      vertex 78 20 3
      vertex 77.182 20 18.919
    endloop
  endfacet
  facet normal 0 -1 0
    outer loop
      vertex 76.7081 20 15.7101
      vertex 78 20 3
      vertex 77.114 20 17.838
    endloop
  endfacet
  facet normal 0 -1 0
    outer loop
      vertex 76.0386 20 13.6499
      vertex 78 20 3
      vertex 76.7081 20 15.7101
    endloop
  endfacet
  facet normal 0 -1 0
    outer loop
      vertex 75.1163 20 11.6897
      vertex 78 20 3
      vertex 76.0386 20 13.6499
    endloop
  endfacet
  facet normal 0 -1 0
    outer loop
      vertex 73.9555 20 9.8607
      vertex 78 20 3
      vertex 75.1163 20 11.6897
    endloop
  endfacet
  facet normal 0 -1 0
    outer loop
      vertex 72.5747 20 8.19156
      vertex 78 20 3
      vertex 73.9555 20 9.8607
    endloop
  endfacet
  facet normal 0 -1 0
    outer loop
      vertex 70.9956 20 6.70865
      vertex 78 20 3
      vertex 72.5747 20 8.19156
    endloop
  endfacet
  facet normal 0 -1 0
    outer loop
      vertex 69.243 20 5.43534
      vertex 78 20 3
      vertex 70.9956 20 6.70865
    endloop
  endfacet
  facet normal 0 -1 0
    outer loop
      vertex 78 20 0
      vertex 69.243 20 5.43534
      vertex 67.3447 20 4.39173
    endloop
  endfacet
  facet normal 0 -1 0
    outer loop
      vertex 78 20 0
      vertex 67.3447 20 4.39173
      vertex 65.3305 20 3.59427
    endloop
  endfacet
  facet normal 0 -1 0
    outer loop
      vertex 78 20 0
      vertex 65.3305 20 3.59427
      vertex 63.2323 20 3.05554
    endloop
  endfacet
  facet normal 0 -1 0
    outer loop
      vertex 78 20 0
      vertex 63.2323 20 3.05554
      vertex 61.0831 20 2.78404
    endloop
  endfacet
  facet normal 0 -1 0
    outer loop
      vertex 58.9169 20 2.78404
      vertex 78 20 0
      vertex 61.0831 20 2.78404
    endloop
  endfacet
  facet normal 0 -1 0
    outer loop
      vertex 69.243 20 5.43534
      vertex 78 20 0
      vertex 78 20 3
    endloop
  endfacet
  facet normal -1 0 0
    outer loop
      vertex 40 20 0
      vertex 40 38 48
      vertex 40 38 0
    endloop
  endfacet
  facet normal -1 -0 0
    outer loop
      vertex 40 38 48
      vertex 40 20 0
      vertex 40 20 48
    endloop
  endfacet
  facet normal 0 0 -1
    outer loop
      vertex 2 0.00999928 0
      vertex 0 0.00999928 0
      vertex 2 38 0
    endloop
  endfacet
  facet normal 0 0 -1
    outer loop
      vertex 78 20 0
      vertex 80 0.00999928 0
      vertex 78 0.00999928 0
    endloop
  endfacet
  facet normal 0 0 -1
    outer loop
      vertex 80 0.00999928 0
      vertex 78 20 0
      vertex 80 40 0
    endloop
  endfacet
  facet normal 0 0 -1
    outer loop
      vertex 40 38 0
      vertex 78 20 0
      vertex 40 20 0
    endloop
  endfacet
  facet normal 0 0 -1
    outer loop
      vertex 78 20 0
      vertex 40 38 0
      vertex 80 40 0
    endloop
  endfacet
  facet normal 0 0 -1
    outer loop
      vertex 0 40 0
      vertex 40 38 0
      vertex 2 38 0
    endloop
  endfacet
  facet normal 0 0 -1
    outer loop
      vertex 40 38 0
      vertex 0 40 0
      vertex 80 40 0
    endloop
  endfacet
  facet normal 0 0 -1
    outer loop
      vertex 0 40 0
      vertex 2 38 0
      vertex 0 0.00999928 0
    endloop
  endfacet
  facet normal 1 -0 0
    outer loop
      vertex 80 0.00999928 50
      vertex 80 40 0
      vertex 80 40 50
    endloop
  endfacet
  facet normal 1 0 0
    outer loop
      vertex 80 40 0
      vertex 80 0.00999928 50
      vertex 80 0.00999928 0
    endloop
  endfacet
  facet normal -1 0 0
    outer loop
      vertex 0 0.00999928 0
      vertex 0 40 50
      vertex 0 40 0
    endloop
  endfacet
  facet normal -1 -0 0
    outer loop
      vertex 0 40 50
      vertex 0 0.00999928 0
      vertex 0 0.00999928 50
    endloop
  endfacet
  facet normal 0 0 1
    outer loop
      vertex 16.2244 26.5927 50
      vertex 80 40 50
      vertex 16.25 27 50
    endloop
  endfacet
  facet normal 0 0 1
    outer loop
      vertex 80 40 50
      vertex 16.2244 27.4073 50
      vertex 16.25 27 50
    endloop
  endfacet
  facet normal 0 0 1
    outer loop
      vertex 80 40 50
      vertex 16.1479 27.8082 50
      vertex 16.2244 27.4073 50
    endloop
  endfacet
  facet normal 0 0 1
    outer loop
      vertex 80 40 50
      vertex 16.0218 28.1964 50
      vertex 16.1479 27.8082 50
    endloop
  endfacet
  facet normal 0 0 1
    outer loop
      vertex 80 40 50
      vertex 15.848 28.5657 50
      vertex 16.0218 28.1964 50
    endloop
  endfacet
  facet normal 0 0 1
    outer loop
      vertex 80 40 50
      vertex 15.6293 28.9103 50
      vertex 15.848 28.5657 50
    endloop
  endfacet
  facet normal 0 0 1
    outer loop
      vertex 80 40 50
      vertex 15.3691 29.2248 50
      vertex 15.6293 28.9103 50
    endloop
  endfacet
  facet normal 0 0 1
    outer loop
      vertex 80 40 50
      vertex 15.0716 29.5042 50
      vertex 15.3691 29.2248 50
    endloop
  endfacet
  facet normal 0 0 1
    outer loop
      vertex 80 40 50
      vertex 14.7414 29.7441 50
      vertex 15.0716 29.5042 50
    endloop
  endfacet
  facet normal 0 0 1
    outer loop
      vertex 80 40 50
      vertex 14.3838 29.9407 50
      vertex 14.7414 29.7441 50
    endloop
  endfacet
  facet normal -0 0 1
    outer loop
      vertex 0 40 50
      vertex 14.3838 29.9407 50
      vertex 80 40 50
    endloop
  endfacet
  facet normal 0 0 1
    outer loop
      vertex 14.3838 29.9407 50
      vertex 0 40 50
      vertex 14.0043 30.0909 50
    endloop
  endfacet
  facet normal 0 0 1
    outer loop
      vertex 14.0043 30.0909 50
      vertex 0 40 50
      vertex 13.609 30.1924 50
    endloop
  endfacet
  facet normal 0 0 1
    outer loop
      vertex 13.609 30.1924 50
      vertex 0 40 50
      vertex 13.2041 30.2436 50
    endloop
  endfacet
  facet normal 0 0 1
    outer loop
      vertex 13.2041 30.2436 50
      vertex 0 40 50
      vertex 12.7959 30.2436 50
    endloop
  endfacet
  facet normal 0 0 1
    outer loop
      vertex 9.77563 27.4073 50
      vertex 0 40 50
      vertex 9.75 27 50
    endloop
  endfacet
  facet normal 0 0 1
    outer loop
      vertex 9.8521 27.8082 50
      vertex 0 40 50
      vertex 9.77563 27.4073 50
    endloop
  endfacet
  facet normal 0 0 1
    outer loop
      vertex 9.97823 28.1964 50
      vertex 0 40 50
      vertex 9.8521 27.8082 50
    endloop
  endfacet
  facet normal 0 0 1
    outer loop
      vertex 10.152 28.5657 50
      vertex 0 40 50
      vertex 9.97823 28.1964 50
    endloop
  endfacet
  facet normal 0 0 1
    outer loop
      vertex 10.3707 28.9103 50
      vertex 0 40 50
      vertex 10.152 28.5657 50
    endloop
  endfacet
  facet normal 0 0 1
    outer loop
      vertex 10.6309 29.2248 50
      vertex 0 40 50
      vertex 10.3707 28.9103 50
    endloop
  endfacet
  facet normal 0 0 1
    outer loop
      vertex 10.9284 29.5042 50
      vertex 0 40 50
      vertex 10.6309 29.2248 50
    endloop
  endfacet
  facet normal 0 0 1
    outer loop
      vertex 11.2586 29.7441 50
      vertex 0 40 50
      vertex 10.9284 29.5042 50
    endloop
  endfacet
  facet normal 0 0 1
    outer loop
      vertex 11.6162 29.9407 50
      vertex 0 40 50
      vertex 11.2586 29.7441 50
    endloop
  endfacet
  facet normal 0 0 1
    outer loop
      vertex 11.9957 30.0909 50
      vertex 0 40 50
      vertex 11.6162 29.9407 50
    endloop
  endfacet
  facet normal 0 0 1
    outer loop
      vertex 12.391 30.1924 50
      vertex 0 40 50
      vertex 11.9957 30.0909 50
    endloop
  endfacet
  facet normal 0 0 1
    outer loop
      vertex 12.7959 30.2436 50
      vertex 0 40 50
      vertex 12.391 30.1924 50
    endloop
  endfacet
  facet normal 0 0 1
    outer loop
      vertex 80 40 50
      vertex 16.2244 26.5927 50
      vertex 80 0.00999928 50
    endloop
  endfacet
  facet normal -0 0 1
    outer loop
      vertex 16.1479 26.1918 50
      vertex 80 0.00999928 50
      vertex 16.2244 26.5927 50
    endloop
  endfacet
  facet normal -0 0 1
    outer loop
      vertex 16.0218 25.8036 50
      vertex 80 0.00999928 50
      vertex 16.1479 26.1918 50
    endloop
  endfacet
  facet normal -0 0 1
    outer loop
      vertex 15.848 25.4343 50
      vertex 80 0.00999928 50
      vertex 16.0218 25.8036 50
    endloop
  endfacet
  facet normal -0 0 1
    outer loop
      vertex 15.6293 25.0897 50
      vertex 80 0.00999928 50
      vertex 15.848 25.4343 50
    endloop
  endfacet
  facet normal -0 0 1
    outer loop
      vertex 15.3691 24.7752 50
      vertex 80 0.00999928 50
      vertex 15.6293 25.0897 50
    endloop
  endfacet
  facet normal -0 0 1
    outer loop
      vertex 15.0716 24.4958 50
      vertex 80 0.00999928 50
      vertex 15.3691 24.7752 50
    endloop
  endfacet
  facet normal 0 0 1
    outer loop
      vertex 0 0.00999928 50
      vertex 15.0716 24.4958 50
      vertex 14.7414 24.2559 50
    endloop
  endfacet
  facet normal 0 0 1
    outer loop
      vertex 0 0.00999928 50
      vertex 14.7414 24.2559 50
      vertex 14.3838 24.0593 50
    endloop
  endfacet
  facet normal 0 0 1
    outer loop
      vertex 0 0.00999928 50
      vertex 14.3838 24.0593 50
      vertex 14.0043 23.9091 50
    endloop
  endfacet
  facet normal 0 0 1
    outer loop
      vertex 0 0.00999928 50
      vertex 14.0043 23.9091 50
      vertex 13.609 23.8076 50
    endloop
  endfacet
  facet normal 0 0 1
    outer loop
      vertex 0 0.00999928 50
      vertex 13.609 23.8076 50
      vertex 13.2041 23.7564 50
    endloop
  endfacet
  facet normal 0 0 1
    outer loop
      vertex 0 0.00999928 50
      vertex 13.2041 23.7564 50
      vertex 12.7959 23.7564 50
    endloop
  endfacet
  facet normal 0 0 1
    outer loop
      vertex 0 0.00999928 50
      vertex 12.7959 23.7564 50
      vertex 12.391 23.8076 50
    endloop
  endfacet
  facet normal 0 0 1
    outer loop
      vertex 0 0.00999928 50
      vertex 12.391 23.8076 50
      vertex 11.9957 23.9091 50
    endloop
  endfacet
  facet normal 0 0 1
    outer loop
      vertex 0 40 50
      vertex 9.77563 26.5927 50
      vertex 9.75 27 50
    endloop
  endfacet
  facet normal 0 0 1
    outer loop
      vertex 0 40 50
      vertex 9.8521 26.1918 50
      vertex 9.77563 26.5927 50
    endloop
  endfacet
  facet normal 0 0 1
    outer loop
      vertex 0 0.00999928 50
      vertex 9.8521 26.1918 50
      vertex 0 40 50
    endloop
  endfacet
  facet normal 0 0 1
    outer loop
      vertex 9.8521 26.1918 50
      vertex 0 0.00999928 50
      vertex 9.97823 25.8036 50
    endloop
  endfacet
  facet normal 0 0 1
    outer loop
      vertex 9.97823 25.8036 50
      vertex 0 0.00999928 50
      vertex 10.152 25.4343 50
    endloop
  endfacet
  facet normal 0 0 1
    outer loop
      vertex 15.0716 24.4958 50
      vertex 0 0.00999928 50
      vertex 80 0.00999928 50
    endloop
  endfacet
  facet normal 0 0 1
    outer loop
      vertex 11.6162 24.0593 50
      vertex 0 0.00999928 50
      vertex 11.9957 23.9091 50
    endloop
  endfacet
  facet normal 0 0 1
    outer loop
      vertex 11.2586 24.2559 50
      vertex 0 0.00999928 50
      vertex 11.6162 24.0593 50
    endloop
  endfacet
  facet normal 0 0 1
    outer loop
      vertex 10.9284 24.4958 50
      vertex 0 0.00999928 50
      vertex 11.2586 24.2559 50
    endloop
  endfacet
  facet normal 0 0 1
    outer loop
      vertex 10.6309 24.7752 50
      vertex 0 0.00999928 50
      vertex 10.9284 24.4958 50
    endloop
  endfacet
  facet normal 0 0 1
    outer loop
      vertex 10.3707 25.0897 50
      vertex 0 0.00999928 50
      vertex 10.6309 24.7752 50
    endloop
  endfacet
  facet normal 0 0 1
    outer loop
      vertex 10.152 25.4343 50
      vertex 0 0.00999928 50
      vertex 10.3707 25.0897 50
    endloop
  endfacet
  facet normal 0 1 0
    outer loop
      vertex 58.9169 40 37.216
      vertex 80 40 50
      vertex 61.0831 40 37.216
    endloop
  endfacet
  facet normal 0 1 0
    outer loop
      vertex 80 40 50
      vertex 63.2323 40 36.9445
      vertex 61.0831 40 37.216
    endloop
  endfacet
  facet normal 0 1 0
    outer loop
      vertex 80 40 50
      vertex 65.3305 40 36.4057
      vertex 63.2323 40 36.9445
    endloop
  endfacet
  facet normal 0 1 0
    outer loop
      vertex 80 40 50
      vertex 67.3447 40 35.6083
      vertex 65.3305 40 36.4057
    endloop
  endfacet
  facet normal 0 1 0
    outer loop
      vertex 80 40 50
      vertex 69.243 40 34.5647
      vertex 67.3447 40 35.6083
    endloop
  endfacet
  facet normal 0 1 0
    outer loop
      vertex 80 40 50
      vertex 70.9956 40 33.2914
      vertex 69.243 40 34.5647
    endloop
  endfacet
  facet normal 0 1 0
    outer loop
      vertex 80 40 50
      vertex 72.5747 40 31.8084
      vertex 70.9956 40 33.2914
    endloop
  endfacet
  facet normal 0 1 0
    outer loop
      vertex 80 40 50
      vertex 73.9555 40 30.1393
      vertex 72.5747 40 31.8084
    endloop
  endfacet
  facet normal 0 1 0
    outer loop
      vertex 80 40 50
      vertex 75.1163 40 28.3102
      vertex 73.9555 40 30.1393
    endloop
  endfacet
  facet normal 0 1 0
    outer loop
      vertex 80 40 50
      vertex 76.0386 40 26.3501
      vertex 75.1163 40 28.3102
    endloop
  endfacet
  facet normal 0 1 0
    outer loop
      vertex 80 40 50
      vertex 76.7081 40 24.2899
      vertex 76.0386 40 26.3501
    endloop
  endfacet
  facet normal 0 1 0
    outer loop
      vertex 80 40 50
      vertex 77.114 40 22.162
      vertex 76.7081 40 24.2899
    endloop
  endfacet
  facet normal 0 1 0
    outer loop
      vertex 80 40 50
      vertex 77.1276 40 21.9458
      vertex 77.114 40 22.162
    endloop
  endfacet
  facet normal 0 1 0
    outer loop
      vertex 80 40 50
      vertex 77.25 40 20
      vertex 77.1276 40 21.9458
    endloop
  endfacet
  facet normal 0 1 -0
    outer loop
      vertex 80 40 0
      vertex 77.25 40 20
      vertex 80 40 50
    endloop
  endfacet
  facet normal 0 1 0
    outer loop
      vertex 77.25 40 20
      vertex 80 40 0
      vertex 77.2364 40 19.7838
    endloop
  endfacet
  facet normal 0 1 0
    outer loop
      vertex 61.0831 40 2.78404
      vertex 80 40 0
      vertex 58.9169 40 2.78404
    endloop
  endfacet
  facet normal 0 1 0
    outer loop
      vertex 63.2323 40 3.05554
      vertex 80 40 0
      vertex 61.0831 40 2.78404
    endloop
  endfacet
  facet normal 0 1 0
    outer loop
      vertex 65.3305 40 3.59427
      vertex 80 40 0
      vertex 63.2323 40 3.05554
    endloop
  endfacet
  facet normal 0 1 0
    outer loop
      vertex 67.3447 40 4.39173
      vertex 80 40 0
      vertex 65.3305 40 3.59427
    endloop
  endfacet
  facet normal 0 1 0
    outer loop
      vertex 69.243 40 5.43534
      vertex 80 40 0
      vertex 67.3447 40 4.39173
    endloop
  endfacet
  facet normal 0 1 0
    outer loop
      vertex 70.9956 40 6.70865
      vertex 80 40 0
      vertex 69.243 40 5.43534
    endloop
  endfacet
  facet normal 0 1 0
    outer loop
      vertex 72.5747 40 8.19156
      vertex 80 40 0
      vertex 70.9956 40 6.70865
    endloop
  endfacet
  facet normal 0 1 0
    outer loop
      vertex 73.9555 40 9.8607
      vertex 80 40 0
      vertex 72.5747 40 8.19156
    endloop
  endfacet
  facet normal 0 1 0
    outer loop
      vertex 75.1163 40 11.6897
      vertex 80 40 0
      vertex 73.9555 40 9.8607
    endloop
  endfacet
  facet normal 0 1 0
    outer loop
      vertex 76.0386 40 13.6499
      vertex 80 40 0
      vertex 75.1163 40 11.6897
    endloop
  endfacet
  facet normal 0 1 0
    outer loop
      vertex 76.7081 40 15.7101
      vertex 80 40 0
      vertex 76.0386 40 13.6499
    endloop
  endfacet
  facet normal 0 1 0
    outer loop
      vertex 77.114 40 17.838
      vertex 80 40 0
      vertex 76.7081 40 15.7101
    endloop
  endfacet
  facet normal 0 1 0
    outer loop
      vertex 77.2364 40 19.7838
      vertex 80 40 0
      vertex 77.114 40 17.838
    endloop
  endfacet
  facet normal 0 1 0
    outer loop
      vertex 56.7677 40 36.9445
      vertex 80 40 50
      vertex 58.9169 40 37.216
    endloop
  endfacet
  facet normal 0 1 0
    outer loop
      vertex 54.6695 40 36.4057
      vertex 80 40 50
      vertex 56.7677 40 36.9445
    endloop
  endfacet
  facet normal 0 1 0
    outer loop
      vertex 80 40 50
      vertex 54.6695 40 36.4057
      vertex 0 40 50
    endloop
  endfacet
  facet normal 0 1 -0
    outer loop
      vertex 52.6553 40 35.6083
      vertex 0 40 50
      vertex 54.6695 40 36.4057
    endloop
  endfacet
  facet normal 0 1 -0
    outer loop
      vertex 50.757 40 34.5647
      vertex 0 40 50
      vertex 52.6553 40 35.6083
    endloop
  endfacet
  facet normal 0 1 -0
    outer loop
      vertex 49.0044 40 33.2914
      vertex 0 40 50
      vertex 50.757 40 34.5647
    endloop
  endfacet
  facet normal 0 1 -0
    outer loop
      vertex 47.4253 40 31.8084
      vertex 0 40 50
      vertex 49.0044 40 33.2914
    endloop
  endfacet
  facet normal 0 1 -0
    outer loop
      vertex 46.0445 40 30.1393
      vertex 0 40 50
      vertex 47.4253 40 31.8084
    endloop
  endfacet
  facet normal 0 1 -0
    outer loop
      vertex 44.8837 40 28.3102
      vertex 0 40 50
      vertex 46.0445 40 30.1393
    endloop
  endfacet
  facet normal 0 1 -0
    outer loop
      vertex 43.9614 40 26.3501
      vertex 0 40 50
      vertex 44.8837 40 28.3102
    endloop
  endfacet
  facet normal 0 1 -0
    outer loop
      vertex 43.2919 40 24.2899
      vertex 0 40 50
      vertex 43.9614 40 26.3501
    endloop
  endfacet
  facet normal 0 1 -0
    outer loop
      vertex 42.886 40 22.162
      vertex 0 40 50
      vertex 43.2919 40 24.2899
    endloop
  endfacet
  facet normal 0 1 0
    outer loop
      vertex 0 40 0
      vertex 42.886 40 22.162
      vertex 42.75 40 20
    endloop
  endfacet
  facet normal 0 1 0
    outer loop
      vertex 0 40 0
      vertex 42.75 40 20
      vertex 42.886 40 17.838
    endloop
  endfacet
  facet normal 0 1 0
    outer loop
      vertex 0 40 0
      vertex 42.886 40 17.838
      vertex 43.2919 40 15.7101
    endloop
  endfacet
  facet normal 0 1 0
    outer loop
      vertex 0 40 0
      vertex 43.2919 40 15.7101
      vertex 43.9614 40 13.6499
    endloop
  endfacet
  facet normal 0 1 0
    outer loop
      vertex 0 40 0
      vertex 43.9614 40 13.6499
      vertex 44.8837 40 11.6897
    endloop
  endfacet
  facet normal 0 1 0
    outer loop
      vertex 0 40 0
      vertex 44.8837 40 11.6897
      vertex 46.0445 40 9.8607
    endloop
  endfacet
  facet normal 0 1 0
    outer loop
      vertex 0 40 0
      vertex 46.0445 40 9.8607
      vertex 47.4253 40 8.19156
    endloop
  endfacet
  facet normal 0 1 0
    outer loop
      vertex 0 40 0
      vertex 47.4253 40 8.19156
      vertex 49.0044 40 6.70865
    endloop
  endfacet
  facet normal 0 1 0
    outer loop
      vertex 0 40 0
      vertex 58.9169 40 2.78404
      vertex 80 40 0
    endloop
  endfacet
  facet normal 0 1 0
    outer loop
      vertex 42.886 40 22.162
      vertex 0 40 0
      vertex 0 40 50
    endloop
  endfacet
  facet normal 0 1 0
    outer loop
      vertex 50.757 40 5.43534
      vertex 0 40 0
      vertex 49.0044 40 6.70865
    endloop
  endfacet
  facet normal 0 1 0
    outer loop
      vertex 52.6553 40 4.39173
      vertex 0 40 0
      vertex 50.757 40 5.43534
    endloop
  endfacet
  facet normal 0 1 0
    outer loop
      vertex 54.6695 40 3.59427
      vertex 0 40 0
      vertex 52.6553 40 4.39173
    endloop
  endfacet
  facet normal 0 1 0
    outer loop
      vertex 56.7677 40 3.05554
      vertex 0 40 0
      vertex 54.6695 40 3.59427
    endloop
  endfacet
  facet normal 0 1 0
    outer loop
      vertex 58.9169 40 2.78404
      vertex 0 40 0
      vertex 56.7677 40 3.05554
    endloop
  endfacet
  facet normal -0.998026 0 0.0627954
    outer loop
      vertex 77.182 20 18.919
      vertex 77.114 40 17.838
      vertex 77.114 20 17.838
    endloop
  endfacet
  facet normal -0.998027 -2.11509e-007 0.0627915
    outer loop
      vertex 77.114 40 17.838
      vertex 77.182 20 18.919
      vertex 77.2364 40 19.7838
    endloop
  endfacet
  facet normal -0.998027 -7.61434e-008 0.0627884
    outer loop
      vertex 77.25 20 20
      vertex 77.2364 40 19.7838
      vertex 77.182 20 18.919
    endloop
  endfacet
  facet normal -0.998026 0 0.0627954
    outer loop
      vertex 77.2364 40 19.7838
      vertex 77.25 20 20
      vertex 77.25 40 20
    endloop
  endfacet
  facet normal 0.998027 0 -0.0627902
    outer loop
      vertex 42.886 20 22.162
      vertex 42.75 40 20
      vertex 42.886 40 22.162
    endloop
  endfacet
  facet normal 0.998027 0 -0.0627902
    outer loop
      vertex 42.75 40 20
      vertex 42.886 20 22.162
      vertex 42.75 20 20
    endloop
  endfacet
  facet normal -0 0 1
    outer loop
      vertex 58.9169 40 2.78404
      vertex 61.0831 20 2.78404
      vertex 61.0831 40 2.78404
    endloop
  endfacet
  facet normal 0 0 1
    outer loop
      vertex 61.0831 20 2.78404
      vertex 58.9169 40 2.78404
      vertex 58.9169 20 2.78404
    endloop
  endfacet
  facet normal 0.684547 0 -0.728969
    outer loop
      vertex 47.4253 20 31.8084
      vertex 49.0044 40 33.2914
      vertex 49.0044 20 33.2914
    endloop
  endfacet
  facet normal 0.684547 0 -0.728969
    outer loop
      vertex 49.0044 40 33.2914
      vertex 47.4253 20 31.8084
      vertex 47.4253 40 31.8084
    endloop
  endfacet
  facet normal -0.684547 0 0.728969
    outer loop
      vertex 70.9956 40 6.70865
      vertex 72.5747 20 8.19156
      vertex 72.5747 40 8.19156
    endloop
  endfacet
  facet normal -0.684547 0 0.728969
    outer loop
      vertex 72.5747 20 8.19156
      vertex 70.9956 40 6.70865
      vertex 70.9956 20 6.70865
    endloop
  endfacet
  facet normal 0.770513 -0 0.637425
    outer loop
      vertex 46.0445 20 9.8607
      vertex 47.4253 40 8.19156
      vertex 46.0445 40 9.8607
    endloop
  endfacet
  facet normal 0.770513 0 0.637425
    outer loop
      vertex 47.4253 40 8.19156
      vertex 46.0445 20 9.8607
      vertex 47.4253 20 8.19156
    endloop
  endfacet
  facet normal 0.481754 0 0.876307
    outer loop
      vertex 50.757 40 5.43534
      vertex 52.6553 20 4.39173
      vertex 52.6553 40 4.39173
    endloop
  endfacet
  facet normal 0.481754 0 0.876307
    outer loop
      vertex 52.6553 20 4.39173
      vertex 50.757 40 5.43534
      vertex 50.757 20 5.43534
    endloop
  endfacet
  facet normal -0.904827 0 0.42578
    outer loop
      vertex 75.1163 20 11.6897
      vertex 76.0386 40 13.6499
      vertex 75.1163 40 11.6897
    endloop
  endfacet
  facet normal -0.904827 0 0.42578
    outer loop
      vertex 76.0386 40 13.6499
      vertex 75.1163 20 11.6897
      vertex 76.0386 20 13.6499
    endloop
  endfacet
  facet normal -0.982288 0 0.187379
    outer loop
      vertex 76.7081 20 15.7101
      vertex 77.114 40 17.838
      vertex 76.7081 40 15.7101
    endloop
  endfacet
  facet normal -0.982288 0 0.187379
    outer loop
      vertex 77.114 40 17.838
      vertex 76.7081 20 15.7101
      vertex 77.114 20 17.838
    endloop
  endfacet
  facet normal -0.844329 0 0.535826
    outer loop
      vertex 73.9555 20 9.8607
      vertex 75.1163 40 11.6897
      vertex 73.9555 40 9.8607
    endloop
  endfacet
  facet normal -0.844329 0 0.535826
    outer loop
      vertex 75.1163 40 11.6897
      vertex 73.9555 20 9.8607
      vertex 75.1163 20 11.6897
    endloop
  endfacet
  facet normal -0.368124 0 0.929777
    outer loop
      vertex 65.3305 40 3.59427
      vertex 67.3447 20 4.39173
      vertex 67.3447 40 4.39173
    endloop
  endfacet
  facet normal -0.368124 0 0.929777
    outer loop
      vertex 67.3447 20 4.39173
      vertex 65.3305 40 3.59427
      vertex 65.3305 20 3.59427
    endloop
  endfacet
  facet normal -0.587786 0 0.809017
    outer loop
      vertex 69.243 40 5.43534
      vertex 70.9956 20 6.70865
      vertex 70.9956 40 6.70865
    endloop
  endfacet
  facet normal -0.587786 0 0.809017
    outer loop
      vertex 70.9956 20 6.70865
      vertex 69.243 40 5.43534
      vertex 69.243 20 5.43534
    endloop
  endfacet
  facet normal 0.951056 -0 0.309018
    outer loop
      vertex 43.2919 20 15.7101
      vertex 43.9614 40 13.6499
      vertex 43.2919 40 15.7101
    endloop
  endfacet
  facet normal 0.951056 0 0.309018
    outer loop
      vertex 43.9614 40 13.6499
      vertex 43.2919 20 15.7101
      vertex 43.9614 20 13.6499
    endloop
  endfacet
  facet normal 0.844328 -0 0.535827
    outer loop
      vertex 44.8837 20 11.6897
      vertex 46.0445 40 9.8607
      vertex 44.8837 40 11.6897
    endloop
  endfacet
  facet normal 0.844328 0 0.535827
    outer loop
      vertex 46.0445 40 9.8607
      vertex 44.8837 20 11.6897
      vertex 46.0445 20 9.8607
    endloop
  endfacet
  facet normal 0.982287 -0 0.187381
    outer loop
      vertex 42.886 20 17.838
      vertex 43.2919 40 15.7101
      vertex 42.886 40 17.838
    endloop
  endfacet
  facet normal 0.982287 0 0.187381
    outer loop
      vertex 43.2919 40 15.7101
      vertex 42.886 20 17.838
      vertex 43.2919 20 15.7101
    endloop
  endfacet
  facet normal 0.587785 0 0.809017
    outer loop
      vertex 49.0044 40 6.70865
      vertex 50.757 20 5.43534
      vertex 50.757 40 5.43534
    endloop
  endfacet
  facet normal 0.587785 0 0.809017
    outer loop
      vertex 50.757 20 5.43534
      vertex 49.0044 40 6.70865
      vertex 49.0044 20 6.70865
    endloop
  endfacet
  facet normal 0.24869 0 0.968583
    outer loop
      vertex 54.6695 40 3.59427
      vertex 56.7677 20 3.05554
      vertex 56.7677 40 3.05554
    endloop
  endfacet
  facet normal 0.24869 0 0.968583
    outer loop
      vertex 56.7677 20 3.05554
      vertex 54.6695 40 3.59427
      vertex 54.6695 20 3.59427
    endloop
  endfacet
  facet normal -0.951056 0 -0.309018
    outer loop
      vertex 76.7081 20 24.2899
      vertex 76.0386 40 26.3501
      vertex 76.7081 40 24.2899
    endloop
  endfacet
  facet normal -0.951056 -0 -0.309018
    outer loop
      vertex 76.0386 40 26.3501
      vertex 76.7081 20 24.2899
      vertex 76.0386 20 26.3501
    endloop
  endfacet
  facet normal -0.587786 0 -0.809016
    outer loop
      vertex 69.243 20 34.5647
      vertex 70.9956 40 33.2914
      vertex 70.9956 20 33.2914
    endloop
  endfacet
  facet normal -0.587786 0 -0.809016
    outer loop
      vertex 70.9956 40 33.2914
      vertex 69.243 20 34.5647
      vertex 69.243 40 34.5647
    endloop
  endfacet
  facet normal -0.844329 0 -0.535825
    outer loop
      vertex 75.1163 20 28.3102
      vertex 73.9555 40 30.1393
      vertex 75.1163 40 28.3102
    endloop
  endfacet
  facet normal -0.844329 -0 -0.535825
    outer loop
      vertex 73.9555 40 30.1393
      vertex 75.1163 20 28.3102
      vertex 73.9555 20 30.1393
    endloop
  endfacet
  facet normal 0.587785 0 -0.809017
    outer loop
      vertex 49.0044 20 33.2914
      vertex 50.757 40 34.5647
      vertex 50.757 20 34.5647
    endloop
  endfacet
  facet normal 0.587785 0 -0.809017
    outer loop
      vertex 50.757 40 34.5647
      vertex 49.0044 20 33.2914
      vertex 49.0044 40 33.2914
    endloop
  endfacet
  facet normal 0.844328 0 -0.535827
    outer loop
      vertex 46.0445 20 30.1393
      vertex 44.8837 40 28.3102
      vertex 46.0445 40 30.1393
    endloop
  endfacet
  facet normal 0.844328 0 -0.535827
    outer loop
      vertex 44.8837 40 28.3102
      vertex 46.0445 20 30.1393
      vertex 44.8837 20 28.3102
    endloop
  endfacet
  facet normal 0.982287 0 -0.187381
    outer loop
      vertex 43.2919 20 24.2899
      vertex 42.886 40 22.162
      vertex 43.2919 40 24.2899
    endloop
  endfacet
  facet normal 0.982287 0 -0.187381
    outer loop
      vertex 42.886 40 22.162
      vertex 43.2919 20 24.2899
      vertex 42.886 20 22.162
    endloop
  endfacet
  facet normal -0.951056 0 0.309018
    outer loop
      vertex 76.0386 20 13.6499
      vertex 76.7081 40 15.7101
      vertex 76.0386 40 13.6499
    endloop
  endfacet
  facet normal -0.951056 0 0.309018
    outer loop
      vertex 76.7081 40 15.7101
      vertex 76.0386 20 13.6499
      vertex 76.7081 20 15.7101
    endloop
  endfacet
  facet normal -0.770513 0 0.637425
    outer loop
      vertex 72.5747 20 8.19156
      vertex 73.9555 40 9.8607
      vertex 72.5747 40 8.19156
    endloop
  endfacet
  facet normal -0.770513 0 0.637425
    outer loop
      vertex 73.9555 40 9.8607
      vertex 72.5747 20 8.19156
      vertex 73.9555 20 9.8607
    endloop
  endfacet
  facet normal -0.248689 0 0.968583
    outer loop
      vertex 63.2323 40 3.05554
      vertex 65.3305 20 3.59427
      vertex 65.3305 40 3.59427
    endloop
  endfacet
  facet normal -0.248689 0 0.968583
    outer loop
      vertex 65.3305 20 3.59427
      vertex 63.2323 40 3.05554
      vertex 63.2323 20 3.05554
    endloop
  endfacet
  facet normal -0.125334 0 0.992115
    outer loop
      vertex 61.0831 40 2.78404
      vertex 63.2323 20 3.05554
      vertex 63.2323 40 3.05554
    endloop
  endfacet
  facet normal -0.125334 0 0.992115
    outer loop
      vertex 63.2323 20 3.05554
      vertex 61.0831 40 2.78404
      vertex 61.0831 20 2.78404
    endloop
  endfacet
  facet normal -0.481754 0 0.876306
    outer loop
      vertex 67.3447 40 4.39173
      vertex 69.243 20 5.43534
      vertex 69.243 40 5.43534
    endloop
  endfacet
  facet normal -0.481754 0 0.876306
    outer loop
      vertex 69.243 20 5.43534
      vertex 67.3447 40 4.39173
      vertex 67.3447 20 4.39173
    endloop
  endfacet
  facet normal 0.904827 -0 0.425778
    outer loop
      vertex 43.9614 20 13.6499
      vertex 44.8837 40 11.6897
      vertex 43.9614 40 13.6499
    endloop
  endfacet
  facet normal 0.904827 0 0.425778
    outer loop
      vertex 44.8837 40 11.6897
      vertex 43.9614 20 13.6499
      vertex 44.8837 20 11.6897
    endloop
  endfacet
  facet normal 0.998027 -0 0.0627902
    outer loop
      vertex 42.75 20 20
      vertex 42.886 40 17.838
      vertex 42.75 40 20
    endloop
  endfacet
  facet normal 0.998027 0 0.0627902
    outer loop
      vertex 42.886 40 17.838
      vertex 42.75 20 20
      vertex 42.886 20 17.838
    endloop
  endfacet
  facet normal 0.684547 0 0.728968
    outer loop
      vertex 47.4253 40 8.19156
      vertex 49.0044 20 6.70865
      vertex 49.0044 40 6.70865
    endloop
  endfacet
  facet normal 0.684547 0 0.728968
    outer loop
      vertex 49.0044 20 6.70865
      vertex 47.4253 40 8.19156
      vertex 47.4253 20 8.19156
    endloop
  endfacet
  facet normal 0.368125 0 0.929776
    outer loop
      vertex 52.6553 40 4.39173
      vertex 54.6695 20 3.59427
      vertex 54.6695 40 3.59427
    endloop
  endfacet
  facet normal 0.368125 0 0.929776
    outer loop
      vertex 54.6695 20 3.59427
      vertex 52.6553 40 4.39173
      vertex 52.6553 20 4.39173
    endloop
  endfacet
  facet normal 0.125333 0 0.992115
    outer loop
      vertex 56.7677 40 3.05554
      vertex 58.9169 20 2.78404
      vertex 58.9169 40 2.78404
    endloop
  endfacet
  facet normal 0.125333 0 0.992115
    outer loop
      vertex 58.9169 20 2.78404
      vertex 56.7677 40 3.05554
      vertex 56.7677 20 3.05554
    endloop
  endfacet
  facet normal -0.125334 0 -0.992115
    outer loop
      vertex 61.0831 20 37.216
      vertex 63.2323 40 36.9445
      vertex 63.2323 20 36.9445
    endloop
  endfacet
  facet normal -0.125334 0 -0.992115
    outer loop
      vertex 63.2323 40 36.9445
      vertex 61.0831 20 37.216
      vertex 61.0831 40 37.216
    endloop
  endfacet
  facet normal -0.368124 0 -0.929777
    outer loop
      vertex 65.3305 20 36.4057
      vertex 67.3447 40 35.6083
      vertex 67.3447 20 35.6083
    endloop
  endfacet
  facet normal -0.368124 0 -0.929777
    outer loop
      vertex 67.3447 40 35.6083
      vertex 65.3305 20 36.4057
      vertex 65.3305 40 36.4057
    endloop
  endfacet
  facet normal -0.684546 0 -0.72897
    outer loop
      vertex 70.9956 20 33.2914
      vertex 72.5747 40 31.8084
      vertex 72.5747 20 31.8084
    endloop
  endfacet
  facet normal -0.684546 0 -0.72897
    outer loop
      vertex 72.5747 40 31.8084
      vertex 70.9956 20 33.2914
      vertex 70.9956 40 33.2914
    endloop
  endfacet
  facet normal -0.904827 0 -0.42578
    outer loop
      vertex 76.0386 20 26.3501
      vertex 75.1163 40 28.3102
      vertex 76.0386 40 26.3501
    endloop
  endfacet
  facet normal -0.904827 -0 -0.42578
    outer loop
      vertex 75.1163 40 28.3102
      vertex 76.0386 20 26.3501
      vertex 75.1163 20 28.3102
    endloop
  endfacet
  facet normal -0.998027 0 -0.0627884
    outer loop
      vertex 77.182 20 21.081
      vertex 77.25 40 20
      vertex 77.25 20 20
    endloop
  endfacet
  facet normal -0.998027 -1.69208e-007 -0.0627915
    outer loop
      vertex 77.25 40 20
      vertex 77.182 20 21.081
      vertex 77.1276 40 21.9458
    endloop
  endfacet
  facet normal 0.481754 0 -0.876307
    outer loop
      vertex 50.757 20 34.5647
      vertex 52.6553 40 35.6083
      vertex 52.6553 20 35.6083
    endloop
  endfacet
  facet normal 0.481754 0 -0.876307
    outer loop
      vertex 52.6553 40 35.6083
      vertex 50.757 20 34.5647
      vertex 50.757 40 34.5647
    endloop
  endfacet
  facet normal 0.24869 0 -0.968583
    outer loop
      vertex 54.6695 20 36.4057
      vertex 56.7677 40 36.9445
      vertex 56.7677 20 36.9445
    endloop
  endfacet
  facet normal 0.24869 0 -0.968583
    outer loop
      vertex 56.7677 40 36.9445
      vertex 54.6695 20 36.4057
      vertex 54.6695 40 36.4057
    endloop
  endfacet
  facet normal 0 0 -1
    outer loop
      vertex 58.9169 20 37.216
      vertex 61.0831 40 37.216
      vertex 61.0831 20 37.216
    endloop
  endfacet
  facet normal -0 0 -1
    outer loop
      vertex 61.0831 40 37.216
      vertex 58.9169 20 37.216
      vertex 58.9169 40 37.216
    endloop
  endfacet
  facet normal 0.770513 0 -0.637425
    outer loop
      vertex 47.4253 20 31.8084
      vertex 46.0445 40 30.1393
      vertex 47.4253 40 31.8084
    endloop
  endfacet
  facet normal 0.770513 0 -0.637425
    outer loop
      vertex 46.0445 40 30.1393
      vertex 47.4253 20 31.8084
      vertex 46.0445 20 30.1393
    endloop
  endfacet
  facet normal 0.951056 0 -0.309018
    outer loop
      vertex 43.9614 20 26.3501
      vertex 43.2919 40 24.2899
      vertex 43.9614 40 26.3501
    endloop
  endfacet
  facet normal 0.951056 0 -0.309018
    outer loop
      vertex 43.2919 40 24.2899
      vertex 43.9614 20 26.3501
      vertex 43.2919 20 24.2899
    endloop
  endfacet
  facet normal -0.24869 0 -0.968583
    outer loop
      vertex 63.2323 20 36.9445
      vertex 65.3305 40 36.4057
      vertex 65.3305 20 36.4057
    endloop
  endfacet
  facet normal -0.24869 0 -0.968583
    outer loop
      vertex 65.3305 40 36.4057
      vertex 63.2323 20 36.9445
      vertex 63.2323 40 36.9445
    endloop
  endfacet
  facet normal -0.481754 0 -0.876306
    outer loop
      vertex 67.3447 20 35.6083
      vertex 69.243 40 34.5647
      vertex 69.243 20 34.5647
    endloop
  endfacet
  facet normal -0.481754 0 -0.876306
    outer loop
      vertex 69.243 40 34.5647
      vertex 67.3447 20 35.6083
      vertex 67.3447 40 35.6083
    endloop
  endfacet
  facet normal -0.770513 0 -0.637425
    outer loop
      vertex 73.9555 20 30.1393
      vertex 72.5747 40 31.8084
      vertex 73.9555 40 30.1393
    endloop
  endfacet
  facet normal -0.770513 -0 -0.637425
    outer loop
      vertex 72.5747 40 31.8084
      vertex 73.9555 20 30.1393
      vertex 72.5747 20 31.8084
    endloop
  endfacet
  facet normal -0.998026 0 -0.0627954
    outer loop
      vertex 77.114 20 22.162
      vertex 77.1276 40 21.9458
      vertex 77.182 20 21.081
    endloop
  endfacet
  facet normal -0.998026 0 -0.0627954
    outer loop
      vertex 77.1276 40 21.9458
      vertex 77.114 20 22.162
      vertex 77.114 40 22.162
    endloop
  endfacet
  facet normal -0.982288 0 -0.187379
    outer loop
      vertex 77.114 20 22.162
      vertex 76.7081 40 24.2899
      vertex 77.114 40 22.162
    endloop
  endfacet
  facet normal -0.982288 -0 -0.187379
    outer loop
      vertex 76.7081 40 24.2899
      vertex 77.114 20 22.162
      vertex 76.7081 20 24.2899
    endloop
  endfacet
  facet normal 0.368125 0 -0.929776
    outer loop
      vertex 52.6553 20 35.6083
      vertex 54.6695 40 36.4057
      vertex 54.6695 20 36.4057
    endloop
  endfacet
  facet normal 0.368125 0 -0.929776
    outer loop
      vertex 54.6695 40 36.4057
      vertex 52.6553 20 35.6083
      vertex 52.6553 40 35.6083
    endloop
  endfacet
  facet normal 0.125334 0 -0.992115
    outer loop
      vertex 56.7677 20 36.9445
      vertex 58.9169 40 37.216
      vertex 58.9169 20 37.216
    endloop
  endfacet
  facet normal 0.125334 0 -0.992115
    outer loop
      vertex 58.9169 40 37.216
      vertex 56.7677 20 36.9445
      vertex 56.7677 40 36.9445
    endloop
  endfacet
  facet normal 0.904827 0 -0.425778
    outer loop
      vertex 44.8837 20 28.3102
      vertex 43.9614 40 26.3501
      vertex 44.8837 40 28.3102
    endloop
  endfacet
  facet normal 0.904827 0 -0.425778
    outer loop
      vertex 43.9614 40 26.3501
      vertex 44.8837 20 28.3102
      vertex 43.9614 20 26.3501
    endloop
  endfacet
  facet normal -0.998027 -0.0627903 0
    outer loop
      vertex 16.25 27 48
      vertex 16.2244 27.4073 50
      vertex 16.2244 27.4073 48
    endloop
  endfacet
  facet normal -0.998027 -0.0627903 0
    outer loop
      vertex 16.2244 27.4073 50
      vertex 16.25 27 48
      vertex 16.25 27 50
    endloop
  endfacet
  facet normal 0.125338 -0.992114 0
    outer loop
      vertex 12.391 30.1924 48
      vertex 12.7959 30.2436 50
      vertex 12.391 30.1924 50
    endloop
  endfacet
  facet normal 0.125338 -0.992114 0
    outer loop
      vertex 12.7959 30.2436 50
      vertex 12.391 30.1924 48
      vertex 12.7959 30.2436 48
    endloop
  endfacet
  facet normal -0.125333 0.992115 0
    outer loop
      vertex 13.609 23.8076 48
      vertex 13.2041 23.7564 50
      vertex 13.609 23.8076 50
    endloop
  endfacet
  facet normal -0.125333 0.992115 0
    outer loop
      vertex 13.2041 23.7564 50
      vertex 13.609 23.8076 48
      vertex 13.2041 23.7564 48
    endloop
  endfacet
  facet normal -0.587784 -0.809018 0
    outer loop
      vertex 14.7414 29.7441 48
      vertex 15.0716 29.5042 50
      vertex 14.7414 29.7441 50
    endloop
  endfacet
  facet normal -0.587784 -0.809018 -0
    outer loop
      vertex 15.0716 29.5042 50
      vertex 14.7414 29.7441 48
      vertex 15.0716 29.5042 48
    endloop
  endfacet
  facet normal 0.770513 -0.637425 0
    outer loop
      vertex 10.3707 28.9103 50
      vertex 10.6309 29.2248 48
      vertex 10.6309 29.2248 50
    endloop
  endfacet
  facet normal 0.770513 -0.637425 0
    outer loop
      vertex 10.6309 29.2248 48
      vertex 10.3707 28.9103 50
      vertex 10.3707 28.9103 48
    endloop
  endfacet
  facet normal 0.481755 -0.876306 0
    outer loop
      vertex 11.2586 29.7441 48
      vertex 11.6162 29.9407 50
      vertex 11.2586 29.7441 50
    endloop
  endfacet
  facet normal 0.481755 -0.876306 0
    outer loop
      vertex 11.6162 29.9407 50
      vertex 11.2586 29.7441 48
      vertex 11.6162 29.9407 48
    endloop
  endfacet
  facet normal -0.844329 -0.535826 0
    outer loop
      vertex 15.848 28.5657 48
      vertex 15.6293 28.9103 50
      vertex 15.6293 28.9103 48
    endloop
  endfacet
  facet normal -0.844329 -0.535826 0
    outer loop
      vertex 15.6293 28.9103 50
      vertex 15.848 28.5657 48
      vertex 15.848 28.5657 50
    endloop
  endfacet
  facet normal -0.248689 -0.968583 0
    outer loop
      vertex 13.609 30.1924 48
      vertex 14.0043 30.0909 50
      vertex 13.609 30.1924 50
    endloop
  endfacet
  facet normal -0.248689 -0.968583 -0
    outer loop
      vertex 14.0043 30.0909 50
      vertex 13.609 30.1924 48
      vertex 14.0043 30.0909 48
    endloop
  endfacet
  facet normal -0.125338 -0.992114 0
    outer loop
      vertex 13.2041 30.2436 48
      vertex 13.609 30.1924 50
      vertex 13.2041 30.2436 50
    endloop
  endfacet
  facet normal -0.125338 -0.992114 -0
    outer loop
      vertex 13.609 30.1924 50
      vertex 13.2041 30.2436 48
      vertex 13.609 30.1924 48
    endloop
  endfacet
  facet normal -0.481755 -0.876306 0
    outer loop
      vertex 14.3838 29.9407 48
      vertex 14.7414 29.7441 50
      vertex 14.3838 29.9407 50
    endloop
  endfacet
  facet normal -0.481755 -0.876306 -0
    outer loop
      vertex 14.7414 29.7441 50
      vertex 14.3838 29.9407 48
      vertex 14.7414 29.7441 48
    endloop
  endfacet
  facet normal 0.951056 -0.309018 0
    outer loop
      vertex 9.8521 27.8082 50
      vertex 9.97823 28.1964 48
      vertex 9.97823 28.1964 50
    endloop
  endfacet
  facet normal 0.951056 -0.309018 0
    outer loop
      vertex 9.97823 28.1964 48
      vertex 9.8521 27.8082 50
      vertex 9.8521 27.8082 48
    endloop
  endfacet
  facet normal 0.587784 -0.809018 0
    outer loop
      vertex 10.9284 29.5042 48
      vertex 11.2586 29.7441 50
      vertex 10.9284 29.5042 50
    endloop
  endfacet
  facet normal 0.587784 -0.809018 0
    outer loop
      vertex 11.2586 29.7441 50
      vertex 10.9284 29.5042 48
      vertex 11.2586 29.7441 48
    endloop
  endfacet
  facet normal 0.368124 -0.929777 0
    outer loop
      vertex 11.6162 29.9407 48
      vertex 11.9957 30.0909 50
      vertex 11.6162 29.9407 50
    endloop
  endfacet
  facet normal 0.368124 -0.929777 0
    outer loop
      vertex 11.9957 30.0909 50
      vertex 11.6162 29.9407 48
      vertex 11.9957 30.0909 48
    endloop
  endfacet
  facet normal 0.684551 0.728965 -0
    outer loop
      vertex 10.9284 24.4958 48
      vertex 10.6309 24.7752 50
      vertex 10.9284 24.4958 50
    endloop
  endfacet
  facet normal 0.684551 0.728965 0
    outer loop
      vertex 10.6309 24.7752 50
      vertex 10.9284 24.4958 48
      vertex 10.6309 24.7752 48
    endloop
  endfacet
  facet normal -0.248689 0.968583 0
    outer loop
      vertex 14.0043 23.9091 48
      vertex 13.609 23.8076 50
      vertex 14.0043 23.9091 50
    endloop
  endfacet
  facet normal -0.248689 0.968583 0
    outer loop
      vertex 13.609 23.8076 50
      vertex 14.0043 23.9091 48
      vertex 13.609 23.8076 48
    endloop
  endfacet
  facet normal -0.481755 0.876306 0
    outer loop
      vertex 14.7414 24.2559 48
      vertex 14.3838 24.0593 50
      vertex 14.7414 24.2559 50
    endloop
  endfacet
  facet normal -0.481755 0.876306 0
    outer loop
      vertex 14.3838 24.0593 50
      vertex 14.7414 24.2559 48
      vertex 14.3838 24.0593 48
    endloop
  endfacet
  facet normal -0.951056 -0.309018 0
    outer loop
      vertex 16.1479 27.8082 48
      vertex 16.0218 28.1964 50
      vertex 16.0218 28.1964 48
    endloop
  endfacet
  facet normal -0.951056 -0.309018 0
    outer loop
      vertex 16.0218 28.1964 50
      vertex 16.1479 27.8082 48
      vertex 16.1479 27.8082 50
    endloop
  endfacet
  facet normal -0.982287 -0.18738 0
    outer loop
      vertex 16.2244 27.4073 48
      vertex 16.1479 27.8082 50
      vertex 16.1479 27.8082 48
    endloop
  endfacet
  facet normal -0.982287 -0.18738 0
    outer loop
      vertex 16.1479 27.8082 50
      vertex 16.2244 27.4073 48
      vertex 16.2244 27.4073 50
    endloop
  endfacet
  facet normal -0.904826 -0.425782 0
    outer loop
      vertex 16.0218 28.1964 48
      vertex 15.848 28.5657 50
      vertex 15.848 28.5657 48
    endloop
  endfacet
  facet normal -0.904826 -0.425782 0
    outer loop
      vertex 15.848 28.5657 50
      vertex 16.0218 28.1964 48
      vertex 16.0218 28.1964 50
    endloop
  endfacet
  facet normal -0.684548 -0.728968 0
    outer loop
      vertex 15.0716 29.5042 48
      vertex 15.3691 29.2248 50
      vertex 15.0716 29.5042 50
    endloop
  endfacet
  facet normal -0.684548 -0.728968 -0
    outer loop
      vertex 15.3691 29.2248 50
      vertex 15.0716 29.5042 48
      vertex 15.3691 29.2248 48
    endloop
  endfacet
  facet normal -0.770513 -0.637425 0
    outer loop
      vertex 15.6293 28.9103 48
      vertex 15.3691 29.2248 50
      vertex 15.3691 29.2248 48
    endloop
  endfacet
  facet normal -0.770513 -0.637425 0
    outer loop
      vertex 15.3691 29.2248 50
      vertex 15.6293 28.9103 48
      vertex 15.6293 28.9103 50
    endloop
  endfacet
  facet normal 0 -1 0
    outer loop
      vertex 12.7959 30.2436 48
      vertex 13.2041 30.2436 50
      vertex 12.7959 30.2436 50
    endloop
  endfacet
  facet normal 0 -1 -0
    outer loop
      vertex 13.2041 30.2436 50
      vertex 12.7959 30.2436 48
      vertex 13.2041 30.2436 48
    endloop
  endfacet
  facet normal -0.368124 -0.929777 0
    outer loop
      vertex 14.0043 30.0909 48
      vertex 14.3838 29.9407 50
      vertex 14.0043 30.0909 50
    endloop
  endfacet
  facet normal -0.368124 -0.929777 -0
    outer loop
      vertex 14.3838 29.9407 50
      vertex 14.0043 30.0909 48
      vertex 14.3838 29.9407 48
    endloop
  endfacet
  facet normal 0.904827 -0.42578 0
    outer loop
      vertex 9.97823 28.1964 50
      vertex 10.152 28.5657 48
      vertex 10.152 28.5657 50
    endloop
  endfacet
  facet normal 0.904827 -0.42578 0
    outer loop
      vertex 10.152 28.5657 48
      vertex 9.97823 28.1964 50
      vertex 9.97823 28.1964 48
    endloop
  endfacet
  facet normal 0.844329 -0.535826 0
    outer loop
      vertex 10.152 28.5657 50
      vertex 10.3707 28.9103 48
      vertex 10.3707 28.9103 50
    endloop
  endfacet
  facet normal 0.844329 -0.535826 0
    outer loop
      vertex 10.3707 28.9103 48
      vertex 10.152 28.5657 50
      vertex 10.152 28.5657 48
    endloop
  endfacet
  facet normal 0.982287 -0.18738 0
    outer loop
      vertex 9.77563 27.4073 50
      vertex 9.8521 27.8082 48
      vertex 9.8521 27.8082 50
    endloop
  endfacet
  facet normal 0.982287 -0.18738 0
    outer loop
      vertex 9.8521 27.8082 48
      vertex 9.77563 27.4073 50
      vertex 9.77563 27.4073 48
    endloop
  endfacet
  facet normal 0.998027 -0.0627903 0
    outer loop
      vertex 9.75 27 50
      vertex 9.77563 27.4073 48
      vertex 9.77563 27.4073 50
    endloop
  endfacet
  facet normal 0.998027 -0.0627903 0
    outer loop
      vertex 9.77563 27.4073 48
      vertex 9.75 27 50
      vertex 9.75 27 48
    endloop
  endfacet
  facet normal 0.998027 0.0627903 0
    outer loop
      vertex 9.77563 26.5927 50
      vertex 9.75 27 48
      vertex 9.75 27 50
    endloop
  endfacet
  facet normal 0.998027 0.0627903 0
    outer loop
      vertex 9.75 27 48
      vertex 9.77563 26.5927 50
      vertex 9.77563 26.5927 48
    endloop
  endfacet
  facet normal 0.684548 -0.728968 0
    outer loop
      vertex 10.6309 29.2248 48
      vertex 10.9284 29.5042 50
      vertex 10.6309 29.2248 50
    endloop
  endfacet
  facet normal 0.684548 -0.728968 0
    outer loop
      vertex 10.9284 29.5042 50
      vertex 10.6309 29.2248 48
      vertex 10.9284 29.5042 48
    endloop
  endfacet
  facet normal 0.248689 -0.968583 0
    outer loop
      vertex 11.9957 30.0909 48
      vertex 12.391 30.1924 50
      vertex 11.9957 30.0909 50
    endloop
  endfacet
  facet normal 0.248689 -0.968583 0
    outer loop
      vertex 12.391 30.1924 50
      vertex 11.9957 30.0909 48
      vertex 12.391 30.1924 48
    endloop
  endfacet
  facet normal -0.998027 0.0627903 0
    outer loop
      vertex 16.2244 26.5927 48
      vertex 16.25 27 50
      vertex 16.25 27 48
    endloop
  endfacet
  facet normal -0.998027 0.0627903 0
    outer loop
      vertex 16.25 27 50
      vertex 16.2244 26.5927 48
      vertex 16.2244 26.5927 50
    endloop
  endfacet
  facet normal -0.951057 0.309017 0
    outer loop
      vertex 16.0218 25.8036 48
      vertex 16.1479 26.1918 50
      vertex 16.1479 26.1918 48
    endloop
  endfacet
  facet normal -0.951057 0.309017 0
    outer loop
      vertex 16.1479 26.1918 50
      vertex 16.0218 25.8036 48
      vertex 16.0218 25.8036 50
    endloop
  endfacet
  facet normal -0.982287 0.18738 0
    outer loop
      vertex 16.1479 26.1918 48
      vertex 16.2244 26.5927 50
      vertex 16.2244 26.5927 48
    endloop
  endfacet
  facet normal -0.982287 0.18738 0
    outer loop
      vertex 16.2244 26.5927 50
      vertex 16.1479 26.1918 48
      vertex 16.1479 26.1918 50
    endloop
  endfacet
  facet normal -0.587784 0.809018 0
    outer loop
      vertex 15.0716 24.4958 48
      vertex 14.7414 24.2559 50
      vertex 15.0716 24.4958 50
    endloop
  endfacet
  facet normal -0.587784 0.809018 0
    outer loop
      vertex 14.7414 24.2559 50
      vertex 15.0716 24.4958 48
      vertex 14.7414 24.2559 48
    endloop
  endfacet
  facet normal 0.587784 0.809018 -0
    outer loop
      vertex 11.2586 24.2559 48
      vertex 10.9284 24.4958 50
      vertex 11.2586 24.2559 50
    endloop
  endfacet
  facet normal 0.587784 0.809018 0
    outer loop
      vertex 10.9284 24.4958 50
      vertex 11.2586 24.2559 48
      vertex 10.9284 24.4958 48
    endloop
  endfacet
  facet normal 0.770513 0.637425 0
    outer loop
      vertex 10.6309 24.7752 50
      vertex 10.3707 25.0897 48
      vertex 10.3707 25.0897 50
    endloop
  endfacet
  facet normal 0.770513 0.637425 0
    outer loop
      vertex 10.3707 25.0897 48
      vertex 10.6309 24.7752 50
      vertex 10.6309 24.7752 48
    endloop
  endfacet
  facet normal 0.904827 0.42578 0
    outer loop
      vertex 10.152 25.4343 50
      vertex 9.97823 25.8036 48
      vertex 9.97823 25.8036 50
    endloop
  endfacet
  facet normal 0.904827 0.42578 0
    outer loop
      vertex 9.97823 25.8036 48
      vertex 10.152 25.4343 50
      vertex 10.152 25.4343 48
    endloop
  endfacet
  facet normal -0.684551 0.728965 0
    outer loop
      vertex 15.3691 24.7752 48
      vertex 15.0716 24.4958 50
      vertex 15.3691 24.7752 50
    endloop
  endfacet
  facet normal -0.684551 0.728965 0
    outer loop
      vertex 15.0716 24.4958 50
      vertex 15.3691 24.7752 48
      vertex 15.0716 24.4958 48
    endloop
  endfacet
  facet normal -0.368124 0.929777 0
    outer loop
      vertex 14.3838 24.0593 48
      vertex 14.0043 23.9091 50
      vertex 14.3838 24.0593 50
    endloop
  endfacet
  facet normal -0.368124 0.929777 0
    outer loop
      vertex 14.0043 23.9091 50
      vertex 14.3838 24.0593 48
      vertex 14.0043 23.9091 48
    endloop
  endfacet
  facet normal -0.904826 0.425782 0
    outer loop
      vertex 15.848 25.4343 48
      vertex 16.0218 25.8036 50
      vertex 16.0218 25.8036 48
    endloop
  endfacet
  facet normal -0.904826 0.425782 0
    outer loop
      vertex 16.0218 25.8036 50
      vertex 15.848 25.4343 48
      vertex 15.848 25.4343 50
    endloop
  endfacet
  facet normal -0.844327 0.535828 0
    outer loop
      vertex 15.6293 25.0897 48
      vertex 15.848 25.4343 50
      vertex 15.848 25.4343 48
    endloop
  endfacet
  facet normal -0.844327 0.535828 0
    outer loop
      vertex 15.848 25.4343 50
      vertex 15.6293 25.0897 48
      vertex 15.6293 25.0897 50
    endloop
  endfacet
  facet normal 0.368124 0.929777 -0
    outer loop
      vertex 11.9957 23.9091 48
      vertex 11.6162 24.0593 50
      vertex 11.9957 23.9091 50
    endloop
  endfacet
  facet normal 0.368124 0.929777 0
    outer loop
      vertex 11.6162 24.0593 50
      vertex 11.9957 23.9091 48
      vertex 11.6162 24.0593 48
    endloop
  endfacet
  facet normal 0.481755 0.876306 -0
    outer loop
      vertex 11.6162 24.0593 48
      vertex 11.2586 24.2559 50
      vertex 11.6162 24.0593 50
    endloop
  endfacet
  facet normal 0.481755 0.876306 0
    outer loop
      vertex 11.2586 24.2559 50
      vertex 11.6162 24.0593 48
      vertex 11.2586 24.2559 48
    endloop
  endfacet
  facet normal 0.125333 0.992115 -0
    outer loop
      vertex 12.7959 23.7564 48
      vertex 12.391 23.8076 50
      vertex 12.7959 23.7564 50
    endloop
  endfacet
  facet normal 0.125333 0.992115 0
    outer loop
      vertex 12.391 23.8076 50
      vertex 12.7959 23.7564 48
      vertex 12.391 23.8076 48
    endloop
  endfacet
  facet normal 0.844327 0.535828 0
    outer loop
      vertex 10.3707 25.0897 50
      vertex 10.152 25.4343 48
      vertex 10.152 25.4343 50
    endloop
  endfacet
  facet normal 0.844327 0.535828 0
    outer loop
      vertex 10.152 25.4343 48
      vertex 10.3707 25.0897 50
      vertex 10.3707 25.0897 48
    endloop
  endfacet
  facet normal 0.951057 0.309017 0
    outer loop
      vertex 9.97823 25.8036 50
      vertex 9.8521 26.1918 48
      vertex 9.8521 26.1918 50
    endloop
  endfacet
  facet normal 0.951057 0.309017 0
    outer loop
      vertex 9.8521 26.1918 48
      vertex 9.97823 25.8036 50
      vertex 9.97823 25.8036 48
    endloop
  endfacet
  facet normal 0.982287 0.18738 0
    outer loop
      vertex 9.8521 26.1918 50
      vertex 9.77563 26.5927 48
      vertex 9.77563 26.5927 50
    endloop
  endfacet
  facet normal 0.982287 0.18738 0
    outer loop
      vertex 9.77563 26.5927 48
      vertex 9.8521 26.1918 50
      vertex 9.8521 26.1918 48
    endloop
  endfacet
  facet normal -0.770513 0.637425 0
    outer loop
      vertex 15.3691 24.7752 48
      vertex 15.6293 25.0897 50
      vertex 15.6293 25.0897 48
    endloop
  endfacet
  facet normal -0.770513 0.637425 0
    outer loop
      vertex 15.6293 25.0897 50
      vertex 15.3691 24.7752 48
      vertex 15.3691 24.7752 50
    endloop
  endfacet
  facet normal 0.248689 0.968583 -0
    outer loop
      vertex 12.391 23.8076 48
      vertex 11.9957 23.9091 50
      vertex 12.391 23.8076 50
    endloop
  endfacet
  facet normal 0.248689 0.968583 0
    outer loop
      vertex 11.9957 23.9091 50
      vertex 12.391 23.8076 48
      vertex 11.9957 23.9091 48
    endloop
  endfacet
  facet normal 0 1 -0
    outer loop
      vertex 13.2041 23.7564 48
      vertex 12.7959 23.7564 50
      vertex 13.2041 23.7564 50
    endloop
  endfacet
  facet normal 0 1 0
    outer loop
      vertex 12.7959 23.7564 50
      vertex 13.2041 23.7564 48
      vertex 12.7959 23.7564 48
    endloop
  endfacet
  facet normal 0 -1 0
    outer loop
      vertex 0 0.00999928 50
      vertex 2 0.00999928 48
      vertex 80 0.00999928 50
    endloop
  endfacet
  facet normal 0 -1 0
    outer loop
      vertex 0 0.00999928 50
      vertex 2 0.00999928 2
      vertex 2 0.00999928 48
    endloop
  endfacet
  facet normal 0 -1 0
    outer loop
      vertex 0 0.00999928 0
      vertex 2 0.00999928 2
      vertex 0 0.00999928 50
    endloop
  endfacet
  facet normal 0 -1 -0
    outer loop
      vertex 2 0.00999928 2
      vertex 0 0.00999928 0
      vertex 2 0.00999928 0
    endloop
  endfacet
  facet normal 0 -1 0
    outer loop
      vertex 78 0.00999928 48
      vertex 80 0.00999928 50
      vertex 2 0.00999928 48
    endloop
  endfacet
  facet normal 0 -1 0
    outer loop
      vertex 78 0.00999928 3
      vertex 80 0.00999928 50
      vertex 78 0.00999928 48
    endloop
  endfacet
  facet normal 0 -1 0
    outer loop
      vertex 80 0.00999928 0
      vertex 78 0.00999928 3
      vertex 78 0.00999928 0
    endloop
  endfacet
  facet normal 0 -1 0
    outer loop
      vertex 78 0.00999928 3
      vertex 80 0.00999928 0
      vertex 80 0.00999928 50
    endloop
  endfacet
endsolid OpenSCAD_Model
