solid OpenSCAD_Model
  facet normal -1 0 0
    outer loop
      vertex 78 0.00999928 3
      vertex 78 20 48
      vertex 78 20 3
    endloop
  endfacet
  facet normal -1 -0 0
    outer loop
      vertex 78 20 48
      vertex 78 0.00999928 3
      vertex 78 0.00999928 48
    endloop
  endfacet
  facet normal 1 -0 2.0732e-008
    outer loop
      vertex 2 0.00999928 48
      vertex 2 38 2
      vertex 2 38 48
    endloop
  endfacet
  facet normal 1 0 2.0732e-008
    outer loop
      vertex 2 38 2
      vertex 2 0.00999928 48
      vertex 2 0.00999928 2
    endloop
  endfacet
  facet normal 0 0 -1
    outer loop
      vertex 78 0.00999928 48
      vertex 40 20 48
      vertex 78 20 48
    endloop
  endfacet
  facet normal 0 0 -1
    outer loop
      vertex 15.4803 27.3133 48
      vertex 40 20 48
      vertex 15.5 27 48
    endloop
  endfacet
  facet normal 0 0 -1
    outer loop
      vertex 2 0.00999928 48
      vertex 40 20 48
      vertex 78 0.00999928 48
    endloop
  endfacet
  facet normal 0 0 -1
    outer loop
      vertex 40 20 48
      vertex 15.4803 26.6867 48
      vertex 15.5 27 48
    endloop
  endfacet
  facet normal 0 0 -1
    outer loop
      vertex 40 20 48
      vertex 15.4215 26.3783 48
      vertex 15.4803 26.6867 48
    endloop
  endfacet
  facet normal 0 0 -1
    outer loop
      vertex 40 20 48
      vertex 15.3244 26.0797 48
      vertex 15.4215 26.3783 48
    endloop
  endfacet
  facet normal 0 0 -1
    outer loop
      vertex 40 20 48
      vertex 15.1908 25.7956 48
      vertex 15.3244 26.0797 48
    endloop
  endfacet
  facet normal 0 0 -1
    outer loop
      vertex 40 20 48
      vertex 15.0225 25.5305 48
      vertex 15.1908 25.7956 48
    endloop
  endfacet
  facet normal 0 0 -1
    outer loop
      vertex 40 20 48
      vertex 14.8224 25.2886 48
      vertex 15.0225 25.5305 48
    endloop
  endfacet
  facet normal 0 0 -1
    outer loop
      vertex 40 20 48
      vertex 14.5936 25.0737 48
      vertex 14.8224 25.2886 48
    endloop
  endfacet
  facet normal 0 -0 -1
    outer loop
      vertex 14.0644 24.7379 48
      vertex 40 20 48
      vertex 2 0.00999928 48
    endloop
  endfacet
  facet normal 0 0 -1
    outer loop
      vertex 40 20 48
      vertex 14.3396 24.8892 48
      vertex 14.5936 25.0737 48
    endloop
  endfacet
  facet normal 0 0 -1
    outer loop
      vertex 40 20 48
      vertex 14.0644 24.7379 48
      vertex 14.3396 24.8892 48
    endloop
  endfacet
  facet normal 0 0 -1
    outer loop
      vertex 14.0644 24.7379 48
      vertex 2 0.00999928 48
      vertex 13.7725 24.6224 48
    endloop
  endfacet
  facet normal 0 0 -1
    outer loop
      vertex 13.7725 24.6224 48
      vertex 2 0.00999928 48
      vertex 13.4685 24.5443 48
    endloop
  endfacet
  facet normal 0 0 -1
    outer loop
      vertex 13.4685 24.5443 48
      vertex 2 0.00999928 48
      vertex 13.157 24.5049 48
    endloop
  endfacet
  facet normal -0 0 -1
    outer loop
      vertex 13.157 24.5049 48
      vertex 2 0.00999928 48
      vertex 12.843 24.5049 48
    endloop
  endfacet
  facet normal -0 0 -1
    outer loop
      vertex 12.843 24.5049 48
      vertex 2 0.00999928 48
      vertex 12.5315 24.5443 48
    endloop
  endfacet
  facet normal 0 0 -1
    outer loop
      vertex 10.5785 26.3783 48
      vertex 2 38 48
      vertex 10.5197 26.6867 48
    endloop
  endfacet
  facet normal 0 0 -1
    outer loop
      vertex 2 38 48
      vertex 10.5785 26.3783 48
      vertex 2 0.00999928 48
    endloop
  endfacet
  facet normal -0 0 -1
    outer loop
      vertex 10.6756 26.0797 48
      vertex 2 0.00999928 48
      vertex 10.5785 26.3783 48
    endloop
  endfacet
  facet normal -0 0 -1
    outer loop
      vertex 10.8092 25.7956 48
      vertex 2 0.00999928 48
      vertex 10.6756 26.0797 48
    endloop
  endfacet
  facet normal -0 0 -1
    outer loop
      vertex 10.9775 25.5305 48
      vertex 2 0.00999928 48
      vertex 10.8092 25.7956 48
    endloop
  endfacet
  facet normal -0 0 -1
    outer loop
      vertex 11.1776 25.2886 48
      vertex 2 0.00999928 48
      vertex 10.9775 25.5305 48
    endloop
  endfacet
  facet normal -0 0 -1
    outer loop
      vertex 11.4064 25.0737 48
      vertex 2 0.00999928 48
      vertex 11.1776 25.2886 48
    endloop
  endfacet
  facet normal -0 0 -1
    outer loop
      vertex 11.6604 24.8892 48
      vertex 2 0.00999928 48
      vertex 11.4064 25.0737 48
    endloop
  endfacet
  facet normal -0 0 -1
    outer loop
      vertex 11.9356 24.7379 48
      vertex 2 0.00999928 48
      vertex 11.6604 24.8892 48
    endloop
  endfacet
  facet normal -0 0 -1
    outer loop
      vertex 12.2275 24.6224 48
      vertex 2 0.00999928 48
      vertex 11.9356 24.7379 48
    endloop
  endfacet
  facet normal -0 0 -1
    outer loop
      vertex 12.5315 24.5443 48
      vertex 2 0.00999928 48
      vertex 12.2275 24.6224 48
    endloop
  endfacet
  facet normal 0 0 -1
    outer loop
      vertex 40 20 48
      vertex 15.4803 27.3133 48
      vertex 40 38 48
    endloop
  endfacet
  facet normal 0 0 -1
    outer loop
      vertex 15.4215 27.6217 48
      vertex 40 38 48
      vertex 15.4803 27.3133 48
    endloop
  endfacet
  facet normal 0 0 -1
    outer loop
      vertex 15.3244 27.9203 48
      vertex 40 38 48
      vertex 15.4215 27.6217 48
    endloop
  endfacet
  facet normal 0 0 -1
    outer loop
      vertex 15.1908 28.2044 48
      vertex 40 38 48
      vertex 15.3244 27.9203 48
    endloop
  endfacet
  facet normal 0 0 -1
    outer loop
      vertex 15.0225 28.4695 48
      vertex 40 38 48
      vertex 15.1908 28.2044 48
    endloop
  endfacet
  facet normal 0 0 -1
    outer loop
      vertex 14.8224 28.7114 48
      vertex 40 38 48
      vertex 15.0225 28.4695 48
    endloop
  endfacet
  facet normal 0 0 -1
    outer loop
      vertex 14.5936 28.9263 48
      vertex 40 38 48
      vertex 14.8224 28.7114 48
    endloop
  endfacet
  facet normal 0 0 -1
    outer loop
      vertex 14.3396 29.1108 48
      vertex 40 38 48
      vertex 14.5936 28.9263 48
    endloop
  endfacet
  facet normal 0 0 -1
    outer loop
      vertex 14.0644 29.2621 48
      vertex 40 38 48
      vertex 14.3396 29.1108 48
    endloop
  endfacet
  facet normal 0 0 -1
    outer loop
      vertex 13.7725 29.3776 48
      vertex 40 38 48
      vertex 14.0644 29.2621 48
    endloop
  endfacet
  facet normal 0 0 -1
    outer loop
      vertex 2 38 48
      vertex 13.7725 29.3776 48
      vertex 13.4685 29.4557 48
    endloop
  endfacet
  facet normal 0 0 -1
    outer loop
      vertex 2 38 48
      vertex 13.4685 29.4557 48
      vertex 13.157 29.4951 48
    endloop
  endfacet
  facet normal 0 0 -1
    outer loop
      vertex 2 38 48
      vertex 13.157 29.4951 48
      vertex 12.843 29.4951 48
    endloop
  endfacet
  facet normal 0 0 -1
    outer loop
      vertex 2 38 48
      vertex 12.843 29.4951 48
      vertex 12.5315 29.4557 48
    endloop
  endfacet
  facet normal 0 0 -1
    outer loop
      vertex 2 38 48
      vertex 12.5315 29.4557 48
      vertex 12.2275 29.3776 48
    endloop
  endfacet
  facet normal 0 0 -1
    outer loop
      vertex 10.5197 26.6867 48
      vertex 2 38 48
      vertex 10.5 27 48
    endloop
  endfacet
  facet normal 0 0 -1
    outer loop
      vertex 10.5 27 48
      vertex 2 38 48
      vertex 10.5197 27.3133 48
    endloop
  endfacet
  facet normal 0 0 -1
    outer loop
      vertex 13.7725 29.3776 48
      vertex 2 38 48
      vertex 40 38 48
    endloop
  endfacet
  facet normal 0 0 -1
    outer loop
      vertex 11.9356 29.2621 48
      vertex 2 38 48
      vertex 12.2275 29.3776 48
    endloop
  endfacet
  facet normal 0 0 -1
    outer loop
      vertex 11.6604 29.1108 48
      vertex 2 38 48
      vertex 11.9356 29.2621 48
    endloop
  endfacet
  facet normal 0 0 -1
    outer loop
      vertex 11.4064 28.9263 48
      vertex 2 38 48
      vertex 11.6604 29.1108 48
    endloop
  endfacet
  facet normal 0 0 -1
    outer loop
      vertex 11.1776 28.7114 48
      vertex 2 38 48
      vertex 11.4064 28.9263 48
    endloop
  endfacet
  facet normal 0 0 -1
    outer loop
      vertex 10.9775 28.4695 48
      vertex 2 38 48
      vertex 11.1776 28.7114 48
    endloop
  endfacet
  facet normal 0 0 -1
    outer loop
      vertex 10.8092 28.2044 48
      vertex 2 38 48
      vertex 10.9775 28.4695 48
    endloop
  endfacet
  facet normal 0 0 -1
    outer loop
      vertex 10.6756 27.9203 48
      vertex 2 38 48
      vertex 10.8092 28.2044 48
    endloop
  endfacet
  facet normal 0 0 -1
    outer loop
      vertex 10.5785 27.6217 48
      vertex 2 38 48
      vertex 10.6756 27.9203 48
    endloop
  endfacet
  facet normal 0 0 -1
    outer loop
      vertex 10.5197 27.3133 48
      vertex 2 38 48
      vertex 10.5785 27.6217 48
    endloop
  endfacet
  facet normal 0 -1 0
    outer loop
      vertex 2 38 2
      vertex 40 38 48
      vertex 2 38 48
    endloop
  endfacet
  facet normal 0 -1 0
    outer loop
      vertex 40 38 0
      vertex 2 38 2
      vertex 2 38 0
    endloop
  endfacet
  facet normal 0 -1 0
    outer loop
      vertex 2 38 2
      vertex 40 38 0
      vertex 40 38 48
    endloop
  endfacet
  facet normal 1 -0 0
    outer loop
      vertex 2 0.00999928 2
      vertex 2 38 0
      vertex 2 38 2
    endloop
  endfacet
  facet normal 1 0 0
    outer loop
      vertex 2 38 0
      vertex 2 0.00999928 2
      vertex 2 0.00999928 0
    endloop
  endfacet
  facet normal -1 0 0
    outer loop
      vertex 78 0.00999928 0
      vertex 78 20 3
      vertex 78 20 0
    endloop
  endfacet
  facet normal -1 -0 0
    outer loop
      vertex 78 20 3
      vertex 78 0.00999928 0
      vertex 78 0.00999928 3
    endloop
  endfacet
  facet normal 0 -1 0
    outer loop
      vertex 40 20 48
      vertex 58.9483 20 36.7169
      vertex 78 20 48
    endloop
  endfacet
  facet normal 0 -1 0
    outer loop
      vertex 40 20 48
      vertex 56.8614 20 36.4533
      vertex 58.9483 20 36.7169
    endloop
  endfacet
  facet normal 0 -1 0
    outer loop
      vertex 40 20 48
      vertex 54.824 20 35.9302
      vertex 56.8614 20 36.4533
    endloop
  endfacet
  facet normal 0 -1 0
    outer loop
      vertex 40 20 48
      vertex 52.8682 20 35.1559
      vertex 54.824 20 35.9302
    endloop
  endfacet
  facet normal 0 -1 0
    outer loop
      vertex 40 20 48
      vertex 51.0249 20 34.1425
      vertex 52.8682 20 35.1559
    endloop
  endfacet
  facet normal 0 -1 0
    outer loop
      vertex 40 20 48
      vertex 49.3231 20 32.9061
      vertex 51.0249 20 34.1425
    endloop
  endfacet
  facet normal 0 -1 0
    outer loop
      vertex 40 20 48
      vertex 47.7898 20 31.4662
      vertex 49.3231 20 32.9061
    endloop
  endfacet
  facet normal 0 -1 0
    outer loop
      vertex 40 20 48
      vertex 46.449 20 29.8454
      vertex 47.7898 20 31.4662
    endloop
  endfacet
  facet normal 0 -1 0
    outer loop
      vertex 40 20 48
      vertex 45.3219 20 28.0694
      vertex 46.449 20 29.8454
    endloop
  endfacet
  facet normal 0 -1 0
    outer loop
      vertex 40 20 48
      vertex 44.4262 20 26.1661
      vertex 45.3219 20 28.0694
    endloop
  endfacet
  facet normal 0 -1 0
    outer loop
      vertex 40 20 48
      vertex 43.7762 20 24.1656
      vertex 44.4262 20 26.1661
    endloop
  endfacet
  facet normal 0 -1 0
    outer loop
      vertex 40 20 48
      vertex 43.3821 20 22.0993
      vertex 43.7762 20 24.1656
    endloop
  endfacet
  facet normal 0 -1 0
    outer loop
      vertex 40 20 48
      vertex 43.25 20 20
      vertex 43.3821 20 22.0993
    endloop
  endfacet
  facet normal 0 -1 0
    outer loop
      vertex 40 20 0
      vertex 43.25 20 20
      vertex 40 20 48
    endloop
  endfacet
  facet normal 0 -1 0
    outer loop
      vertex 78 20 0
      vertex 61.0517 20 3.28305
      vertex 58.9483 20 3.28305
    endloop
  endfacet
  facet normal 0 -1 -0
    outer loop
      vertex 43.25 20 20
      vertex 40 20 0
      vertex 43.3821 20 17.9007
    endloop
  endfacet
  facet normal 0 -1 0
    outer loop
      vertex 40 20 0
      vertex 43.7762 20 15.8344
      vertex 43.3821 20 17.9007
    endloop
  endfacet
  facet normal 0 -1 0
    outer loop
      vertex 40 20 0
      vertex 44.4262 20 13.8339
      vertex 43.7762 20 15.8344
    endloop
  endfacet
  facet normal 0 -1 0
    outer loop
      vertex 40 20 0
      vertex 45.3219 20 11.9306
      vertex 44.4262 20 13.8339
    endloop
  endfacet
  facet normal 0 -1 0
    outer loop
      vertex 40 20 0
      vertex 46.449 20 10.1546
      vertex 45.3219 20 11.9306
    endloop
  endfacet
  facet normal 0 -1 0
    outer loop
      vertex 40 20 0
      vertex 47.7898 20 8.53384
      vertex 46.449 20 10.1546
    endloop
  endfacet
  facet normal 0 -1 0
    outer loop
      vertex 40 20 0
      vertex 49.3231 20 7.0939
      vertex 47.7898 20 8.53384
    endloop
  endfacet
  facet normal 0 -1 0
    outer loop
      vertex 40 20 0
      vertex 51.0249 20 5.85751
      vertex 49.3231 20 7.0939
    endloop
  endfacet
  facet normal 0 -1 0
    outer loop
      vertex 40 20 0
      vertex 52.8682 20 4.84415
      vertex 51.0249 20 5.85751
    endloop
  endfacet
  facet normal 0 -1 0
    outer loop
      vertex 40 20 0
      vertex 54.824 20 4.0698
      vertex 52.8682 20 4.84415
    endloop
  endfacet
  facet normal 0 -1 0
    outer loop
      vertex 40 20 0
      vertex 56.8614 20 3.54669
      vertex 54.824 20 4.0698
    endloop
  endfacet
  facet normal 0 -1 0
    outer loop
      vertex 40 20 0
      vertex 58.9483 20 3.28305
      vertex 56.8614 20 3.54669
    endloop
  endfacet
  facet normal 0 -1 0
    outer loop
      vertex 78 20 0
      vertex 58.9483 20 3.28305
      vertex 40 20 0
    endloop
  endfacet
  facet normal 0 -1 0
    outer loop
      vertex 61.0517 20 3.28305
      vertex 78 20 0
      vertex 78 20 3
    endloop
  endfacet
  facet normal 0 -1 0
    outer loop
      vertex 61.0517 20 36.7169
      vertex 78 20 48
      vertex 58.9483 20 36.7169
    endloop
  endfacet
  facet normal 0 -1 0
    outer loop
      vertex 63.1386 20 36.4533
      vertex 78 20 48
      vertex 61.0517 20 36.7169
    endloop
  endfacet
  facet normal 0 -1 0
    outer loop
      vertex 65.176 20 35.9302
      vertex 78 20 48
      vertex 63.1386 20 36.4533
    endloop
  endfacet
  facet normal 0 -1 0
    outer loop
      vertex 67.1318 20 35.1559
      vertex 78 20 48
      vertex 65.176 20 35.9302
    endloop
  endfacet
  facet normal 0 -1 0
    outer loop
      vertex 68.9751 20 34.1425
      vertex 78 20 48
      vertex 67.1318 20 35.1559
    endloop
  endfacet
  facet normal 0 -1 0
    outer loop
      vertex 70.6768 20 32.9061
      vertex 78 20 48
      vertex 68.9751 20 34.1425
    endloop
  endfacet
  facet normal 0 -1 0
    outer loop
      vertex 72.2102 20 31.4662
      vertex 78 20 48
      vertex 70.6768 20 32.9061
    endloop
  endfacet
  facet normal 0 -1 0
    outer loop
      vertex 73.551 20 29.8454
      vertex 78 20 48
      vertex 72.2102 20 31.4662
    endloop
  endfacet
  facet normal 0 -1 0
    outer loop
      vertex 74.6781 20 28.0694
      vertex 78 20 48
      vertex 73.551 20 29.8454
    endloop
  endfacet
  facet normal 0 -1 0
    outer loop
      vertex 75.5738 20 26.1661
      vertex 78 20 48
      vertex 74.6781 20 28.0694
    endloop
  endfacet
  facet normal 0 -1 0
    outer loop
      vertex 76.2238 20 24.1656
      vertex 78 20 48
      vertex 75.5738 20 26.1661
    endloop
  endfacet
  facet normal 0 -1 0
    outer loop
      vertex 76.6179 20 22.0993
      vertex 78 20 48
      vertex 76.2238 20 24.1656
    endloop
  endfacet
  facet normal 0 -1 0
    outer loop
      vertex 76.684 20 21.0497
      vertex 78 20 48
      vertex 76.6179 20 22.0993
    endloop
  endfacet
  facet normal 0 -1 0
    outer loop
      vertex 76.75 20 20
      vertex 78 20 48
      vertex 76.684 20 21.0497
    endloop
  endfacet
  facet normal 0 -1 0
    outer loop
      vertex 76.75 20 20
      vertex 78 20 3
      vertex 78 20 48
    endloop
  endfacet
  facet normal 0 -1 0
    outer loop
      vertex 76.684 20 18.9503
      vertex 78 20 3
      vertex 76.75 20 20
    endloop
  endfacet
  facet normal 0 -1 0
    outer loop
      vertex 76.6179 20 17.9007
      vertex 78 20 3
      vertex 76.684 20 18.9503
    endloop
  endfacet
  facet normal 0 -1 0
    outer loop
      vertex 76.2238 20 15.8344
      vertex 78 20 3
      vertex 76.6179 20 17.9007
    endloop
  endfacet
  facet normal 0 -1 0
    outer loop
      vertex 75.5738 20 13.8339
      vertex 78 20 3
      vertex 76.2238 20 15.8344
    endloop
  endfacet
  facet normal 0 -1 0
    outer loop
      vertex 74.6781 20 11.9306
      vertex 78 20 3
      vertex 75.5738 20 13.8339
    endloop
  endfacet
  facet normal 0 -1 0
    outer loop
      vertex 73.551 20 10.1546
      vertex 78 20 3
      vertex 74.6781 20 11.9306
    endloop
  endfacet
  facet normal 0 -1 0
    outer loop
      vertex 72.2102 20 8.53384
      vertex 78 20 3
      vertex 73.551 20 10.1546
    endloop
  endfacet
  facet normal 0 -1 0
    outer loop
      vertex 70.6768 20 7.0939
      vertex 78 20 3
      vertex 72.2102 20 8.53384
    endloop
  endfacet
  facet normal 0 -1 0
    outer loop
      vertex 68.9751 20 5.85751
      vertex 78 20 3
      vertex 70.6768 20 7.0939
    endloop
  endfacet
  facet normal 0 -1 0
    outer loop
      vertex 67.1318 20 4.84415
      vertex 78 20 3
      vertex 68.9751 20 5.85751
    endloop
  endfacet
  facet normal 0 -1 0
    outer loop
      vertex 65.176 20 4.0698
      vertex 78 20 3
      vertex 67.1318 20 4.84415
    endloop
  endfacet
  facet normal 0 -1 0
    outer loop
      vertex 63.1386 20 3.54669
      vertex 78 20 3
      vertex 65.176 20 4.0698
    endloop
  endfacet
  facet normal 0 -1 0
    outer loop
      vertex 78 20 3
      vertex 63.1386 20 3.54669
      vertex 61.0517 20 3.28305
    endloop
  endfacet
  facet normal -1 0 0
    outer loop
      vertex 40 20 0
      vertex 40 38 48
      vertex 40 38 0
    endloop
  endfacet
  facet normal -1 -0 0
    outer loop
      vertex 40 38 48
      vertex 40 20 0
      vertex 40 20 48
    endloop
  endfacet
  facet normal 0 0 -1
    outer loop
      vertex 2 0.00999928 0
      vertex 0 0.00999928 0
      vertex 2 38 0
    endloop
  endfacet
  facet normal 0 0 -1
    outer loop
      vertex 78 20 0
      vertex 80 0.00999928 0
      vertex 78 0.00999928 0
    endloop
  endfacet
  facet normal 0 0 -1
    outer loop
      vertex 80 0.00999928 0
      vertex 78 20 0
      vertex 80 40 0
    endloop
  endfacet
  facet normal 0 0 -1
    outer loop
      vertex 40 38 0
      vertex 78 20 0
      vertex 40 20 0
    endloop
  endfacet
  facet normal 0 0 -1
    outer loop
      vertex 78 20 0
      vertex 40 38 0
      vertex 80 40 0
    endloop
  endfacet
  facet normal 0 0 -1
    outer loop
      vertex 0 40 0
      vertex 40 38 0
      vertex 2 38 0
    endloop
  endfacet
  facet normal 0 0 -1
    outer loop
      vertex 40 38 0
      vertex 0 40 0
      vertex 80 40 0
    endloop
  endfacet
  facet normal 0 0 -1
    outer loop
      vertex 0 40 0
      vertex 2 38 0
      vertex 0 0.00999928 0
    endloop
  endfacet
  facet normal 1 -0 0
    outer loop
      vertex 80 0.00999928 50
      vertex 80 40 0
      vertex 80 40 50
    endloop
  endfacet
  facet normal 1 0 0
    outer loop
      vertex 80 40 0
      vertex 80 0.00999928 50
      vertex 80 0.00999928 0
    endloop
  endfacet
  facet normal -1 0 0
    outer loop
      vertex 0 0.00999928 0
      vertex 0 40 50
      vertex 0 40 0
    endloop
  endfacet
  facet normal -1 -0 0
    outer loop
      vertex 0 40 50
      vertex 0 0.00999928 0
      vertex 0 0.00999928 50
    endloop
  endfacet
  facet normal 0 0 1
    outer loop
      vertex 15.4803 26.6867 50
      vertex 80 40 50
      vertex 15.5 27 50
    endloop
  endfacet
  facet normal 0 0 1
    outer loop
      vertex 80 40 50
      vertex 15.4803 27.3133 50
      vertex 15.5 27 50
    endloop
  endfacet
  facet normal 0 0 1
    outer loop
      vertex 80 40 50
      vertex 15.4215 27.6217 50
      vertex 15.4803 27.3133 50
    endloop
  endfacet
  facet normal 0 0 1
    outer loop
      vertex 80 40 50
      vertex 15.3244 27.9203 50
      vertex 15.4215 27.6217 50
    endloop
  endfacet
  facet normal 0 0 1
    outer loop
      vertex 80 40 50
      vertex 15.1908 28.2044 50
      vertex 15.3244 27.9203 50
    endloop
  endfacet
  facet normal 0 0 1
    outer loop
      vertex 80 40 50
      vertex 15.0225 28.4695 50
      vertex 15.1908 28.2044 50
    endloop
  endfacet
  facet normal 0 0 1
    outer loop
      vertex 80 40 50
      vertex 14.8224 28.7114 50
      vertex 15.0225 28.4695 50
    endloop
  endfacet
  facet normal 0 0 1
    outer loop
      vertex 80 40 50
      vertex 14.5936 28.9263 50
      vertex 14.8224 28.7114 50
    endloop
  endfacet
  facet normal 0 0 1
    outer loop
      vertex 80 40 50
      vertex 14.3396 29.1108 50
      vertex 14.5936 28.9263 50
    endloop
  endfacet
  facet normal 0 0 1
    outer loop
      vertex 80 40 50
      vertex 14.0644 29.2621 50
      vertex 14.3396 29.1108 50
    endloop
  endfacet
  facet normal -0 0 1
    outer loop
      vertex 0 40 50
      vertex 14.0644 29.2621 50
      vertex 80 40 50
    endloop
  endfacet
  facet normal 0 0 1
    outer loop
      vertex 14.0644 29.2621 50
      vertex 0 40 50
      vertex 13.7725 29.3776 50
    endloop
  endfacet
  facet normal 0 0 1
    outer loop
      vertex 13.7725 29.3776 50
      vertex 0 40 50
      vertex 13.4685 29.4557 50
    endloop
  endfacet
  facet normal 0 0 1
    outer loop
      vertex 13.4685 29.4557 50
      vertex 0 40 50
      vertex 13.157 29.4951 50
    endloop
  endfacet
  facet normal 0 0 1
    outer loop
      vertex 13.157 29.4951 50
      vertex 0 40 50
      vertex 12.843 29.4951 50
    endloop
  endfacet
  facet normal 0 0 1
    outer loop
      vertex 10.5197 27.3133 50
      vertex 0 40 50
      vertex 10.5 27 50
    endloop
  endfacet
  facet normal 0 0 1
    outer loop
      vertex 10.5785 27.6217 50
      vertex 0 40 50
      vertex 10.5197 27.3133 50
    endloop
  endfacet
  facet normal 0 0 1
    outer loop
      vertex 10.6756 27.9203 50
      vertex 0 40 50
      vertex 10.5785 27.6217 50
    endloop
  endfacet
  facet normal 0 0 1
    outer loop
      vertex 10.8092 28.2044 50
      vertex 0 40 50
      vertex 10.6756 27.9203 50
    endloop
  endfacet
  facet normal 0 0 1
    outer loop
      vertex 10.9775 28.4695 50
      vertex 0 40 50
      vertex 10.8092 28.2044 50
    endloop
  endfacet
  facet normal 0 0 1
    outer loop
      vertex 11.1776 28.7114 50
      vertex 0 40 50
      vertex 10.9775 28.4695 50
    endloop
  endfacet
  facet normal 0 0 1
    outer loop
      vertex 11.4064 28.9263 50
      vertex 0 40 50
      vertex 11.1776 28.7114 50
    endloop
  endfacet
  facet normal 0 0 1
    outer loop
      vertex 11.6604 29.1108 50
      vertex 0 40 50
      vertex 11.4064 28.9263 50
    endloop
  endfacet
  facet normal 0 0 1
    outer loop
      vertex 11.9356 29.2621 50
      vertex 0 40 50
      vertex 11.6604 29.1108 50
    endloop
  endfacet
  facet normal 0 0 1
    outer loop
      vertex 12.2275 29.3776 50
      vertex 0 40 50
      vertex 11.9356 29.2621 50
    endloop
  endfacet
  facet normal 0 0 1
    outer loop
      vertex 12.5315 29.4557 50
      vertex 0 40 50
      vertex 12.2275 29.3776 50
    endloop
  endfacet
  facet normal 0 0 1
    outer loop
      vertex 12.843 29.4951 50
      vertex 0 40 50
      vertex 12.5315 29.4557 50
    endloop
  endfacet
  facet normal 0 0 1
    outer loop
      vertex 80 40 50
      vertex 15.4803 26.6867 50
      vertex 80 0.00999928 50
    endloop
  endfacet
  facet normal -0 0 1
    outer loop
      vertex 15.4215 26.3783 50
      vertex 80 0.00999928 50
      vertex 15.4803 26.6867 50
    endloop
  endfacet
  facet normal -0 0 1
    outer loop
      vertex 15.3244 26.0797 50
      vertex 80 0.00999928 50
      vertex 15.4215 26.3783 50
    endloop
  endfacet
  facet normal -0 0 1
    outer loop
      vertex 15.1908 25.7956 50
      vertex 80 0.00999928 50
      vertex 15.3244 26.0797 50
    endloop
  endfacet
  facet normal -0 0 1
    outer loop
      vertex 15.0225 25.5305 50
      vertex 80 0.00999928 50
      vertex 15.1908 25.7956 50
    endloop
  endfacet
  facet normal -0 0 1
    outer loop
      vertex 14.8224 25.2886 50
      vertex 80 0.00999928 50
      vertex 15.0225 25.5305 50
    endloop
  endfacet
  facet normal -0 0 1
    outer loop
      vertex 14.5936 25.0737 50
      vertex 80 0.00999928 50
      vertex 14.8224 25.2886 50
    endloop
  endfacet
  facet normal 0 0 1
    outer loop
      vertex 0 0.00999928 50
      vertex 14.5936 25.0737 50
      vertex 14.3396 24.8892 50
    endloop
  endfacet
  facet normal 0 0 1
    outer loop
      vertex 0 0.00999928 50
      vertex 14.3396 24.8892 50
      vertex 14.0644 24.7379 50
    endloop
  endfacet
  facet normal 0 0 1
    outer loop
      vertex 0 0.00999928 50
      vertex 14.0644 24.7379 50
      vertex 13.7725 24.6224 50
    endloop
  endfacet
  facet normal 0 0 1
    outer loop
      vertex 0 0.00999928 50
      vertex 13.7725 24.6224 50
      vertex 13.4685 24.5443 50
    endloop
  endfacet
  facet normal 0 0 1
    outer loop
      vertex 0 0.00999928 50
      vertex 13.4685 24.5443 50
      vertex 13.157 24.5049 50
    endloop
  endfacet
  facet normal 0 0 1
    outer loop
      vertex 0 0.00999928 50
      vertex 13.157 24.5049 50
      vertex 12.843 24.5049 50
    endloop
  endfacet
  facet normal 0 0 1
    outer loop
      vertex 0 0.00999928 50
      vertex 12.843 24.5049 50
      vertex 12.5315 24.5443 50
    endloop
  endfacet
  facet normal 0 0 1
    outer loop
      vertex 0 0.00999928 50
      vertex 12.5315 24.5443 50
      vertex 12.2275 24.6224 50
    endloop
  endfacet
  facet normal 0 0 1
    outer loop
      vertex 0 40 50
      vertex 10.5197 26.6867 50
      vertex 10.5 27 50
    endloop
  endfacet
  facet normal 0 0 1
    outer loop
      vertex 0 40 50
      vertex 10.5785 26.3783 50
      vertex 10.5197 26.6867 50
    endloop
  endfacet
  facet normal 0 0 1
    outer loop
      vertex 0 0.00999928 50
      vertex 10.5785 26.3783 50
      vertex 0 40 50
    endloop
  endfacet
  facet normal 0 0 1
    outer loop
      vertex 10.5785 26.3783 50
      vertex 0 0.00999928 50
      vertex 10.6756 26.0797 50
    endloop
  endfacet
  facet normal 0 0 1
    outer loop
      vertex 10.6756 26.0797 50
      vertex 0 0.00999928 50
      vertex 10.8092 25.7956 50
    endloop
  endfacet
  facet normal 0 0 1
    outer loop
      vertex 14.5936 25.0737 50
      vertex 0 0.00999928 50
      vertex 80 0.00999928 50
    endloop
  endfacet
  facet normal 0 0 1
    outer loop
      vertex 11.9356 24.7379 50
      vertex 0 0.00999928 50
      vertex 12.2275 24.6224 50
    endloop
  endfacet
  facet normal 0 0 1
    outer loop
      vertex 11.6604 24.8892 50
      vertex 0 0.00999928 50
      vertex 11.9356 24.7379 50
    endloop
  endfacet
  facet normal 0 0 1
    outer loop
      vertex 11.4064 25.0737 50
      vertex 0 0.00999928 50
      vertex 11.6604 24.8892 50
    endloop
  endfacet
  facet normal 0 0 1
    outer loop
      vertex 11.1776 25.2886 50
      vertex 0 0.00999928 50
      vertex 11.4064 25.0737 50
    endloop
  endfacet
  facet normal 0 0 1
    outer loop
      vertex 10.9775 25.5305 50
      vertex 0 0.00999928 50
      vertex 11.1776 25.2886 50
    endloop
  endfacet
  facet normal 0 0 1
    outer loop
      vertex 10.8092 25.7956 50
      vertex 0 0.00999928 50
      vertex 10.9775 25.5305 50
    endloop
  endfacet
  facet normal 0 1 0
    outer loop
      vertex 58.9483 40 36.7169
      vertex 80 40 50
      vertex 61.0517 40 36.7169
    endloop
  endfacet
  facet normal 0 1 0
    outer loop
      vertex 80 40 50
      vertex 63.1386 40 36.4533
      vertex 61.0517 40 36.7169
    endloop
  endfacet
  facet normal 0 1 0
    outer loop
      vertex 80 40 50
      vertex 65.176 40 35.9302
      vertex 63.1386 40 36.4533
    endloop
  endfacet
  facet normal 0 1 0
    outer loop
      vertex 80 40 50
      vertex 67.1318 40 35.1559
      vertex 65.176 40 35.9302
    endloop
  endfacet
  facet normal 0 1 0
    outer loop
      vertex 80 40 50
      vertex 68.9751 40 34.1425
      vertex 67.1318 40 35.1559
    endloop
  endfacet
  facet normal 0 1 0
    outer loop
      vertex 80 40 50
      vertex 70.6768 40 32.9061
      vertex 68.9751 40 34.1425
    endloop
  endfacet
  facet normal 0 1 0
    outer loop
      vertex 80 40 50
      vertex 72.2102 40 31.4662
      vertex 70.6768 40 32.9061
    endloop
  endfacet
  facet normal 0 1 0
    outer loop
      vertex 80 40 50
      vertex 73.551 40 29.8454
      vertex 72.2102 40 31.4662
    endloop
  endfacet
  facet normal 0 1 0
    outer loop
      vertex 80 40 50
      vertex 74.6781 40 28.0694
      vertex 73.551 40 29.8454
    endloop
  endfacet
  facet normal 0 1 0
    outer loop
      vertex 80 40 50
      vertex 75.5738 40 26.1661
      vertex 74.6781 40 28.0694
    endloop
  endfacet
  facet normal 0 1 0
    outer loop
      vertex 80 40 50
      vertex 76.2238 40 24.1656
      vertex 75.5738 40 26.1661
    endloop
  endfacet
  facet normal 0 1 0
    outer loop
      vertex 80 40 50
      vertex 76.6179 40 22.0993
      vertex 76.2238 40 24.1656
    endloop
  endfacet
  facet normal 0 1 0
    outer loop
      vertex 80 40 50
      vertex 76.6311 40 21.8894
      vertex 76.6179 40 22.0993
    endloop
  endfacet
  facet normal 0 1 0
    outer loop
      vertex 80 40 50
      vertex 76.75 40 20
      vertex 76.6311 40 21.8894
    endloop
  endfacet
  facet normal 0 1 -0
    outer loop
      vertex 80 40 0
      vertex 76.75 40 20
      vertex 80 40 50
    endloop
  endfacet
  facet normal 0 1 0
    outer loop
      vertex 76.75 40 20
      vertex 80 40 0
      vertex 76.7368 40 19.7901
    endloop
  endfacet
  facet normal 0 1 0
    outer loop
      vertex 61.0517 40 3.28305
      vertex 80 40 0
      vertex 58.9483 40 3.28305
    endloop
  endfacet
  facet normal 0 1 0
    outer loop
      vertex 63.1386 40 3.54669
      vertex 80 40 0
      vertex 61.0517 40 3.28305
    endloop
  endfacet
  facet normal 0 1 0
    outer loop
      vertex 65.176 40 4.0698
      vertex 80 40 0
      vertex 63.1386 40 3.54669
    endloop
  endfacet
  facet normal 0 1 0
    outer loop
      vertex 67.1318 40 4.84415
      vertex 80 40 0
      vertex 65.176 40 4.0698
    endloop
  endfacet
  facet normal 0 1 0
    outer loop
      vertex 68.9751 40 5.85751
      vertex 80 40 0
      vertex 67.1318 40 4.84415
    endloop
  endfacet
  facet normal 0 1 0
    outer loop
      vertex 70.6768 40 7.0939
      vertex 80 40 0
      vertex 68.9751 40 5.85751
    endloop
  endfacet
  facet normal 0 1 0
    outer loop
      vertex 72.2102 40 8.53384
      vertex 80 40 0
      vertex 70.6768 40 7.0939
    endloop
  endfacet
  facet normal 0 1 0
    outer loop
      vertex 73.551 40 10.1546
      vertex 80 40 0
      vertex 72.2102 40 8.53384
    endloop
  endfacet
  facet normal 0 1 0
    outer loop
      vertex 74.6781 40 11.9306
      vertex 80 40 0
      vertex 73.551 40 10.1546
    endloop
  endfacet
  facet normal 0 1 0
    outer loop
      vertex 75.5738 40 13.8339
      vertex 80 40 0
      vertex 74.6781 40 11.9306
    endloop
  endfacet
  facet normal 0 1 0
    outer loop
      vertex 76.2238 40 15.8344
      vertex 80 40 0
      vertex 75.5738 40 13.8339
    endloop
  endfacet
  facet normal 0 1 0
    outer loop
      vertex 76.6179 40 17.9007
      vertex 80 40 0
      vertex 76.2238 40 15.8344
    endloop
  endfacet
  facet normal 0 1 0
    outer loop
      vertex 76.7368 40 19.7901
      vertex 80 40 0
      vertex 76.6179 40 17.9007
    endloop
  endfacet
  facet normal 0 1 0
    outer loop
      vertex 56.8614 40 36.4533
      vertex 80 40 50
      vertex 58.9483 40 36.7169
    endloop
  endfacet
  facet normal 0 1 0
    outer loop
      vertex 54.824 40 35.9302
      vertex 80 40 50
      vertex 56.8614 40 36.4533
    endloop
  endfacet
  facet normal 0 1 0
    outer loop
      vertex 80 40 50
      vertex 54.824 40 35.9302
      vertex 0 40 50
    endloop
  endfacet
  facet normal 0 1 -0
    outer loop
      vertex 52.8682 40 35.1559
      vertex 0 40 50
      vertex 54.824 40 35.9302
    endloop
  endfacet
  facet normal 0 1 -0
    outer loop
      vertex 51.0249 40 34.1425
      vertex 0 40 50
      vertex 52.8682 40 35.1559
    endloop
  endfacet
  facet normal 0 1 -0
    outer loop
      vertex 49.3231 40 32.9061
      vertex 0 40 50
      vertex 51.0249 40 34.1425
    endloop
  endfacet
  facet normal 0 1 -0
    outer loop
      vertex 47.7898 40 31.4662
      vertex 0 40 50
      vertex 49.3231 40 32.9061
    endloop
  endfacet
  facet normal 0 1 -0
    outer loop
      vertex 46.449 40 29.8454
      vertex 0 40 50
      vertex 47.7898 40 31.4662
    endloop
  endfacet
  facet normal 0 1 -0
    outer loop
      vertex 45.3219 40 28.0694
      vertex 0 40 50
      vertex 46.449 40 29.8454
    endloop
  endfacet
  facet normal 0 1 -0
    outer loop
      vertex 44.4262 40 26.1661
      vertex 0 40 50
      vertex 45.3219 40 28.0694
    endloop
  endfacet
  facet normal 0 1 -0
    outer loop
      vertex 43.7762 40 24.1656
      vertex 0 40 50
      vertex 44.4262 40 26.1661
    endloop
  endfacet
  facet normal 0 1 -0
    outer loop
      vertex 43.3821 40 22.0993
      vertex 0 40 50
      vertex 43.7762 40 24.1656
    endloop
  endfacet
  facet normal 0 1 0
    outer loop
      vertex 0 40 0
      vertex 43.3821 40 22.0993
      vertex 43.25 40 20
    endloop
  endfacet
  facet normal 0 1 0
    outer loop
      vertex 0 40 0
      vertex 43.25 40 20
      vertex 43.3821 40 17.9007
    endloop
  endfacet
  facet normal 0 1 0
    outer loop
      vertex 0 40 0
      vertex 43.3821 40 17.9007
      vertex 43.7762 40 15.8344
    endloop
  endfacet
  facet normal 0 1 0
    outer loop
      vertex 0 40 0
      vertex 43.7762 40 15.8344
      vertex 44.4262 40 13.8339
    endloop
  endfacet
  facet normal 0 1 0
    outer loop
      vertex 0 40 0
      vertex 44.4262 40 13.8339
      vertex 45.3219 40 11.9306
    endloop
  endfacet
  facet normal 0 1 0
    outer loop
      vertex 0 40 0
      vertex 45.3219 40 11.9306
      vertex 46.449 40 10.1546
    endloop
  endfacet
  facet normal 0 1 0
    outer loop
      vertex 0 40 0
      vertex 46.449 40 10.1546
      vertex 47.7898 40 8.53384
    endloop
  endfacet
  facet normal 0 1 0
    outer loop
      vertex 0 40 0
      vertex 47.7898 40 8.53384
      vertex 49.3231 40 7.0939
    endloop
  endfacet
  facet normal 0 1 0
    outer loop
      vertex 0 40 0
      vertex 58.9483 40 3.28305
      vertex 80 40 0
    endloop
  endfacet
  facet normal 0 1 0
    outer loop
      vertex 43.3821 40 22.0993
      vertex 0 40 0
      vertex 0 40 50
    endloop
  endfacet
  facet normal 0 1 0
    outer loop
      vertex 51.0249 40 5.85751
      vertex 0 40 0
      vertex 49.3231 40 7.0939
    endloop
  endfacet
  facet normal 0 1 0
    outer loop
      vertex 52.8682 40 4.84415
      vertex 0 40 0
      vertex 51.0249 40 5.85751
    endloop
  endfacet
  facet normal 0 1 0
    outer loop
      vertex 54.824 40 4.0698
      vertex 0 40 0
      vertex 52.8682 40 4.84415
    endloop
  endfacet
  facet normal 0 1 0
    outer loop
      vertex 56.8614 40 3.54669
      vertex 0 40 0
      vertex 54.824 40 4.0698
    endloop
  endfacet
  facet normal 0 1 0
    outer loop
      vertex 58.9483 40 3.28305
      vertex 0 40 0
      vertex 56.8614 40 3.54669
    endloop
  endfacet
  facet normal -0.998027 0 0.0627913
    outer loop
      vertex 76.684 20 18.9503
      vertex 76.6179 40 17.9007
      vertex 76.6179 20 17.9007
    endloop
  endfacet
  facet normal -0.998027 3.83097e-008 0.062792
    outer loop
      vertex 76.6179 40 17.9007
      vertex 76.684 20 18.9503
      vertex 76.7368 40 19.7901
    endloop
  endfacet
  facet normal -0.998027 7.85387e-008 0.0627911
    outer loop
      vertex 76.75 20 20
      vertex 76.7368 40 19.7901
      vertex 76.684 20 18.9503
    endloop
  endfacet
  facet normal -0.998027 0 0.0627836
    outer loop
      vertex 76.7368 40 19.7901
      vertex 76.75 20 20
      vertex 76.75 40 20
    endloop
  endfacet
  facet normal 0.998027 0 -0.0627912
    outer loop
      vertex 43.3821 20 22.0993
      vertex 43.25 40 20
      vertex 43.3821 40 22.0993
    endloop
  endfacet
  facet normal 0.998027 0 -0.0627912
    outer loop
      vertex 43.25 40 20
      vertex 43.3821 20 22.0993
      vertex 43.25 20 20
    endloop
  endfacet
  facet normal -0 0 1
    outer loop
      vertex 58.9483 40 3.28305
      vertex 61.0517 20 3.28305
      vertex 61.0517 40 3.28305
    endloop
  endfacet
  facet normal 0 0 1
    outer loop
      vertex 61.0517 20 3.28305
      vertex 58.9483 40 3.28305
      vertex 58.9483 20 3.28305
    endloop
  endfacet
  facet normal 0 0 -1
    outer loop
      vertex 58.9483 20 36.7169
      vertex 61.0517 40 36.7169
      vertex 61.0517 20 36.7169
    endloop
  endfacet
  facet normal -0 0 -1
    outer loop
      vertex 61.0517 40 36.7169
      vertex 58.9483 20 36.7169
      vertex 58.9483 40 36.7169
    endloop
  endfacet
  facet normal -0.684548 0 0.728968
    outer loop
      vertex 70.6768 40 7.0939
      vertex 72.2102 20 8.53384
      vertex 72.2102 40 8.53384
    endloop
  endfacet
  facet normal -0.684548 0 0.728968
    outer loop
      vertex 72.2102 20 8.53384
      vertex 70.6768 40 7.0939
      vertex 70.6768 20 7.0939
    endloop
  endfacet
  facet normal 0.684548 0 0.728968
    outer loop
      vertex 47.7898 40 8.53384
      vertex 49.3231 20 7.0939
      vertex 49.3231 40 7.0939
    endloop
  endfacet
  facet normal 0.684548 0 0.728968
    outer loop
      vertex 49.3231 20 7.0939
      vertex 47.7898 40 8.53384
      vertex 47.7898 20 8.53384
    endloop
  endfacet
  facet normal 0.368124 0 0.929777
    outer loop
      vertex 52.8682 40 4.84415
      vertex 54.824 20 4.0698
      vertex 54.824 40 4.0698
    endloop
  endfacet
  facet normal 0.368124 0 0.929777
    outer loop
      vertex 54.824 20 4.0698
      vertex 52.8682 40 4.84415
      vertex 52.8682 20 4.84415
    endloop
  endfacet
  facet normal 0.951056 0 -0.309017
    outer loop
      vertex 44.4262 20 26.1661
      vertex 43.7762 40 24.1656
      vertex 44.4262 40 26.1661
    endloop
  endfacet
  facet normal 0.951056 0 -0.309017
    outer loop
      vertex 43.7762 40 24.1656
      vertex 44.4262 20 26.1661
      vertex 43.7762 20 24.1656
    endloop
  endfacet
  facet normal -0.904828 0 0.425778
    outer loop
      vertex 74.6781 20 11.9306
      vertex 75.5738 40 13.8339
      vertex 74.6781 40 11.9306
    endloop
  endfacet
  facet normal -0.904828 0 0.425778
    outer loop
      vertex 75.5738 40 13.8339
      vertex 74.6781 20 11.9306
      vertex 75.5738 20 13.8339
    endloop
  endfacet
  facet normal -0.982288 0 0.18738
    outer loop
      vertex 76.2238 20 15.8344
      vertex 76.6179 40 17.9007
      vertex 76.2238 40 15.8344
    endloop
  endfacet
  facet normal -0.982288 0 0.18738
    outer loop
      vertex 76.6179 40 17.9007
      vertex 76.2238 20 15.8344
      vertex 76.6179 20 17.9007
    endloop
  endfacet
  facet normal -0.368124 0 0.929777
    outer loop
      vertex 65.176 40 4.0698
      vertex 67.1318 20 4.84415
      vertex 67.1318 40 4.84415
    endloop
  endfacet
  facet normal -0.368124 0 0.929777
    outer loop
      vertex 67.1318 20 4.84415
      vertex 65.176 40 4.0698
      vertex 65.176 20 4.0698
    endloop
  endfacet
  facet normal -0.587786 0 0.809017
    outer loop
      vertex 68.9751 40 5.85751
      vertex 70.6768 20 7.0939
      vertex 70.6768 40 7.0939
    endloop
  endfacet
  facet normal -0.587786 0 0.809017
    outer loop
      vertex 70.6768 20 7.0939
      vertex 68.9751 40 5.85751
      vertex 68.9751 20 5.85751
    endloop
  endfacet
  facet normal 0.904827 -0 0.425779
    outer loop
      vertex 44.4262 20 13.8339
      vertex 45.3219 40 11.9306
      vertex 44.4262 40 13.8339
    endloop
  endfacet
  facet normal 0.904827 0 0.425779
    outer loop
      vertex 45.3219 40 11.9306
      vertex 44.4262 20 13.8339
      vertex 45.3219 20 11.9306
    endloop
  endfacet
  facet normal 0.844327 -0 0.535828
    outer loop
      vertex 45.3219 20 11.9306
      vertex 46.449 40 10.1546
      vertex 45.3219 40 11.9306
    endloop
  endfacet
  facet normal 0.844327 0 0.535828
    outer loop
      vertex 46.449 40 10.1546
      vertex 45.3219 20 11.9306
      vertex 46.449 20 10.1546
    endloop
  endfacet
  facet normal 0.982288 -0 0.18738
    outer loop
      vertex 43.3821 20 17.9007
      vertex 43.7762 40 15.8344
      vertex 43.3821 40 17.9007
    endloop
  endfacet
  facet normal 0.982288 0 0.18738
    outer loop
      vertex 43.7762 40 15.8344
      vertex 43.3821 20 17.9007
      vertex 43.7762 20 15.8344
    endloop
  endfacet
  facet normal 0.481754 0 0.876306
    outer loop
      vertex 51.0249 40 5.85751
      vertex 52.8682 20 4.84415
      vertex 52.8682 40 4.84415
    endloop
  endfacet
  facet normal 0.481754 0 0.876306
    outer loop
      vertex 52.8682 20 4.84415
      vertex 51.0249 40 5.85751
      vertex 51.0249 20 5.85751
    endloop
  endfacet
  facet normal 0.125333 0 0.992115
    outer loop
      vertex 56.8614 40 3.54669
      vertex 58.9483 20 3.28305
      vertex 58.9483 40 3.28305
    endloop
  endfacet
  facet normal 0.125333 0 0.992115
    outer loop
      vertex 58.9483 20 3.28305
      vertex 56.8614 40 3.54669
      vertex 56.8614 20 3.54669
    endloop
  endfacet
  facet normal -0.248691 0 -0.968583
    outer loop
      vertex 63.1386 20 36.4533
      vertex 65.176 40 35.9302
      vertex 65.176 20 35.9302
    endloop
  endfacet
  facet normal -0.248691 0 -0.968583
    outer loop
      vertex 65.176 40 35.9302
      vertex 63.1386 20 36.4533
      vertex 63.1386 40 36.4533
    endloop
  endfacet
  facet normal -0.125334 0 -0.992115
    outer loop
      vertex 61.0517 20 36.7169
      vertex 63.1386 40 36.4533
      vertex 63.1386 20 36.4533
    endloop
  endfacet
  facet normal -0.125334 0 -0.992115
    outer loop
      vertex 63.1386 40 36.4533
      vertex 61.0517 20 36.7169
      vertex 61.0517 40 36.7169
    endloop
  endfacet
  facet normal -0.684548 0 -0.728968
    outer loop
      vertex 70.6768 20 32.9061
      vertex 72.2102 40 31.4662
      vertex 72.2102 20 31.4662
    endloop
  endfacet
  facet normal -0.684548 0 -0.728968
    outer loop
      vertex 72.2102 40 31.4662
      vertex 70.6768 20 32.9061
      vertex 70.6768 40 32.9061
    endloop
  endfacet
  facet normal -0.481754 0 -0.876307
    outer loop
      vertex 67.1318 20 35.1559
      vertex 68.9751 40 34.1425
      vertex 68.9751 20 34.1425
    endloop
  endfacet
  facet normal -0.481754 0 -0.876307
    outer loop
      vertex 68.9751 40 34.1425
      vertex 67.1318 20 35.1559
      vertex 67.1318 40 35.1559
    endloop
  endfacet
  facet normal 0.587785 0 -0.809017
    outer loop
      vertex 49.3231 20 32.9061
      vertex 51.0249 40 34.1425
      vertex 51.0249 20 34.1425
    endloop
  endfacet
  facet normal 0.587785 0 -0.809017
    outer loop
      vertex 51.0249 40 34.1425
      vertex 49.3231 20 32.9061
      vertex 49.3231 40 32.9061
    endloop
  endfacet
  facet normal 0.248691 0 -0.968583
    outer loop
      vertex 54.824 20 35.9302
      vertex 56.8614 40 36.4533
      vertex 56.8614 20 36.4533
    endloop
  endfacet
  facet normal 0.248691 0 -0.968583
    outer loop
      vertex 56.8614 40 36.4533
      vertex 54.824 20 35.9302
      vertex 54.824 40 35.9302
    endloop
  endfacet
  facet normal 0.684548 0 -0.728968
    outer loop
      vertex 47.7898 20 31.4662
      vertex 49.3231 40 32.9061
      vertex 49.3231 20 32.9061
    endloop
  endfacet
  facet normal 0.684548 0 -0.728968
    outer loop
      vertex 49.3231 40 32.9061
      vertex 47.7898 20 31.4662
      vertex 47.7898 40 31.4662
    endloop
  endfacet
  facet normal 0.982288 0 -0.18738
    outer loop
      vertex 43.7762 20 24.1656
      vertex 43.3821 40 22.0993
      vertex 43.7762 40 24.1656
    endloop
  endfacet
  facet normal 0.982288 0 -0.18738
    outer loop
      vertex 43.3821 40 22.0993
      vertex 43.7762 20 24.1656
      vertex 43.3821 20 22.0993
    endloop
  endfacet
  facet normal -0.951056 0 0.309019
    outer loop
      vertex 75.5738 20 13.8339
      vertex 76.2238 40 15.8344
      vertex 75.5738 40 13.8339
    endloop
  endfacet
  facet normal -0.951056 0 0.309019
    outer loop
      vertex 76.2238 40 15.8344
      vertex 75.5738 20 13.8339
      vertex 76.2238 20 15.8344
    endloop
  endfacet
  facet normal -0.770513 0 0.637425
    outer loop
      vertex 72.2102 20 8.53384
      vertex 73.551 40 10.1546
      vertex 72.2102 40 8.53384
    endloop
  endfacet
  facet normal -0.770513 0 0.637425
    outer loop
      vertex 73.551 40 10.1546
      vertex 72.2102 20 8.53384
      vertex 73.551 20 10.1546
    endloop
  endfacet
  facet normal -0.844327 0 0.535828
    outer loop
      vertex 73.551 20 10.1546
      vertex 74.6781 40 11.9306
      vertex 73.551 40 10.1546
    endloop
  endfacet
  facet normal -0.844327 0 0.535828
    outer loop
      vertex 74.6781 40 11.9306
      vertex 73.551 20 10.1546
      vertex 74.6781 20 11.9306
    endloop
  endfacet
  facet normal -0.24869 0 0.968583
    outer loop
      vertex 63.1386 40 3.54669
      vertex 65.176 20 4.0698
      vertex 65.176 40 4.0698
    endloop
  endfacet
  facet normal -0.24869 0 0.968583
    outer loop
      vertex 65.176 20 4.0698
      vertex 63.1386 40 3.54669
      vertex 63.1386 20 3.54669
    endloop
  endfacet
  facet normal -0.125333 0 0.992115
    outer loop
      vertex 61.0517 40 3.28305
      vertex 63.1386 20 3.54669
      vertex 63.1386 40 3.54669
    endloop
  endfacet
  facet normal -0.125333 0 0.992115
    outer loop
      vertex 63.1386 20 3.54669
      vertex 61.0517 40 3.28305
      vertex 61.0517 20 3.28305
    endloop
  endfacet
  facet normal 0.770514 -0 0.637424
    outer loop
      vertex 46.449 20 10.1546
      vertex 47.7898 40 8.53384
      vertex 46.449 40 10.1546
    endloop
  endfacet
  facet normal 0.770514 0 0.637424
    outer loop
      vertex 47.7898 40 8.53384
      vertex 46.449 20 10.1546
      vertex 47.7898 20 8.53384
    endloop
  endfacet
  facet normal 0.951056 -0 0.309017
    outer loop
      vertex 43.7762 20 15.8344
      vertex 44.4262 40 13.8339
      vertex 43.7762 40 15.8344
    endloop
  endfacet
  facet normal 0.951056 0 0.309017
    outer loop
      vertex 44.4262 40 13.8339
      vertex 43.7762 20 15.8344
      vertex 44.4262 20 13.8339
    endloop
  endfacet
  facet normal 0.998027 -0 0.0627912
    outer loop
      vertex 43.25 20 20
      vertex 43.3821 40 17.9007
      vertex 43.25 40 20
    endloop
  endfacet
  facet normal 0.998027 0 0.0627912
    outer loop
      vertex 43.3821 40 17.9007
      vertex 43.25 20 20
      vertex 43.3821 20 17.9007
    endloop
  endfacet
  facet normal -0.998027 -7.37481e-008 -0.0627912
    outer loop
      vertex 76.6179 20 22.0993
      vertex 76.6311 40 21.8894
      vertex 76.684 20 21.0497
    endloop
  endfacet
  facet normal -0.998027 0 -0.0627842
    outer loop
      vertex 76.6311 40 21.8894
      vertex 76.6179 20 22.0993
      vertex 76.6179 40 22.0993
    endloop
  endfacet
  facet normal -0.587786 0 -0.809017
    outer loop
      vertex 68.9751 20 34.1425
      vertex 70.6768 40 32.9061
      vertex 70.6768 20 32.9061
    endloop
  endfacet
  facet normal -0.587786 0 -0.809017
    outer loop
      vertex 70.6768 40 32.9061
      vertex 68.9751 20 34.1425
      vertex 68.9751 40 34.1425
    endloop
  endfacet
  facet normal -0.770513 0 -0.637425
    outer loop
      vertex 73.551 20 29.8454
      vertex 72.2102 40 31.4662
      vertex 73.551 40 29.8454
    endloop
  endfacet
  facet normal -0.770513 -0 -0.637425
    outer loop
      vertex 72.2102 40 31.4662
      vertex 73.551 20 29.8454
      vertex 72.2102 20 31.4662
    endloop
  endfacet
  facet normal 0.481754 0 -0.876307
    outer loop
      vertex 51.0249 20 34.1425
      vertex 52.8682 40 35.1559
      vertex 52.8682 20 35.1559
    endloop
  endfacet
  facet normal 0.481754 0 -0.876307
    outer loop
      vertex 52.8682 40 35.1559
      vertex 51.0249 20 34.1425
      vertex 51.0249 40 34.1425
    endloop
  endfacet
  facet normal 0.844327 0 -0.535828
    outer loop
      vertex 46.449 20 29.8454
      vertex 45.3219 40 28.0694
      vertex 46.449 40 29.8454
    endloop
  endfacet
  facet normal 0.844327 0 -0.535828
    outer loop
      vertex 45.3219 40 28.0694
      vertex 46.449 20 29.8454
      vertex 45.3219 20 28.0694
    endloop
  endfacet
  facet normal -0.481754 0 0.876306
    outer loop
      vertex 67.1318 40 4.84415
      vertex 68.9751 20 5.85751
      vertex 68.9751 40 5.85751
    endloop
  endfacet
  facet normal -0.481754 0 0.876306
    outer loop
      vertex 68.9751 20 5.85751
      vertex 67.1318 40 4.84415
      vertex 67.1318 20 4.84415
    endloop
  endfacet
  facet normal 0.587785 0 0.809017
    outer loop
      vertex 49.3231 40 7.0939
      vertex 51.0249 20 5.85751
      vertex 51.0249 40 5.85751
    endloop
  endfacet
  facet normal 0.587785 0 0.809017
    outer loop
      vertex 51.0249 20 5.85751
      vertex 49.3231 40 7.0939
      vertex 49.3231 20 7.0939
    endloop
  endfacet
  facet normal 0.24869 0 0.968583
    outer loop
      vertex 54.824 40 4.0698
      vertex 56.8614 20 3.54669
      vertex 56.8614 40 3.54669
    endloop
  endfacet
  facet normal 0.24869 0 0.968583
    outer loop
      vertex 56.8614 20 3.54669
      vertex 54.824 40 4.0698
      vertex 54.824 20 4.0698
    endloop
  endfacet
  facet normal -0.368123 0 -0.929777
    outer loop
      vertex 65.176 20 35.9302
      vertex 67.1318 40 35.1559
      vertex 67.1318 20 35.1559
    endloop
  endfacet
  facet normal -0.368123 0 -0.929777
    outer loop
      vertex 67.1318 40 35.1559
      vertex 65.176 20 35.9302
      vertex 65.176 40 35.9302
    endloop
  endfacet
  facet normal -0.904828 0 -0.425777
    outer loop
      vertex 75.5738 20 26.1661
      vertex 74.6781 40 28.0694
      vertex 75.5738 40 26.1661
    endloop
  endfacet
  facet normal -0.904828 -0 -0.425777
    outer loop
      vertex 74.6781 40 28.0694
      vertex 75.5738 20 26.1661
      vertex 74.6781 20 28.0694
    endloop
  endfacet
  facet normal -0.951056 0 -0.309019
    outer loop
      vertex 76.2238 20 24.1656
      vertex 75.5738 40 26.1661
      vertex 76.2238 40 24.1656
    endloop
  endfacet
  facet normal -0.951056 -0 -0.309019
    outer loop
      vertex 75.5738 40 26.1661
      vertex 76.2238 20 24.1656
      vertex 75.5738 20 26.1661
    endloop
  endfacet
  facet normal -0.982288 0 -0.18738
    outer loop
      vertex 76.6179 20 22.0993
      vertex 76.2238 40 24.1656
      vertex 76.6179 40 22.0993
    endloop
  endfacet
  facet normal -0.982288 -0 -0.18738
    outer loop
      vertex 76.2238 40 24.1656
      vertex 76.6179 20 22.0993
      vertex 76.2238 20 24.1656
    endloop
  endfacet
  facet normal 0.368123 0 -0.929777
    outer loop
      vertex 52.8682 20 35.1559
      vertex 54.824 40 35.9302
      vertex 54.824 20 35.9302
    endloop
  endfacet
  facet normal 0.368123 0 -0.929777
    outer loop
      vertex 54.824 40 35.9302
      vertex 52.8682 20 35.1559
      vertex 52.8682 40 35.1559
    endloop
  endfacet
  facet normal 0.125334 0 -0.992115
    outer loop
      vertex 56.8614 20 36.4533
      vertex 58.9483 40 36.7169
      vertex 58.9483 20 36.7169
    endloop
  endfacet
  facet normal 0.125334 0 -0.992115
    outer loop
      vertex 58.9483 40 36.7169
      vertex 56.8614 20 36.4533
      vertex 56.8614 40 36.4533
    endloop
  endfacet
  facet normal 0.770514 0 -0.637423
    outer loop
      vertex 47.7898 20 31.4662
      vertex 46.449 40 29.8454
      vertex 47.7898 40 31.4662
    endloop
  endfacet
  facet normal 0.770514 0 -0.637423
    outer loop
      vertex 46.449 40 29.8454
      vertex 47.7898 20 31.4662
      vertex 46.449 20 29.8454
    endloop
  endfacet
  facet normal 0.904827 0 -0.425779
    outer loop
      vertex 45.3219 20 28.0694
      vertex 44.4262 40 26.1661
      vertex 45.3219 40 28.0694
    endloop
  endfacet
  facet normal 0.904827 0 -0.425779
    outer loop
      vertex 44.4262 40 26.1661
      vertex 45.3219 20 28.0694
      vertex 44.4262 20 26.1661
    endloop
  endfacet
  facet normal -0.844327 0 -0.535828
    outer loop
      vertex 74.6781 20 28.0694
      vertex 73.551 40 29.8454
      vertex 74.6781 40 28.0694
    endloop
  endfacet
  facet normal -0.844327 -0 -0.535828
    outer loop
      vertex 73.551 40 29.8454
      vertex 74.6781 20 28.0694
      vertex 73.551 20 29.8454
    endloop
  endfacet
  facet normal -0.998027 0 -0.0627912
    outer loop
      vertex 76.684 20 21.0497
      vertex 76.75 40 20
      vertex 76.75 20 20
    endloop
  endfacet
  facet normal -0.998027 -4.09711e-008 -0.0627919
    outer loop
      vertex 76.75 40 20
      vertex 76.684 20 21.0497
      vertex 76.6311 40 21.8894
    endloop
  endfacet
  facet normal -0.998027 -0.0627913 0
    outer loop
      vertex 15.5 27 48
      vertex 15.4803 27.3133 50
      vertex 15.4803 27.3133 48
    endloop
  endfacet
  facet normal -0.998027 -0.0627913 0
    outer loop
      vertex 15.4803 27.3133 50
      vertex 15.5 27 48
      vertex 15.5 27 50
    endloop
  endfacet
  facet normal 0.125333 -0.992115 0
    outer loop
      vertex 12.5315 29.4557 48
      vertex 12.843 29.4951 50
      vertex 12.5315 29.4557 50
    endloop
  endfacet
  facet normal 0.125333 -0.992115 0
    outer loop
      vertex 12.843 29.4951 50
      vertex 12.5315 29.4557 48
      vertex 12.843 29.4951 48
    endloop
  endfacet
  facet normal -0.125333 0.992115 0
    outer loop
      vertex 13.4685 24.5443 48
      vertex 13.157 24.5049 50
      vertex 13.4685 24.5443 50
    endloop
  endfacet
  facet normal -0.125333 0.992115 0
    outer loop
      vertex 13.157 24.5049 50
      vertex 13.4685 24.5443 48
      vertex 13.157 24.5049 48
    endloop
  endfacet
  facet normal -0.684545 -0.728971 0
    outer loop
      vertex 14.5936 28.9263 48
      vertex 14.8224 28.7114 50
      vertex 14.5936 28.9263 50
    endloop
  endfacet
  facet normal -0.684545 -0.728971 -0
    outer loop
      vertex 14.8224 28.7114 50
      vertex 14.5936 28.9263 48
      vertex 14.8224 28.7114 48
    endloop
  endfacet
  facet normal 0.770514 -0.637423 0
    outer loop
      vertex 10.9775 28.4695 50
      vertex 11.1776 28.7114 48
      vertex 11.1776 28.7114 50
    endloop
  endfacet
  facet normal 0.770514 -0.637423 0
    outer loop
      vertex 11.1776 28.7114 48
      vertex 10.9775 28.4695 50
      vertex 10.9775 28.4695 48
    endloop
  endfacet
  facet normal 0.481752 -0.876308 0
    outer loop
      vertex 11.6604 29.1108 48
      vertex 11.9356 29.2621 50
      vertex 11.6604 29.1108 50
    endloop
  endfacet
  facet normal 0.481752 -0.876308 0
    outer loop
      vertex 11.9356 29.2621 50
      vertex 11.6604 29.1108 48
      vertex 11.9356 29.2621 48
    endloop
  endfacet
  facet normal -0.904827 -0.425779 0
    outer loop
      vertex 15.3244 27.9203 48
      vertex 15.1908 28.2044 50
      vertex 15.1908 28.2044 48
    endloop
  endfacet
  facet normal -0.904827 -0.425779 0
    outer loop
      vertex 15.1908 28.2044 50
      vertex 15.3244 27.9203 48
      vertex 15.3244 27.9203 50
    endloop
  endfacet
  facet normal -0.248697 -0.968581 0
    outer loop
      vertex 13.4685 29.4557 48
      vertex 13.7725 29.3776 50
      vertex 13.4685 29.4557 50
    endloop
  endfacet
  facet normal -0.248697 -0.968581 -0
    outer loop
      vertex 13.7725 29.3776 50
      vertex 13.4685 29.4557 48
      vertex 13.7725 29.3776 48
    endloop
  endfacet
  facet normal -0.125333 -0.992115 0
    outer loop
      vertex 13.157 29.4951 48
      vertex 13.4685 29.4557 50
      vertex 13.157 29.4951 50
    endloop
  endfacet
  facet normal -0.125333 -0.992115 -0
    outer loop
      vertex 13.4685 29.4557 50
      vertex 13.157 29.4951 48
      vertex 13.4685 29.4557 48
    endloop
  endfacet
  facet normal -0.481752 -0.876308 0
    outer loop
      vertex 14.0644 29.2621 48
      vertex 14.3396 29.1108 50
      vertex 14.0644 29.2621 50
    endloop
  endfacet
  facet normal -0.481752 -0.876308 -0
    outer loop
      vertex 14.3396 29.1108 50
      vertex 14.0644 29.2621 48
      vertex 14.3396 29.1108 48
    endloop
  endfacet
  facet normal 0.951057 -0.309015 0
    outer loop
      vertex 10.5785 27.6217 50
      vertex 10.6756 27.9203 48
      vertex 10.6756 27.9203 50
    endloop
  endfacet
  facet normal 0.951057 -0.309015 0
    outer loop
      vertex 10.6756 27.9203 48
      vertex 10.5785 27.6217 50
      vertex 10.5785 27.6217 48
    endloop
  endfacet
  facet normal 0.982287 -0.187383 0
    outer loop
      vertex 10.5197 27.3133 50
      vertex 10.5785 27.6217 48
      vertex 10.5785 27.6217 50
    endloop
  endfacet
  facet normal 0.982287 -0.187383 0
    outer loop
      vertex 10.5785 27.6217 48
      vertex 10.5197 27.3133 50
      vertex 10.5197 27.3133 48
    endloop
  endfacet
  facet normal 0.248697 -0.968581 0
    outer loop
      vertex 12.2275 29.3776 48
      vertex 12.5315 29.4557 50
      vertex 12.2275 29.3776 50
    endloop
  endfacet
  facet normal 0.248697 -0.968581 0
    outer loop
      vertex 12.5315 29.4557 50
      vertex 12.2275 29.3776 48
      vertex 12.5315 29.4557 48
    endloop
  endfacet
  facet normal -0.248691 0.968583 0
    outer loop
      vertex 13.7725 24.6224 48
      vertex 13.4685 24.5443 50
      vertex 13.7725 24.6224 50
    endloop
  endfacet
  facet normal -0.248691 0.968583 0
    outer loop
      vertex 13.4685 24.5443 50
      vertex 13.7725 24.6224 48
      vertex 13.4685 24.5443 48
    endloop
  endfacet
  facet normal -0.481752 0.876308 0
    outer loop
      vertex 14.3396 24.8892 48
      vertex 14.0644 24.7379 50
      vertex 14.3396 24.8892 50
    endloop
  endfacet
  facet normal -0.481752 0.876308 0
    outer loop
      vertex 14.0644 24.7379 50
      vertex 14.3396 24.8892 48
      vertex 14.0644 24.7379 48
    endloop
  endfacet
  facet normal -0.951057 -0.309015 0
    outer loop
      vertex 15.4215 27.6217 48
      vertex 15.3244 27.9203 50
      vertex 15.3244 27.9203 48
    endloop
  endfacet
  facet normal -0.951057 -0.309015 0
    outer loop
      vertex 15.3244 27.9203 50
      vertex 15.4215 27.6217 48
      vertex 15.4215 27.6217 50
    endloop
  endfacet
  facet normal -0.982287 -0.187383 0
    outer loop
      vertex 15.4803 27.3133 48
      vertex 15.4215 27.6217 50
      vertex 15.4215 27.6217 48
    endloop
  endfacet
  facet normal -0.982287 -0.187383 0
    outer loop
      vertex 15.4215 27.6217 50
      vertex 15.4803 27.3133 48
      vertex 15.4803 27.3133 50
    endloop
  endfacet
  facet normal -0.770514 -0.637423 0
    outer loop
      vertex 15.0225 28.4695 48
      vertex 14.8224 28.7114 50
      vertex 14.8224 28.7114 48
    endloop
  endfacet
  facet normal -0.770514 -0.637423 0
    outer loop
      vertex 14.8224 28.7114 50
      vertex 15.0225 28.4695 48
      vertex 15.0225 28.4695 50
    endloop
  endfacet
  facet normal -0.844328 -0.535826 0
    outer loop
      vertex 15.1908 28.2044 48
      vertex 15.0225 28.4695 50
      vertex 15.0225 28.4695 48
    endloop
  endfacet
  facet normal -0.844328 -0.535826 0
    outer loop
      vertex 15.0225 28.4695 50
      vertex 15.1908 28.2044 48
      vertex 15.1908 28.2044 50
    endloop
  endfacet
  facet normal 0 -1 0
    outer loop
      vertex 12.843 29.4951 48
      vertex 13.157 29.4951 50
      vertex 12.843 29.4951 50
    endloop
  endfacet
  facet normal 0 -1 -0
    outer loop
      vertex 13.157 29.4951 50
      vertex 12.843 29.4951 48
      vertex 13.157 29.4951 48
    endloop
  endfacet
  facet normal -0.368126 -0.929776 0
    outer loop
      vertex 13.7725 29.3776 48
      vertex 14.0644 29.2621 50
      vertex 13.7725 29.3776 50
    endloop
  endfacet
  facet normal -0.368126 -0.929776 -0
    outer loop
      vertex 14.0644 29.2621 50
      vertex 13.7725 29.3776 48
      vertex 14.0644 29.2621 48
    endloop
  endfacet
  facet normal -0.587784 -0.809018 0
    outer loop
      vertex 14.3396 29.1108 48
      vertex 14.5936 28.9263 50
      vertex 14.3396 29.1108 50
    endloop
  endfacet
  facet normal -0.587784 -0.809018 -0
    outer loop
      vertex 14.5936 28.9263 50
      vertex 14.3396 29.1108 48
      vertex 14.5936 28.9263 48
    endloop
  endfacet
  facet normal 0.904827 -0.425779 0
    outer loop
      vertex 10.6756 27.9203 50
      vertex 10.8092 28.2044 48
      vertex 10.8092 28.2044 50
    endloop
  endfacet
  facet normal 0.904827 -0.425779 0
    outer loop
      vertex 10.8092 28.2044 48
      vertex 10.6756 27.9203 50
      vertex 10.6756 27.9203 48
    endloop
  endfacet
  facet normal 0.844328 -0.535826 0
    outer loop
      vertex 10.8092 28.2044 50
      vertex 10.9775 28.4695 48
      vertex 10.9775 28.4695 50
    endloop
  endfacet
  facet normal 0.844328 -0.535826 0
    outer loop
      vertex 10.9775 28.4695 48
      vertex 10.8092 28.2044 50
      vertex 10.8092 28.2044 48
    endloop
  endfacet
  facet normal 0.998027 -0.0627883 0
    outer loop
      vertex 10.5 27 50
      vertex 10.5197 27.3133 48
      vertex 10.5197 27.3133 50
    endloop
  endfacet
  facet normal 0.998027 -0.0627883 0
    outer loop
      vertex 10.5197 27.3133 48
      vertex 10.5 27 50
      vertex 10.5 27 48
    endloop
  endfacet
  facet normal 0.587784 -0.809018 0
    outer loop
      vertex 11.4064 28.9263 48
      vertex 11.6604 29.1108 50
      vertex 11.4064 28.9263 50
    endloop
  endfacet
  facet normal 0.587784 -0.809018 0
    outer loop
      vertex 11.6604 29.1108 50
      vertex 11.4064 28.9263 48
      vertex 11.6604 29.1108 48
    endloop
  endfacet
  facet normal 0.684545 -0.728971 0
    outer loop
      vertex 11.1776 28.7114 48
      vertex 11.4064 28.9263 50
      vertex 11.1776 28.7114 50
    endloop
  endfacet
  facet normal 0.684545 -0.728971 0
    outer loop
      vertex 11.4064 28.9263 50
      vertex 11.1776 28.7114 48
      vertex 11.4064 28.9263 48
    endloop
  endfacet
  facet normal 0.368126 -0.929776 0
    outer loop
      vertex 11.9356 29.2621 48
      vertex 12.2275 29.3776 50
      vertex 11.9356 29.2621 50
    endloop
  endfacet
  facet normal 0.368126 -0.929776 0
    outer loop
      vertex 12.2275 29.3776 50
      vertex 11.9356 29.2621 48
      vertex 12.2275 29.3776 48
    endloop
  endfacet
  facet normal -0.998027 0.0627909 0
    outer loop
      vertex 15.4803 26.6867 48
      vertex 15.5 27 50
      vertex 15.5 27 48
    endloop
  endfacet
  facet normal -0.998027 0.0627909 0
    outer loop
      vertex 15.5 27 50
      vertex 15.4803 26.6867 48
      vertex 15.4803 26.6867 50
    endloop
  endfacet
  facet normal -0.770514 0.637423 0
    outer loop
      vertex 14.8224 25.2886 48
      vertex 15.0225 25.5305 50
      vertex 15.0225 25.5305 48
    endloop
  endfacet
  facet normal -0.770514 0.637423 0
    outer loop
      vertex 15.0225 25.5305 50
      vertex 14.8224 25.2886 48
      vertex 14.8224 25.2886 50
    endloop
  endfacet
  facet normal -0.951057 0.309017 0
    outer loop
      vertex 15.3244 26.0797 48
      vertex 15.4215 26.3783 50
      vertex 15.4215 26.3783 48
    endloop
  endfacet
  facet normal -0.951057 0.309017 0
    outer loop
      vertex 15.4215 26.3783 50
      vertex 15.3244 26.0797 48
      vertex 15.3244 26.0797 50
    endloop
  endfacet
  facet normal -0.982287 0.187383 0
    outer loop
      vertex 15.4215 26.3783 48
      vertex 15.4803 26.6867 50
      vertex 15.4803 26.6867 48
    endloop
  endfacet
  facet normal -0.982287 0.187383 0
    outer loop
      vertex 15.4803 26.6867 50
      vertex 15.4215 26.3783 48
      vertex 15.4215 26.3783 50
    endloop
  endfacet
  facet normal 0.684548 0.728968 -0
    outer loop
      vertex 11.4064 25.0737 48
      vertex 11.1776 25.2886 50
      vertex 11.4064 25.0737 50
    endloop
  endfacet
  facet normal 0.684548 0.728968 0
    outer loop
      vertex 11.1776 25.2886 50
      vertex 11.4064 25.0737 48
      vertex 11.1776 25.2886 48
    endloop
  endfacet
  facet normal 0.998027 0.0627879 0
    outer loop
      vertex 10.5197 26.6867 50
      vertex 10.5 27 48
      vertex 10.5 27 50
    endloop
  endfacet
  facet normal 0.998027 0.0627879 0
    outer loop
      vertex 10.5 27 48
      vertex 10.5197 26.6867 50
      vertex 10.5197 26.6867 48
    endloop
  endfacet
  facet normal -0.844328 0.535826 0
    outer loop
      vertex 15.0225 25.5305 48
      vertex 15.1908 25.7956 50
      vertex 15.1908 25.7956 48
    endloop
  endfacet
  facet normal -0.844328 0.535826 0
    outer loop
      vertex 15.1908 25.7956 50
      vertex 15.0225 25.5305 48
      vertex 15.0225 25.5305 50
    endloop
  endfacet
  facet normal 0.904827 0.425779 0
    outer loop
      vertex 10.8092 25.7956 50
      vertex 10.6756 26.0797 48
      vertex 10.6756 26.0797 50
    endloop
  endfacet
  facet normal 0.904827 0.425779 0
    outer loop
      vertex 10.6756 26.0797 48
      vertex 10.8092 25.7956 50
      vertex 10.8092 25.7956 48
    endloop
  endfacet
  facet normal -0.368126 0.929776 0
    outer loop
      vertex 14.0644 24.7379 48
      vertex 13.7725 24.6224 50
      vertex 14.0644 24.7379 50
    endloop
  endfacet
  facet normal -0.368126 0.929776 0
    outer loop
      vertex 13.7725 24.6224 50
      vertex 14.0644 24.7379 48
      vertex 13.7725 24.6224 48
    endloop
  endfacet
  facet normal -0.904827 0.425779 0
    outer loop
      vertex 15.1908 25.7956 48
      vertex 15.3244 26.0797 50
      vertex 15.3244 26.0797 48
    endloop
  endfacet
  facet normal -0.904827 0.425779 0
    outer loop
      vertex 15.3244 26.0797 50
      vertex 15.1908 25.7956 48
      vertex 15.1908 25.7956 50
    endloop
  endfacet
  facet normal -0.684548 0.728968 0
    outer loop
      vertex 14.8224 25.2886 48
      vertex 14.5936 25.0737 50
      vertex 14.8224 25.2886 50
    endloop
  endfacet
  facet normal -0.684548 0.728968 0
    outer loop
      vertex 14.5936 25.0737 50
      vertex 14.8224 25.2886 48
      vertex 14.5936 25.0737 48
    endloop
  endfacet
  facet normal -0.587784 0.809018 0
    outer loop
      vertex 14.5936 25.0737 48
      vertex 14.3396 24.8892 50
      vertex 14.5936 25.0737 50
    endloop
  endfacet
  facet normal -0.587784 0.809018 0
    outer loop
      vertex 14.3396 24.8892 50
      vertex 14.5936 25.0737 48
      vertex 14.3396 24.8892 48
    endloop
  endfacet
  facet normal 0.125333 0.992115 -0
    outer loop
      vertex 12.843 24.5049 48
      vertex 12.5315 24.5443 50
      vertex 12.843 24.5049 50
    endloop
  endfacet
  facet normal 0.125333 0.992115 0
    outer loop
      vertex 12.5315 24.5443 50
      vertex 12.843 24.5049 48
      vertex 12.5315 24.5443 48
    endloop
  endfacet
  facet normal 0.770514 0.637423 0
    outer loop
      vertex 11.1776 25.2886 50
      vertex 10.9775 25.5305 48
      vertex 10.9775 25.5305 50
    endloop
  endfacet
  facet normal 0.770514 0.637423 0
    outer loop
      vertex 10.9775 25.5305 48
      vertex 11.1776 25.2886 50
      vertex 11.1776 25.2886 48
    endloop
  endfacet
  facet normal 0.844328 0.535826 0
    outer loop
      vertex 10.9775 25.5305 50
      vertex 10.8092 25.7956 48
      vertex 10.8092 25.7956 50
    endloop
  endfacet
  facet normal 0.844328 0.535826 0
    outer loop
      vertex 10.8092 25.7956 48
      vertex 10.9775 25.5305 50
      vertex 10.9775 25.5305 48
    endloop
  endfacet
  facet normal 0.951057 0.309017 0
    outer loop
      vertex 10.6756 26.0797 50
      vertex 10.5785 26.3783 48
      vertex 10.5785 26.3783 50
    endloop
  endfacet
  facet normal 0.951057 0.309017 0
    outer loop
      vertex 10.5785 26.3783 48
      vertex 10.6756 26.0797 50
      vertex 10.6756 26.0797 48
    endloop
  endfacet
  facet normal 0.982287 0.187383 0
    outer loop
      vertex 10.5785 26.3783 50
      vertex 10.5197 26.6867 48
      vertex 10.5197 26.6867 50
    endloop
  endfacet
  facet normal 0.982287 0.187383 0
    outer loop
      vertex 10.5197 26.6867 48
      vertex 10.5785 26.3783 50
      vertex 10.5785 26.3783 48
    endloop
  endfacet
  facet normal 0.587784 0.809018 -0
    outer loop
      vertex 11.6604 24.8892 48
      vertex 11.4064 25.0737 50
      vertex 11.6604 24.8892 50
    endloop
  endfacet
  facet normal 0.587784 0.809018 0
    outer loop
      vertex 11.4064 25.0737 50
      vertex 11.6604 24.8892 48
      vertex 11.4064 25.0737 48
    endloop
  endfacet
  facet normal 0.368126 0.929776 -0
    outer loop
      vertex 12.2275 24.6224 48
      vertex 11.9356 24.7379 50
      vertex 12.2275 24.6224 50
    endloop
  endfacet
  facet normal 0.368126 0.929776 0
    outer loop
      vertex 11.9356 24.7379 50
      vertex 12.2275 24.6224 48
      vertex 11.9356 24.7379 48
    endloop
  endfacet
  facet normal 0 1 -0
    outer loop
      vertex 13.157 24.5049 48
      vertex 12.843 24.5049 50
      vertex 13.157 24.5049 50
    endloop
  endfacet
  facet normal 0 1 0
    outer loop
      vertex 12.843 24.5049 50
      vertex 13.157 24.5049 48
      vertex 12.843 24.5049 48
    endloop
  endfacet
  facet normal 0.481752 0.876308 -0
    outer loop
      vertex 11.9356 24.7379 48
      vertex 11.6604 24.8892 50
      vertex 11.9356 24.7379 50
    endloop
  endfacet
  facet normal 0.481752 0.876308 0
    outer loop
      vertex 11.6604 24.8892 50
      vertex 11.9356 24.7379 48
      vertex 11.6604 24.8892 48
    endloop
  endfacet
  facet normal 0.248691 0.968583 -0
    outer loop
      vertex 12.5315 24.5443 48
      vertex 12.2275 24.6224 50
      vertex 12.5315 24.5443 50
    endloop
  endfacet
  facet normal 0.248691 0.968583 0
    outer loop
      vertex 12.2275 24.6224 50
      vertex 12.5315 24.5443 48
      vertex 12.2275 24.6224 48
    endloop
  endfacet
  facet normal 0 -1 0
    outer loop
      vertex 0 0.00999928 50
      vertex 2 0.00999928 48
      vertex 80 0.00999928 50
    endloop
  endfacet
  facet normal 0 -1 0
    outer loop
      vertex 0 0.00999928 50
      vertex 2 0.00999928 2
      vertex 2 0.00999928 48
    endloop
  endfacet
  facet normal 0 -1 0
    outer loop
      vertex 0 0.00999928 0
      vertex 2 0.00999928 2
      vertex 0 0.00999928 50
    endloop
  endfacet
  facet normal 0 -1 -0
    outer loop
      vertex 2 0.00999928 2
      vertex 0 0.00999928 0
      vertex 2 0.00999928 0
    endloop
  endfacet
  facet normal 0 -1 0
    outer loop
      vertex 78 0.00999928 48
      vertex 80 0.00999928 50
      vertex 2 0.00999928 48
    endloop
  endfacet
  facet normal 0 -1 0
    outer loop
      vertex 78 0.00999928 3
      vertex 80 0.00999928 50
      vertex 78 0.00999928 48
    endloop
  endfacet
  facet normal 0 -1 0
    outer loop
      vertex 80 0.00999928 0
      vertex 78 0.00999928 3
      vertex 78 0.00999928 0
    endloop
  endfacet
  facet normal 0 -1 0
    outer loop
      vertex 78 0.00999928 3
      vertex 80 0.00999928 0
      vertex 80 0.00999928 50
    endloop
  endfacet
endsolid OpenSCAD_Model
