solid OpenSCAD_Model
  facet normal -1 0 0
    outer loop
      vertex 78 0.00999928 3
      vertex 78 20 48
      vertex 78 20 3
    endloop
  endfacet
  facet normal -1 -0 0
    outer loop
      vertex 78 20 48
      vertex 78 0.00999928 3
      vertex 78 0.00999928 48
    endloop
  endfacet
  facet normal 1 -0 2.0732e-008
    outer loop
      vertex 2 0.00999928 48
      vertex 2 38 2
      vertex 2 38 48
    endloop
  endfacet
  facet normal 1 0 2.0732e-008
    outer loop
      vertex 2 38 2
      vertex 2 0.00999928 48
      vertex 2 0.00999928 2
    endloop
  endfacet
  facet normal 0 0 -1
    outer loop
      vertex 78 0.00999928 48
      vertex 40 20 48
      vertex 78 20 48
    endloop
  endfacet
  facet normal 0 0 -1
    outer loop
      vertex 15.9763 27.376 48
      vertex 40 20 48
      vertex 16 27 48
    endloop
  endfacet
  facet normal 0 0 -1
    outer loop
      vertex 2 0.00999928 48
      vertex 40 20 48
      vertex 78 0.00999928 48
    endloop
  endfacet
  facet normal 0 0 -1
    outer loop
      vertex 40 20 48
      vertex 15.9763 26.624 48
      vertex 16 27 48
    endloop
  endfacet
  facet normal 0 0 -1
    outer loop
      vertex 40 20 48
      vertex 15.9057 26.2539 48
      vertex 15.9763 26.624 48
    endloop
  endfacet
  facet normal 0 0 -1
    outer loop
      vertex 40 20 48
      vertex 15.7893 25.8956 48
      vertex 15.9057 26.2539 48
    endloop
  endfacet
  facet normal 0 0 -1
    outer loop
      vertex 40 20 48
      vertex 15.6289 25.5547 48
      vertex 15.7893 25.8956 48
    endloop
  endfacet
  facet normal 0 0 -1
    outer loop
      vertex 40 20 48
      vertex 15.4271 25.2366 48
      vertex 15.6289 25.5547 48
    endloop
  endfacet
  facet normal 0 0 -1
    outer loop
      vertex 40 20 48
      vertex 15.1869 24.9464 48
      vertex 15.4271 25.2366 48
    endloop
  endfacet
  facet normal 0 0 -1
    outer loop
      vertex 40 20 48
      vertex 14.9123 24.6885 48
      vertex 15.1869 24.9464 48
    endloop
  endfacet
  facet normal 0 -0 -1
    outer loop
      vertex 14.2773 24.2855 48
      vertex 40 20 48
      vertex 2 0.00999928 48
    endloop
  endfacet
  facet normal 0 0 -1
    outer loop
      vertex 40 20 48
      vertex 14.6075 24.467 48
      vertex 14.9123 24.6885 48
    endloop
  endfacet
  facet normal 0 0 -1
    outer loop
      vertex 40 20 48
      vertex 14.2773 24.2855 48
      vertex 14.6075 24.467 48
    endloop
  endfacet
  facet normal 0 0 -1
    outer loop
      vertex 14.2773 24.2855 48
      vertex 2 0.00999928 48
      vertex 13.9271 24.1468 48
    endloop
  endfacet
  facet normal 0 0 -1
    outer loop
      vertex 13.9271 24.1468 48
      vertex 2 0.00999928 48
      vertex 13.5621 24.0531 48
    endloop
  endfacet
  facet normal 0 0 -1
    outer loop
      vertex 13.5621 24.0531 48
      vertex 2 0.00999928 48
      vertex 13.1884 24.0059 48
    endloop
  endfacet
  facet normal -0 0 -1
    outer loop
      vertex 13.1884 24.0059 48
      vertex 2 0.00999928 48
      vertex 12.8116 24.0059 48
    endloop
  endfacet
  facet normal -0 0 -1
    outer loop
      vertex 12.8116 24.0059 48
      vertex 2 0.00999928 48
      vertex 12.4379 24.0531 48
    endloop
  endfacet
  facet normal 0 0 -1
    outer loop
      vertex 10.0942 26.2539 48
      vertex 2 38 48
      vertex 10.0237 26.624 48
    endloop
  endfacet
  facet normal 0 0 -1
    outer loop
      vertex 2 38 48
      vertex 10.0942 26.2539 48
      vertex 2 0.00999928 48
    endloop
  endfacet
  facet normal -0 0 -1
    outer loop
      vertex 10.2107 25.8956 48
      vertex 2 0.00999928 48
      vertex 10.0942 26.2539 48
    endloop
  endfacet
  facet normal -0 0 -1
    outer loop
      vertex 10.3711 25.5547 48
      vertex 2 0.00999928 48
      vertex 10.2107 25.8956 48
    endloop
  endfacet
  facet normal -0 0 -1
    outer loop
      vertex 10.5729 25.2366 48
      vertex 2 0.00999928 48
      vertex 10.3711 25.5547 48
    endloop
  endfacet
  facet normal -0 0 -1
    outer loop
      vertex 10.8131 24.9464 48
      vertex 2 0.00999928 48
      vertex 10.5729 25.2366 48
    endloop
  endfacet
  facet normal -0 0 -1
    outer loop
      vertex 11.0877 24.6885 48
      vertex 2 0.00999928 48
      vertex 10.8131 24.9464 48
    endloop
  endfacet
  facet normal -0 0 -1
    outer loop
      vertex 11.3925 24.467 48
      vertex 2 0.00999928 48
      vertex 11.0877 24.6885 48
    endloop
  endfacet
  facet normal -0 0 -1
    outer loop
      vertex 11.7227 24.2855 48
      vertex 2 0.00999928 48
      vertex 11.3925 24.467 48
    endloop
  endfacet
  facet normal -0 0 -1
    outer loop
      vertex 12.0729 24.1468 48
      vertex 2 0.00999928 48
      vertex 11.7227 24.2855 48
    endloop
  endfacet
  facet normal -0 0 -1
    outer loop
      vertex 12.4379 24.0531 48
      vertex 2 0.00999928 48
      vertex 12.0729 24.1468 48
    endloop
  endfacet
  facet normal 0 0 -1
    outer loop
      vertex 40 20 48
      vertex 15.9763 27.376 48
      vertex 40 38 48
    endloop
  endfacet
  facet normal 0 0 -1
    outer loop
      vertex 15.9057 27.7461 48
      vertex 40 38 48
      vertex 15.9763 27.376 48
    endloop
  endfacet
  facet normal 0 0 -1
    outer loop
      vertex 15.7893 28.1044 48
      vertex 40 38 48
      vertex 15.9057 27.7461 48
    endloop
  endfacet
  facet normal 0 0 -1
    outer loop
      vertex 15.6289 28.4453 48
      vertex 40 38 48
      vertex 15.7893 28.1044 48
    endloop
  endfacet
  facet normal 0 0 -1
    outer loop
      vertex 15.4271 28.7634 48
      vertex 40 38 48
      vertex 15.6289 28.4453 48
    endloop
  endfacet
  facet normal 0 0 -1
    outer loop
      vertex 15.1869 29.0536 48
      vertex 40 38 48
      vertex 15.4271 28.7634 48
    endloop
  endfacet
  facet normal 0 0 -1
    outer loop
      vertex 14.9123 29.3115 48
      vertex 40 38 48
      vertex 15.1869 29.0536 48
    endloop
  endfacet
  facet normal 0 0 -1
    outer loop
      vertex 14.6075 29.533 48
      vertex 40 38 48
      vertex 14.9123 29.3115 48
    endloop
  endfacet
  facet normal 0 0 -1
    outer loop
      vertex 14.2773 29.7145 48
      vertex 40 38 48
      vertex 14.6075 29.533 48
    endloop
  endfacet
  facet normal 0 0 -1
    outer loop
      vertex 13.9271 29.8532 48
      vertex 40 38 48
      vertex 14.2773 29.7145 48
    endloop
  endfacet
  facet normal 0 0 -1
    outer loop
      vertex 2 38 48
      vertex 13.9271 29.8532 48
      vertex 13.5621 29.9469 48
    endloop
  endfacet
  facet normal 0 0 -1
    outer loop
      vertex 2 38 48
      vertex 13.5621 29.9469 48
      vertex 13.1884 29.9941 48
    endloop
  endfacet
  facet normal 0 0 -1
    outer loop
      vertex 2 38 48
      vertex 13.1884 29.9941 48
      vertex 12.8116 29.9941 48
    endloop
  endfacet
  facet normal 0 0 -1
    outer loop
      vertex 2 38 48
      vertex 12.8116 29.9941 48
      vertex 12.4379 29.9469 48
    endloop
  endfacet
  facet normal 0 0 -1
    outer loop
      vertex 2 38 48
      vertex 12.4379 29.9469 48
      vertex 12.0729 29.8532 48
    endloop
  endfacet
  facet normal 0 0 -1
    outer loop
      vertex 10.0237 26.624 48
      vertex 2 38 48
      vertex 10 27 48
    endloop
  endfacet
  facet normal 0 0 -1
    outer loop
      vertex 10 27 48
      vertex 2 38 48
      vertex 10.0237 27.376 48
    endloop
  endfacet
  facet normal 0 0 -1
    outer loop
      vertex 13.9271 29.8532 48
      vertex 2 38 48
      vertex 40 38 48
    endloop
  endfacet
  facet normal 0 0 -1
    outer loop
      vertex 11.7227 29.7145 48
      vertex 2 38 48
      vertex 12.0729 29.8532 48
    endloop
  endfacet
  facet normal 0 0 -1
    outer loop
      vertex 11.3925 29.533 48
      vertex 2 38 48
      vertex 11.7227 29.7145 48
    endloop
  endfacet
  facet normal 0 0 -1
    outer loop
      vertex 11.0877 29.3115 48
      vertex 2 38 48
      vertex 11.3925 29.533 48
    endloop
  endfacet
  facet normal 0 0 -1
    outer loop
      vertex 10.8131 29.0536 48
      vertex 2 38 48
      vertex 11.0877 29.3115 48
    endloop
  endfacet
  facet normal 0 0 -1
    outer loop
      vertex 10.5729 28.7634 48
      vertex 2 38 48
      vertex 10.8131 29.0536 48
    endloop
  endfacet
  facet normal 0 0 -1
    outer loop
      vertex 10.3711 28.4453 48
      vertex 2 38 48
      vertex 10.5729 28.7634 48
    endloop
  endfacet
  facet normal 0 0 -1
    outer loop
      vertex 10.2107 28.1044 48
      vertex 2 38 48
      vertex 10.3711 28.4453 48
    endloop
  endfacet
  facet normal 0 0 -1
    outer loop
      vertex 10.0942 27.7461 48
      vertex 2 38 48
      vertex 10.2107 28.1044 48
    endloop
  endfacet
  facet normal 0 0 -1
    outer loop
      vertex 10.0237 27.376 48
      vertex 2 38 48
      vertex 10.0942 27.7461 48
    endloop
  endfacet
  facet normal 0 -1 0
    outer loop
      vertex 2 38 2
      vertex 40 38 48
      vertex 2 38 48
    endloop
  endfacet
  facet normal 0 -1 0
    outer loop
      vertex 40 38 0
      vertex 2 38 2
      vertex 2 38 0
    endloop
  endfacet
  facet normal 0 -1 0
    outer loop
      vertex 2 38 2
      vertex 40 38 0
      vertex 40 38 48
    endloop
  endfacet
  facet normal 1 -0 0
    outer loop
      vertex 2 0.00999928 2
      vertex 2 38 0
      vertex 2 38 2
    endloop
  endfacet
  facet normal 1 0 0
    outer loop
      vertex 2 38 0
      vertex 2 0.00999928 2
      vertex 2 0.00999928 0
    endloop
  endfacet
  facet normal -1 0 0
    outer loop
      vertex 78 0.00999928 0
      vertex 78 20 3
      vertex 78 20 0
    endloop
  endfacet
  facet normal -1 -0 0
    outer loop
      vertex 78 20 3
      vertex 78 0.00999928 0
      vertex 78 0.00999928 3
    endloop
  endfacet
  facet normal 0 -1 0
    outer loop
      vertex 40 20 48
      vertex 58.9012 20 37.4655
      vertex 78 20 48
    endloop
  endfacet
  facet normal 0 -1 0
    outer loop
      vertex 40 20 48
      vertex 56.7208 20 37.19
      vertex 58.9012 20 37.4655
    endloop
  endfacet
  facet normal 0 -1 0
    outer loop
      vertex 40 20 48
      vertex 54.5922 20 36.6435
      vertex 56.7208 20 37.19
    endloop
  endfacet
  facet normal 0 -1 0
    outer loop
      vertex 40 20 48
      vertex 52.5489 20 35.8345
      vertex 54.5922 20 36.6435
    endloop
  endfacet
  facet normal 0 -1 0
    outer loop
      vertex 40 20 48
      vertex 50.623 20 34.7757
      vertex 52.5489 20 35.8345
    endloop
  endfacet
  facet normal 0 -1 0
    outer loop
      vertex 40 20 48
      vertex 48.8451 20 33.484
      vertex 50.623 20 34.7757
    endloop
  endfacet
  facet normal 0 -1 0
    outer loop
      vertex 40 20 48
      vertex 47.243 20 31.9796
      vertex 48.8451 20 33.484
    endloop
  endfacet
  facet normal 0 -1 0
    outer loop
      vertex 40 20 48
      vertex 45.8422 20 30.2862
      vertex 47.243 20 31.9796
    endloop
  endfacet
  facet normal 0 -1 0
    outer loop
      vertex 40 20 48
      vertex 44.6646 20 28.4307
      vertex 45.8422 20 30.2862
    endloop
  endfacet
  facet normal 0 -1 0
    outer loop
      vertex 40 20 48
      vertex 43.7289 20 26.4422
      vertex 44.6646 20 28.4307
    endloop
  endfacet
  facet normal 0 -1 0
    outer loop
      vertex 40 20 48
      vertex 43.0498 20 24.3521
      vertex 43.7289 20 26.4422
    endloop
  endfacet
  facet normal 0 -1 0
    outer loop
      vertex 40 20 48
      vertex 42.638 20 22.1933
      vertex 43.0498 20 24.3521
    endloop
  endfacet
  facet normal 0 -1 0
    outer loop
      vertex 40 20 48
      vertex 42.5 20 20
      vertex 42.638 20 22.1933
    endloop
  endfacet
  facet normal 0 -1 0
    outer loop
      vertex 40 20 0
      vertex 42.5 20 20
      vertex 40 20 48
    endloop
  endfacet
  facet normal 0 -1 0
    outer loop
      vertex 78 20 0
      vertex 58.9012 20 2.53453
      vertex 40 20 0
    endloop
  endfacet
  facet normal 0 -1 -0
    outer loop
      vertex 56.7208 20 2.80997
      vertex 40 20 0
      vertex 58.9012 20 2.53453
    endloop
  endfacet
  facet normal 0 -1 -0
    outer loop
      vertex 54.5922 20 3.35651
      vertex 40 20 0
      vertex 56.7208 20 2.80997
    endloop
  endfacet
  facet normal 0 -1 -0
    outer loop
      vertex 52.5489 20 4.16553
      vertex 40 20 0
      vertex 54.5922 20 3.35651
    endloop
  endfacet
  facet normal 0 -1 -0
    outer loop
      vertex 50.623 20 5.22426
      vertex 40 20 0
      vertex 52.5489 20 4.16553
    endloop
  endfacet
  facet normal 0 -1 -0
    outer loop
      vertex 48.8451 20 6.51602
      vertex 40 20 0
      vertex 50.623 20 5.22426
    endloop
  endfacet
  facet normal 0 -1 -0
    outer loop
      vertex 47.243 20 8.02042
      vertex 40 20 0
      vertex 48.8451 20 6.51602
    endloop
  endfacet
  facet normal 0 -1 -0
    outer loop
      vertex 45.8422 20 9.71376
      vertex 40 20 0
      vertex 47.243 20 8.02042
    endloop
  endfacet
  facet normal 0 -1 -0
    outer loop
      vertex 44.6646 20 11.5693
      vertex 40 20 0
      vertex 45.8422 20 9.71376
    endloop
  endfacet
  facet normal 0 -1 -0
    outer loop
      vertex 43.7289 20 13.5578
      vertex 40 20 0
      vertex 44.6646 20 11.5693
    endloop
  endfacet
  facet normal 0 -1 -0
    outer loop
      vertex 43.0498 20 15.6479
      vertex 40 20 0
      vertex 43.7289 20 13.5578
    endloop
  endfacet
  facet normal 0 -1 -0
    outer loop
      vertex 42.638 20 17.8067
      vertex 40 20 0
      vertex 43.0498 20 15.6479
    endloop
  endfacet
  facet normal 0 -1 -0
    outer loop
      vertex 42.5 20 20
      vertex 40 20 0
      vertex 42.638 20 17.8067
    endloop
  endfacet
  facet normal 0 -1 0
    outer loop
      vertex 61.0988 20 37.4655
      vertex 78 20 48
      vertex 58.9012 20 37.4655
    endloop
  endfacet
  facet normal 0 -1 0
    outer loop
      vertex 63.2792 20 37.19
      vertex 78 20 48
      vertex 61.0988 20 37.4655
    endloop
  endfacet
  facet normal 0 -1 0
    outer loop
      vertex 65.4078 20 36.6435
      vertex 78 20 48
      vertex 63.2792 20 37.19
    endloop
  endfacet
  facet normal 0 -1 0
    outer loop
      vertex 67.4511 20 35.8345
      vertex 78 20 48
      vertex 65.4078 20 36.6435
    endloop
  endfacet
  facet normal 0 -1 0
    outer loop
      vertex 69.377 20 34.7757
      vertex 78 20 48
      vertex 67.4511 20 35.8345
    endloop
  endfacet
  facet normal 0 -1 0
    outer loop
      vertex 71.1549 20 33.484
      vertex 78 20 48
      vertex 69.377 20 34.7757
    endloop
  endfacet
  facet normal 0 -1 0
    outer loop
      vertex 72.757 20 31.9796
      vertex 78 20 48
      vertex 71.1549 20 33.484
    endloop
  endfacet
  facet normal 0 -1 0
    outer loop
      vertex 74.1578 20 30.2862
      vertex 78 20 48
      vertex 72.757 20 31.9796
    endloop
  endfacet
  facet normal 0 -1 0
    outer loop
      vertex 75.3354 20 28.4307
      vertex 78 20 48
      vertex 74.1578 20 30.2862
    endloop
  endfacet
  facet normal 0 -1 0
    outer loop
      vertex 76.2711 20 26.4422
      vertex 78 20 48
      vertex 75.3354 20 28.4307
    endloop
  endfacet
  facet normal 0 -1 0
    outer loop
      vertex 76.9502 20 24.3521
      vertex 78 20 48
      vertex 76.2711 20 26.4422
    endloop
  endfacet
  facet normal 0 -1 0
    outer loop
      vertex 77.362 20 22.1933
      vertex 78 20 48
      vertex 76.9502 20 24.3521
    endloop
  endfacet
  facet normal 0 -1 0
    outer loop
      vertex 77.431 20 21.0967
      vertex 78 20 48
      vertex 77.362 20 22.1933
    endloop
  endfacet
  facet normal 0 -1 0
    outer loop
      vertex 77.5 20 20
      vertex 78 20 48
      vertex 77.431 20 21.0967
    endloop
  endfacet
  facet normal 0 -1 0
    outer loop
      vertex 78 20 3
      vertex 77.431 20 18.9033
      vertex 77.362 20 17.8067
    endloop
  endfacet
  facet normal 0 -1 0
    outer loop
      vertex 77.5 20 20
      vertex 78 20 3
      vertex 78 20 48
    endloop
  endfacet
  facet normal 0 -1 0
    outer loop
      vertex 77.431 20 18.9033
      vertex 78 20 3
      vertex 77.5 20 20
    endloop
  endfacet
  facet normal 0 -1 0
    outer loop
      vertex 76.9502 20 15.6479
      vertex 78 20 3
      vertex 77.362 20 17.8067
    endloop
  endfacet
  facet normal 0 -1 0
    outer loop
      vertex 76.2711 20 13.5578
      vertex 78 20 3
      vertex 76.9502 20 15.6479
    endloop
  endfacet
  facet normal 0 -1 0
    outer loop
      vertex 75.3354 20 11.5693
      vertex 78 20 3
      vertex 76.2711 20 13.5578
    endloop
  endfacet
  facet normal 0 -1 0
    outer loop
      vertex 74.1578 20 9.71376
      vertex 78 20 3
      vertex 75.3354 20 11.5693
    endloop
  endfacet
  facet normal 0 -1 0
    outer loop
      vertex 72.757 20 8.02042
      vertex 78 20 3
      vertex 74.1578 20 9.71376
    endloop
  endfacet
  facet normal 0 -1 0
    outer loop
      vertex 71.1549 20 6.51602
      vertex 78 20 3
      vertex 72.757 20 8.02042
    endloop
  endfacet
  facet normal 0 -1 0
    outer loop
      vertex 69.377 20 5.22426
      vertex 78 20 3
      vertex 71.1549 20 6.51602
    endloop
  endfacet
  facet normal 0 -1 0
    outer loop
      vertex 78 20 0
      vertex 69.377 20 5.22426
      vertex 67.4511 20 4.16553
    endloop
  endfacet
  facet normal 0 -1 0
    outer loop
      vertex 78 20 0
      vertex 67.4511 20 4.16553
      vertex 65.4078 20 3.35651
    endloop
  endfacet
  facet normal 0 -1 0
    outer loop
      vertex 78 20 0
      vertex 65.4078 20 3.35651
      vertex 63.2792 20 2.80997
    endloop
  endfacet
  facet normal 0 -1 0
    outer loop
      vertex 78 20 0
      vertex 63.2792 20 2.80997
      vertex 61.0988 20 2.53453
    endloop
  endfacet
  facet normal 0 -1 0
    outer loop
      vertex 58.9012 20 2.53453
      vertex 78 20 0
      vertex 61.0988 20 2.53453
    endloop
  endfacet
  facet normal 0 -1 0
    outer loop
      vertex 69.377 20 5.22426
      vertex 78 20 0
      vertex 78 20 3
    endloop
  endfacet
  facet normal -1 0 0
    outer loop
      vertex 40 20 0
      vertex 40 38 48
      vertex 40 38 0
    endloop
  endfacet
  facet normal -1 -0 0
    outer loop
      vertex 40 38 48
      vertex 40 20 0
      vertex 40 20 48
    endloop
  endfacet
  facet normal 0 0 -1
    outer loop
      vertex 2 0.00999928 0
      vertex 0 0.00999928 0
      vertex 2 38 0
    endloop
  endfacet
  facet normal 0 0 -1
    outer loop
      vertex 78 20 0
      vertex 80 0.00999928 0
      vertex 78 0.00999928 0
    endloop
  endfacet
  facet normal 0 0 -1
    outer loop
      vertex 80 0.00999928 0
      vertex 78 20 0
      vertex 80 40 0
    endloop
  endfacet
  facet normal 0 0 -1
    outer loop
      vertex 40 38 0
      vertex 78 20 0
      vertex 40 20 0
    endloop
  endfacet
  facet normal 0 0 -1
    outer loop
      vertex 78 20 0
      vertex 40 38 0
      vertex 80 40 0
    endloop
  endfacet
  facet normal 0 0 -1
    outer loop
      vertex 0 40 0
      vertex 40 38 0
      vertex 2 38 0
    endloop
  endfacet
  facet normal 0 0 -1
    outer loop
      vertex 40 38 0
      vertex 0 40 0
      vertex 80 40 0
    endloop
  endfacet
  facet normal 0 0 -1
    outer loop
      vertex 0 40 0
      vertex 2 38 0
      vertex 0 0.00999928 0
    endloop
  endfacet
  facet normal 1 -0 0
    outer loop
      vertex 80 0.00999928 50
      vertex 80 40 0
      vertex 80 40 50
    endloop
  endfacet
  facet normal 1 0 0
    outer loop
      vertex 80 40 0
      vertex 80 0.00999928 50
      vertex 80 0.00999928 0
    endloop
  endfacet
  facet normal -1 0 0
    outer loop
      vertex 0 0.00999928 0
      vertex 0 40 50
      vertex 0 40 0
    endloop
  endfacet
  facet normal -1 -0 0
    outer loop
      vertex 0 40 50
      vertex 0 0.00999928 0
      vertex 0 0.00999928 50
    endloop
  endfacet
  facet normal 0 0 1
    outer loop
      vertex 15.9763 26.624 50
      vertex 80 40 50
      vertex 16 27 50
    endloop
  endfacet
  facet normal 0 0 1
    outer loop
      vertex 80 40 50
      vertex 15.9763 27.376 50
      vertex 16 27 50
    endloop
  endfacet
  facet normal 0 0 1
    outer loop
      vertex 80 40 50
      vertex 15.9057 27.7461 50
      vertex 15.9763 27.376 50
    endloop
  endfacet
  facet normal 0 0 1
    outer loop
      vertex 80 40 50
      vertex 15.7893 28.1044 50
      vertex 15.9057 27.7461 50
    endloop
  endfacet
  facet normal 0 0 1
    outer loop
      vertex 80 40 50
      vertex 15.6289 28.4453 50
      vertex 15.7893 28.1044 50
    endloop
  endfacet
  facet normal 0 0 1
    outer loop
      vertex 80 40 50
      vertex 15.4271 28.7634 50
      vertex 15.6289 28.4453 50
    endloop
  endfacet
  facet normal 0 0 1
    outer loop
      vertex 80 40 50
      vertex 15.1869 29.0536 50
      vertex 15.4271 28.7634 50
    endloop
  endfacet
  facet normal 0 0 1
    outer loop
      vertex 80 40 50
      vertex 14.9123 29.3115 50
      vertex 15.1869 29.0536 50
    endloop
  endfacet
  facet normal 0 0 1
    outer loop
      vertex 80 40 50
      vertex 14.6075 29.533 50
      vertex 14.9123 29.3115 50
    endloop
  endfacet
  facet normal 0 0 1
    outer loop
      vertex 80 40 50
      vertex 14.2773 29.7145 50
      vertex 14.6075 29.533 50
    endloop
  endfacet
  facet normal -0 0 1
    outer loop
      vertex 0 40 50
      vertex 14.2773 29.7145 50
      vertex 80 40 50
    endloop
  endfacet
  facet normal 0 0 1
    outer loop
      vertex 14.2773 29.7145 50
      vertex 0 40 50
      vertex 13.9271 29.8532 50
    endloop
  endfacet
  facet normal 0 0 1
    outer loop
      vertex 13.9271 29.8532 50
      vertex 0 40 50
      vertex 13.5621 29.9469 50
    endloop
  endfacet
  facet normal 0 0 1
    outer loop
      vertex 13.5621 29.9469 50
      vertex 0 40 50
      vertex 13.1884 29.9941 50
    endloop
  endfacet
  facet normal 0 0 1
    outer loop
      vertex 13.1884 29.9941 50
      vertex 0 40 50
      vertex 12.8116 29.9941 50
    endloop
  endfacet
  facet normal 0 0 1
    outer loop
      vertex 10.0237 27.376 50
      vertex 0 40 50
      vertex 10 27 50
    endloop
  endfacet
  facet normal 0 0 1
    outer loop
      vertex 10.0942 27.7461 50
      vertex 0 40 50
      vertex 10.0237 27.376 50
    endloop
  endfacet
  facet normal 0 0 1
    outer loop
      vertex 10.2107 28.1044 50
      vertex 0 40 50
      vertex 10.0942 27.7461 50
    endloop
  endfacet
  facet normal 0 0 1
    outer loop
      vertex 10.3711 28.4453 50
      vertex 0 40 50
      vertex 10.2107 28.1044 50
    endloop
  endfacet
  facet normal 0 0 1
    outer loop
      vertex 10.5729 28.7634 50
      vertex 0 40 50
      vertex 10.3711 28.4453 50
    endloop
  endfacet
  facet normal 0 0 1
    outer loop
      vertex 10.8131 29.0536 50
      vertex 0 40 50
      vertex 10.5729 28.7634 50
    endloop
  endfacet
  facet normal 0 0 1
    outer loop
      vertex 11.0877 29.3115 50
      vertex 0 40 50
      vertex 10.8131 29.0536 50
    endloop
  endfacet
  facet normal 0 0 1
    outer loop
      vertex 11.3925 29.533 50
      vertex 0 40 50
      vertex 11.0877 29.3115 50
    endloop
  endfacet
  facet normal 0 0 1
    outer loop
      vertex 11.7227 29.7145 50
      vertex 0 40 50
      vertex 11.3925 29.533 50
    endloop
  endfacet
  facet normal 0 0 1
    outer loop
      vertex 12.0729 29.8532 50
      vertex 0 40 50
      vertex 11.7227 29.7145 50
    endloop
  endfacet
  facet normal 0 0 1
    outer loop
      vertex 12.4379 29.9469 50
      vertex 0 40 50
      vertex 12.0729 29.8532 50
    endloop
  endfacet
  facet normal 0 0 1
    outer loop
      vertex 12.8116 29.9941 50
      vertex 0 40 50
      vertex 12.4379 29.9469 50
    endloop
  endfacet
  facet normal 0 0 1
    outer loop
      vertex 80 40 50
      vertex 15.9763 26.624 50
      vertex 80 0.00999928 50
    endloop
  endfacet
  facet normal -0 0 1
    outer loop
      vertex 15.9057 26.2539 50
      vertex 80 0.00999928 50
      vertex 15.9763 26.624 50
    endloop
  endfacet
  facet normal -0 0 1
    outer loop
      vertex 15.7893 25.8956 50
      vertex 80 0.00999928 50
      vertex 15.9057 26.2539 50
    endloop
  endfacet
  facet normal -0 0 1
    outer loop
      vertex 15.6289 25.5547 50
      vertex 80 0.00999928 50
      vertex 15.7893 25.8956 50
    endloop
  endfacet
  facet normal -0 0 1
    outer loop
      vertex 15.4271 25.2366 50
      vertex 80 0.00999928 50
      vertex 15.6289 25.5547 50
    endloop
  endfacet
  facet normal -0 0 1
    outer loop
      vertex 15.1869 24.9464 50
      vertex 80 0.00999928 50
      vertex 15.4271 25.2366 50
    endloop
  endfacet
  facet normal -0 0 1
    outer loop
      vertex 14.9123 24.6885 50
      vertex 80 0.00999928 50
      vertex 15.1869 24.9464 50
    endloop
  endfacet
  facet normal 0 0 1
    outer loop
      vertex 0 0.00999928 50
      vertex 14.9123 24.6885 50
      vertex 14.6075 24.467 50
    endloop
  endfacet
  facet normal 0 0 1
    outer loop
      vertex 0 0.00999928 50
      vertex 14.6075 24.467 50
      vertex 14.2773 24.2855 50
    endloop
  endfacet
  facet normal 0 0 1
    outer loop
      vertex 0 0.00999928 50
      vertex 14.2773 24.2855 50
      vertex 13.9271 24.1468 50
    endloop
  endfacet
  facet normal 0 0 1
    outer loop
      vertex 0 0.00999928 50
      vertex 13.9271 24.1468 50
      vertex 13.5621 24.0531 50
    endloop
  endfacet
  facet normal 0 0 1
    outer loop
      vertex 0 0.00999928 50
      vertex 13.5621 24.0531 50
      vertex 13.1884 24.0059 50
    endloop
  endfacet
  facet normal 0 0 1
    outer loop
      vertex 0 0.00999928 50
      vertex 13.1884 24.0059 50
      vertex 12.8116 24.0059 50
    endloop
  endfacet
  facet normal 0 0 1
    outer loop
      vertex 0 0.00999928 50
      vertex 12.8116 24.0059 50
      vertex 12.4379 24.0531 50
    endloop
  endfacet
  facet normal 0 0 1
    outer loop
      vertex 0 0.00999928 50
      vertex 12.4379 24.0531 50
      vertex 12.0729 24.1468 50
    endloop
  endfacet
  facet normal 0 0 1
    outer loop
      vertex 0 40 50
      vertex 10.0237 26.624 50
      vertex 10 27 50
    endloop
  endfacet
  facet normal 0 0 1
    outer loop
      vertex 0 40 50
      vertex 10.0942 26.2539 50
      vertex 10.0237 26.624 50
    endloop
  endfacet
  facet normal 0 0 1
    outer loop
      vertex 0 0.00999928 50
      vertex 10.0942 26.2539 50
      vertex 0 40 50
    endloop
  endfacet
  facet normal 0 0 1
    outer loop
      vertex 10.0942 26.2539 50
      vertex 0 0.00999928 50
      vertex 10.2107 25.8956 50
    endloop
  endfacet
  facet normal 0 0 1
    outer loop
      vertex 10.2107 25.8956 50
      vertex 0 0.00999928 50
      vertex 10.3711 25.5547 50
    endloop
  endfacet
  facet normal 0 0 1
    outer loop
      vertex 14.9123 24.6885 50
      vertex 0 0.00999928 50
      vertex 80 0.00999928 50
    endloop
  endfacet
  facet normal 0 0 1
    outer loop
      vertex 11.7227 24.2855 50
      vertex 0 0.00999928 50
      vertex 12.0729 24.1468 50
    endloop
  endfacet
  facet normal 0 0 1
    outer loop
      vertex 11.3925 24.467 50
      vertex 0 0.00999928 50
      vertex 11.7227 24.2855 50
    endloop
  endfacet
  facet normal 0 0 1
    outer loop
      vertex 11.0877 24.6885 50
      vertex 0 0.00999928 50
      vertex 11.3925 24.467 50
    endloop
  endfacet
  facet normal 0 0 1
    outer loop
      vertex 10.8131 24.9464 50
      vertex 0 0.00999928 50
      vertex 11.0877 24.6885 50
    endloop
  endfacet
  facet normal 0 0 1
    outer loop
      vertex 10.5729 25.2366 50
      vertex 0 0.00999928 50
      vertex 10.8131 24.9464 50
    endloop
  endfacet
  facet normal 0 0 1
    outer loop
      vertex 10.3711 25.5547 50
      vertex 0 0.00999928 50
      vertex 10.5729 25.2366 50
    endloop
  endfacet
  facet normal 0 1 0
    outer loop
      vertex 58.9012 40 37.4655
      vertex 80 40 50
      vertex 61.0988 40 37.4655
    endloop
  endfacet
  facet normal 0 1 0
    outer loop
      vertex 80 40 50
      vertex 63.2792 40 37.19
      vertex 61.0988 40 37.4655
    endloop
  endfacet
  facet normal 0 1 0
    outer loop
      vertex 80 40 50
      vertex 65.4078 40 36.6435
      vertex 63.2792 40 37.19
    endloop
  endfacet
  facet normal 0 1 0
    outer loop
      vertex 80 40 50
      vertex 67.4511 40 35.8345
      vertex 65.4078 40 36.6435
    endloop
  endfacet
  facet normal 0 1 0
    outer loop
      vertex 80 40 50
      vertex 69.377 40 34.7757
      vertex 67.4511 40 35.8345
    endloop
  endfacet
  facet normal 0 1 0
    outer loop
      vertex 80 40 50
      vertex 71.1549 40 33.484
      vertex 69.377 40 34.7757
    endloop
  endfacet
  facet normal 0 1 0
    outer loop
      vertex 80 40 50
      vertex 72.757 40 31.9796
      vertex 71.1549 40 33.484
    endloop
  endfacet
  facet normal 0 1 0
    outer loop
      vertex 80 40 50
      vertex 74.1578 40 30.2862
      vertex 72.757 40 31.9796
    endloop
  endfacet
  facet normal 0 1 0
    outer loop
      vertex 80 40 50
      vertex 75.3354 40 28.4307
      vertex 74.1578 40 30.2862
    endloop
  endfacet
  facet normal 0 1 0
    outer loop
      vertex 80 40 50
      vertex 76.2711 40 26.4422
      vertex 75.3354 40 28.4307
    endloop
  endfacet
  facet normal 0 1 0
    outer loop
      vertex 80 40 50
      vertex 76.9502 40 24.3521
      vertex 76.2711 40 26.4422
    endloop
  endfacet
  facet normal 0 1 0
    outer loop
      vertex 80 40 50
      vertex 77.362 40 22.1933
      vertex 76.9502 40 24.3521
    endloop
  endfacet
  facet normal 0 1 0
    outer loop
      vertex 80 40 50
      vertex 77.3758 40 21.974
      vertex 77.362 40 22.1933
    endloop
  endfacet
  facet normal 0 1 0
    outer loop
      vertex 80 40 50
      vertex 77.5 40 20
      vertex 77.3758 40 21.974
    endloop
  endfacet
  facet normal 0 1 -0
    outer loop
      vertex 80 40 0
      vertex 77.5 40 20
      vertex 80 40 50
    endloop
  endfacet
  facet normal 0 1 0
    outer loop
      vertex 77.5 40 20
      vertex 80 40 0
      vertex 77.4862 40 19.7807
    endloop
  endfacet
  facet normal 0 1 0
    outer loop
      vertex 61.0988 40 2.53453
      vertex 80 40 0
      vertex 58.9012 40 2.53453
    endloop
  endfacet
  facet normal 0 1 0
    outer loop
      vertex 63.2792 40 2.80997
      vertex 80 40 0
      vertex 61.0988 40 2.53453
    endloop
  endfacet
  facet normal 0 1 0
    outer loop
      vertex 65.4078 40 3.35651
      vertex 80 40 0
      vertex 63.2792 40 2.80997
    endloop
  endfacet
  facet normal 0 1 0
    outer loop
      vertex 67.4511 40 4.16553
      vertex 80 40 0
      vertex 65.4078 40 3.35651
    endloop
  endfacet
  facet normal 0 1 0
    outer loop
      vertex 69.377 40 5.22426
      vertex 80 40 0
      vertex 67.4511 40 4.16553
    endloop
  endfacet
  facet normal 0 1 0
    outer loop
      vertex 71.1549 40 6.51602
      vertex 80 40 0
      vertex 69.377 40 5.22426
    endloop
  endfacet
  facet normal 0 1 0
    outer loop
      vertex 72.757 40 8.02042
      vertex 80 40 0
      vertex 71.1549 40 6.51602
    endloop
  endfacet
  facet normal 0 1 0
    outer loop
      vertex 74.1578 40 9.71376
      vertex 80 40 0
      vertex 72.757 40 8.02042
    endloop
  endfacet
  facet normal 0 1 0
    outer loop
      vertex 75.3354 40 11.5693
      vertex 80 40 0
      vertex 74.1578 40 9.71376
    endloop
  endfacet
  facet normal 0 1 0
    outer loop
      vertex 76.2711 40 13.5578
      vertex 80 40 0
      vertex 75.3354 40 11.5693
    endloop
  endfacet
  facet normal 0 1 0
    outer loop
      vertex 76.9502 40 15.6479
      vertex 80 40 0
      vertex 76.2711 40 13.5578
    endloop
  endfacet
  facet normal 0 1 0
    outer loop
      vertex 77.362 40 17.8067
      vertex 80 40 0
      vertex 76.9502 40 15.6479
    endloop
  endfacet
  facet normal 0 1 0
    outer loop
      vertex 77.4862 40 19.7807
      vertex 80 40 0
      vertex 77.362 40 17.8067
    endloop
  endfacet
  facet normal 0 1 0
    outer loop
      vertex 56.7208 40 37.19
      vertex 80 40 50
      vertex 58.9012 40 37.4655
    endloop
  endfacet
  facet normal 0 1 0
    outer loop
      vertex 54.5922 40 36.6435
      vertex 80 40 50
      vertex 56.7208 40 37.19
    endloop
  endfacet
  facet normal 0 1 0
    outer loop
      vertex 80 40 50
      vertex 54.5922 40 36.6435
      vertex 0 40 50
    endloop
  endfacet
  facet normal 0 1 -0
    outer loop
      vertex 52.5489 40 35.8345
      vertex 0 40 50
      vertex 54.5922 40 36.6435
    endloop
  endfacet
  facet normal 0 1 -0
    outer loop
      vertex 50.623 40 34.7757
      vertex 0 40 50
      vertex 52.5489 40 35.8345
    endloop
  endfacet
  facet normal 0 1 -0
    outer loop
      vertex 48.8451 40 33.484
      vertex 0 40 50
      vertex 50.623 40 34.7757
    endloop
  endfacet
  facet normal 0 1 -0
    outer loop
      vertex 47.243 40 31.9796
      vertex 0 40 50
      vertex 48.8451 40 33.484
    endloop
  endfacet
  facet normal 0 1 -0
    outer loop
      vertex 45.8422 40 30.2862
      vertex 0 40 50
      vertex 47.243 40 31.9796
    endloop
  endfacet
  facet normal 0 1 -0
    outer loop
      vertex 44.6646 40 28.4307
      vertex 0 40 50
      vertex 45.8422 40 30.2862
    endloop
  endfacet
  facet normal 0 1 -0
    outer loop
      vertex 43.7289 40 26.4422
      vertex 0 40 50
      vertex 44.6646 40 28.4307
    endloop
  endfacet
  facet normal 0 1 -0
    outer loop
      vertex 43.0498 40 24.3521
      vertex 0 40 50
      vertex 43.7289 40 26.4422
    endloop
  endfacet
  facet normal 0 1 -0
    outer loop
      vertex 42.638 40 22.1933
      vertex 0 40 50
      vertex 43.0498 40 24.3521
    endloop
  endfacet
  facet normal 0 1 0
    outer loop
      vertex 0 40 0
      vertex 42.638 40 22.1933
      vertex 42.5 40 20
    endloop
  endfacet
  facet normal 0 1 0
    outer loop
      vertex 0 40 0
      vertex 42.5 40 20
      vertex 42.638 40 17.8067
    endloop
  endfacet
  facet normal 0 1 0
    outer loop
      vertex 0 40 0
      vertex 42.638 40 17.8067
      vertex 43.0498 40 15.6479
    endloop
  endfacet
  facet normal 0 1 0
    outer loop
      vertex 0 40 0
      vertex 43.0498 40 15.6479
      vertex 43.7289 40 13.5578
    endloop
  endfacet
  facet normal 0 1 0
    outer loop
      vertex 0 40 0
      vertex 43.7289 40 13.5578
      vertex 44.6646 40 11.5693
    endloop
  endfacet
  facet normal 0 1 0
    outer loop
      vertex 0 40 0
      vertex 44.6646 40 11.5693
      vertex 45.8422 40 9.71376
    endloop
  endfacet
  facet normal 0 1 0
    outer loop
      vertex 0 40 0
      vertex 45.8422 40 9.71376
      vertex 47.243 40 8.02042
    endloop
  endfacet
  facet normal 0 1 0
    outer loop
      vertex 0 40 0
      vertex 47.243 40 8.02042
      vertex 48.8451 40 6.51602
    endloop
  endfacet
  facet normal 0 1 0
    outer loop
      vertex 42.638 40 22.1933
      vertex 0 40 0
      vertex 0 40 50
    endloop
  endfacet
  facet normal 0 1 0
    outer loop
      vertex 50.623 40 5.22426
      vertex 0 40 0
      vertex 48.8451 40 6.51602
    endloop
  endfacet
  facet normal 0 1 0
    outer loop
      vertex 52.5489 40 4.16553
      vertex 0 40 0
      vertex 50.623 40 5.22426
    endloop
  endfacet
  facet normal 0 1 0
    outer loop
      vertex 54.5922 40 3.35651
      vertex 0 40 0
      vertex 52.5489 40 4.16553
    endloop
  endfacet
  facet normal 0 1 0
    outer loop
      vertex 56.7208 40 2.80997
      vertex 0 40 0
      vertex 54.5922 40 3.35651
    endloop
  endfacet
  facet normal 0 1 0
    outer loop
      vertex 58.9012 40 2.53453
      vertex 0 40 0
      vertex 56.7208 40 2.80997
    endloop
  endfacet
  facet normal 0 1 0
    outer loop
      vertex 0 40 0
      vertex 58.9012 40 2.53453
      vertex 80 40 0
    endloop
  endfacet
  facet normal -0.998027 0 0.0627871
    outer loop
      vertex 77.431 20 18.9033
      vertex 77.362 40 17.8067
      vertex 77.362 20 17.8067
    endloop
  endfacet
  facet normal -0.998027 1.27571e-007 0.0627894
    outer loop
      vertex 77.362 40 17.8067
      vertex 77.431 20 18.9033
      vertex 77.4862 40 19.7807
    endloop
  endfacet
  facet normal -0.998027 -7.49457e-008 0.062794
    outer loop
      vertex 77.5 20 20
      vertex 77.4862 40 19.7807
      vertex 77.431 20 18.9033
    endloop
  endfacet
  facet normal -0.998026 0 0.0628008
    outer loop
      vertex 77.4862 40 19.7807
      vertex 77.5 20 20
      vertex 77.5 40 20
    endloop
  endfacet
  facet normal -0 0 1
    outer loop
      vertex 58.9012 40 2.53453
      vertex 61.0988 20 2.53453
      vertex 61.0988 40 2.53453
    endloop
  endfacet
  facet normal 0 0 1
    outer loop
      vertex 61.0988 20 2.53453
      vertex 58.9012 40 2.53453
      vertex 58.9012 20 2.53453
    endloop
  endfacet
  facet normal -0.684548 0 0.728968
    outer loop
      vertex 71.1549 40 6.51602
      vertex 72.757 20 8.02042
      vertex 72.757 40 8.02042
    endloop
  endfacet
  facet normal -0.684548 0 0.728968
    outer loop
      vertex 72.757 20 8.02042
      vertex 71.1549 40 6.51602
      vertex 71.1549 20 6.51602
    endloop
  endfacet
  facet normal 0.684548 0 0.728968
    outer loop
      vertex 47.243 40 8.02042
      vertex 48.8451 20 6.51602
      vertex 48.8451 40 6.51602
    endloop
  endfacet
  facet normal 0.684548 0 0.728968
    outer loop
      vertex 48.8451 20 6.51602
      vertex 47.243 40 8.02042
      vertex 47.243 20 8.02042
    endloop
  endfacet
  facet normal 0.368125 0 0.929776
    outer loop
      vertex 52.5489 40 4.16553
      vertex 54.5922 20 3.35651
      vertex 54.5922 40 3.35651
    endloop
  endfacet
  facet normal 0.368125 0 0.929776
    outer loop
      vertex 54.5922 20 3.35651
      vertex 52.5489 40 4.16553
      vertex 52.5489 20 4.16553
    endloop
  endfacet
  facet normal 0.684548 0 -0.728968
    outer loop
      vertex 47.243 20 31.9796
      vertex 48.8451 40 33.484
      vertex 48.8451 20 33.484
    endloop
  endfacet
  facet normal 0.684548 0 -0.728968
    outer loop
      vertex 48.8451 40 33.484
      vertex 47.243 20 31.9796
      vertex 47.243 40 31.9796
    endloop
  endfacet
  facet normal -0.951057 0 0.309016
    outer loop
      vertex 76.2711 20 13.5578
      vertex 76.9502 40 15.6479
      vertex 76.2711 40 13.5578
    endloop
  endfacet
  facet normal -0.951057 0 0.309016
    outer loop
      vertex 76.9502 40 15.6479
      vertex 76.2711 20 13.5578
      vertex 76.9502 20 15.6479
    endloop
  endfacet
  facet normal -0.982287 0 0.187382
    outer loop
      vertex 76.9502 20 15.6479
      vertex 77.362 40 17.8067
      vertex 76.9502 40 15.6479
    endloop
  endfacet
  facet normal -0.982287 0 0.187382
    outer loop
      vertex 77.362 40 17.8067
      vertex 76.9502 20 15.6479
      vertex 77.362 20 17.8067
    endloop
  endfacet
  facet normal -0.368124 0 0.929777
    outer loop
      vertex 65.4078 40 3.35651
      vertex 67.4511 20 4.16553
      vertex 67.4511 40 4.16553
    endloop
  endfacet
  facet normal -0.368124 0 0.929777
    outer loop
      vertex 67.4511 20 4.16553
      vertex 65.4078 40 3.35651
      vertex 65.4078 20 3.35651
    endloop
  endfacet
  facet normal -0.125333 0 0.992115
    outer loop
      vertex 61.0988 40 2.53453
      vertex 63.2792 20 2.80997
      vertex 63.2792 40 2.80997
    endloop
  endfacet
  facet normal -0.125333 0 0.992115
    outer loop
      vertex 63.2792 20 2.80997
      vertex 61.0988 40 2.53453
      vertex 61.0988 20 2.53453
    endloop
  endfacet
  facet normal -0.587784 0 0.809018
    outer loop
      vertex 69.377 40 5.22426
      vertex 71.1549 20 6.51602
      vertex 71.1549 40 6.51602
    endloop
  endfacet
  facet normal -0.587784 0 0.809018
    outer loop
      vertex 71.1549 20 6.51602
      vertex 69.377 40 5.22426
      vertex 69.377 20 5.22426
    endloop
  endfacet
  facet normal 0.904827 -0 0.425779
    outer loop
      vertex 43.7289 20 13.5578
      vertex 44.6646 40 11.5693
      vertex 43.7289 40 13.5578
    endloop
  endfacet
  facet normal 0.904827 0 0.425779
    outer loop
      vertex 44.6646 40 11.5693
      vertex 43.7289 20 13.5578
      vertex 44.6646 20 11.5693
    endloop
  endfacet
  facet normal 0.844329 -0 0.535826
    outer loop
      vertex 44.6646 20 11.5693
      vertex 45.8422 40 9.71376
      vertex 44.6646 40 11.5693
    endloop
  endfacet
  facet normal 0.844329 0 0.535826
    outer loop
      vertex 45.8422 40 9.71376
      vertex 44.6646 20 11.5693
      vertex 45.8422 20 9.71376
    endloop
  endfacet
  facet normal 0.982287 -0 0.187381
    outer loop
      vertex 42.638 20 17.8067
      vertex 43.0498 40 15.6479
      vertex 42.638 40 17.8067
    endloop
  endfacet
  facet normal 0.982287 0 0.187381
    outer loop
      vertex 43.0498 40 15.6479
      vertex 42.638 20 17.8067
      vertex 43.0498 20 15.6479
    endloop
  endfacet
  facet normal 0.998027 0 -0.0627906
    outer loop
      vertex 42.638 20 22.1933
      vertex 42.5 40 20
      vertex 42.638 40 22.1933
    endloop
  endfacet
  facet normal 0.998027 0 -0.0627906
    outer loop
      vertex 42.5 40 20
      vertex 42.638 20 22.1933
      vertex 42.5 20 20
    endloop
  endfacet
  facet normal 0.587784 0 0.809018
    outer loop
      vertex 48.8451 40 6.51602
      vertex 50.623 20 5.22426
      vertex 50.623 40 5.22426
    endloop
  endfacet
  facet normal 0.587784 0 0.809018
    outer loop
      vertex 50.623 20 5.22426
      vertex 48.8451 40 6.51602
      vertex 48.8451 20 6.51602
    endloop
  endfacet
  facet normal 0.125333 0 0.992115
    outer loop
      vertex 56.7208 40 2.80997
      vertex 58.9012 20 2.53453
      vertex 58.9012 40 2.53453
    endloop
  endfacet
  facet normal 0.125333 0 0.992115
    outer loop
      vertex 58.9012 20 2.53453
      vertex 56.7208 40 2.80997
      vertex 56.7208 20 2.80997
    endloop
  endfacet
  facet normal -0.904827 0 -0.425779
    outer loop
      vertex 76.2711 20 26.4422
      vertex 75.3354 40 28.4307
      vertex 76.2711 40 26.4422
    endloop
  endfacet
  facet normal -0.904827 -0 -0.425779
    outer loop
      vertex 75.3354 40 28.4307
      vertex 76.2711 20 26.4422
      vertex 75.3354 20 28.4307
    endloop
  endfacet
  facet normal -0.982287 0 -0.187382
    outer loop
      vertex 77.362 20 22.1933
      vertex 76.9502 40 24.3521
      vertex 77.362 40 22.1933
    endloop
  endfacet
  facet normal -0.982287 -0 -0.187382
    outer loop
      vertex 76.9502 40 24.3521
      vertex 77.362 20 22.1933
      vertex 76.9502 20 24.3521
    endloop
  endfacet
  facet normal 0.248689 0 -0.968583
    outer loop
      vertex 54.5922 20 36.6435
      vertex 56.7208 40 37.19
      vertex 56.7208 20 37.19
    endloop
  endfacet
  facet normal 0.248689 0 -0.968583
    outer loop
      vertex 56.7208 40 37.19
      vertex 54.5922 20 36.6435
      vertex 54.5922 40 36.6435
    endloop
  endfacet
  facet normal 0.368125 0 -0.929776
    outer loop
      vertex 52.5489 20 35.8345
      vertex 54.5922 40 36.6435
      vertex 54.5922 20 36.6435
    endloop
  endfacet
  facet normal 0.368125 0 -0.929776
    outer loop
      vertex 54.5922 40 36.6435
      vertex 52.5489 20 35.8345
      vertex 52.5489 40 35.8345
    endloop
  endfacet
  facet normal 0.982287 0 -0.187381
    outer loop
      vertex 43.0498 20 24.3521
      vertex 42.638 40 22.1933
      vertex 43.0498 40 24.3521
    endloop
  endfacet
  facet normal 0.982287 0 -0.187381
    outer loop
      vertex 42.638 40 22.1933
      vertex 43.0498 20 24.3521
      vertex 42.638 20 22.1933
    endloop
  endfacet
  facet normal -0.904827 0 0.425779
    outer loop
      vertex 75.3354 20 11.5693
      vertex 76.2711 40 13.5578
      vertex 75.3354 40 11.5693
    endloop
  endfacet
  facet normal -0.904827 0 0.425779
    outer loop
      vertex 76.2711 40 13.5578
      vertex 75.3354 20 11.5693
      vertex 76.2711 20 13.5578
    endloop
  endfacet
  facet normal -0.844329 0 0.535826
    outer loop
      vertex 74.1578 20 9.71376
      vertex 75.3354 40 11.5693
      vertex 74.1578 40 9.71376
    endloop
  endfacet
  facet normal -0.844329 0 0.535826
    outer loop
      vertex 75.3354 40 11.5693
      vertex 74.1578 20 9.71376
      vertex 75.3354 20 11.5693
    endloop
  endfacet
  facet normal -0.770513 0 0.637424
    outer loop
      vertex 72.757 20 8.02042
      vertex 74.1578 40 9.71376
      vertex 72.757 40 8.02042
    endloop
  endfacet
  facet normal -0.770513 0 0.637424
    outer loop
      vertex 74.1578 40 9.71376
      vertex 72.757 20 8.02042
      vertex 74.1578 20 9.71376
    endloop
  endfacet
  facet normal -0.24869 0 0.968583
    outer loop
      vertex 63.2792 40 2.80997
      vertex 65.4078 20 3.35651
      vertex 65.4078 40 3.35651
    endloop
  endfacet
  facet normal -0.24869 0 0.968583
    outer loop
      vertex 65.4078 20 3.35651
      vertex 63.2792 40 2.80997
      vertex 63.2792 20 2.80997
    endloop
  endfacet
  facet normal -0.481755 0 0.876306
    outer loop
      vertex 67.4511 40 4.16553
      vertex 69.377 20 5.22426
      vertex 69.377 40 5.22426
    endloop
  endfacet
  facet normal -0.481755 0 0.876306
    outer loop
      vertex 69.377 20 5.22426
      vertex 67.4511 40 4.16553
      vertex 67.4511 20 4.16553
    endloop
  endfacet
  facet normal 0.770513 -0 0.637424
    outer loop
      vertex 45.8422 20 9.71376
      vertex 47.243 40 8.02042
      vertex 45.8422 40 9.71376
    endloop
  endfacet
  facet normal 0.770513 0 0.637424
    outer loop
      vertex 47.243 40 8.02042
      vertex 45.8422 20 9.71376
      vertex 47.243 20 8.02042
    endloop
  endfacet
  facet normal 0.951056 -0 0.309018
    outer loop
      vertex 43.0498 20 15.6479
      vertex 43.7289 40 13.5578
      vertex 43.0498 40 15.6479
    endloop
  endfacet
  facet normal 0.951056 0 0.309018
    outer loop
      vertex 43.7289 40 13.5578
      vertex 43.0498 20 15.6479
      vertex 43.7289 20 13.5578
    endloop
  endfacet
  facet normal 0.998027 -0 0.0627905
    outer loop
      vertex 42.5 20 20
      vertex 42.638 40 17.8067
      vertex 42.5 40 20
    endloop
  endfacet
  facet normal 0.998027 0 0.0627905
    outer loop
      vertex 42.638 40 17.8067
      vertex 42.5 20 20
      vertex 42.638 20 17.8067
    endloop
  endfacet
  facet normal 0.481754 0 0.876307
    outer loop
      vertex 50.623 40 5.22426
      vertex 52.5489 20 4.16553
      vertex 52.5489 40 4.16553
    endloop
  endfacet
  facet normal 0.481754 0 0.876307
    outer loop
      vertex 52.5489 20 4.16553
      vertex 50.623 40 5.22426
      vertex 50.623 20 5.22426
    endloop
  endfacet
  facet normal 0.24869 0 0.968583
    outer loop
      vertex 54.5922 40 3.35651
      vertex 56.7208 20 2.80997
      vertex 56.7208 40 2.80997
    endloop
  endfacet
  facet normal 0.24869 0 0.968583
    outer loop
      vertex 56.7208 20 2.80997
      vertex 54.5922 40 3.35651
      vertex 54.5922 20 3.35651
    endloop
  endfacet
  facet normal -0.368125 0 -0.929776
    outer loop
      vertex 65.4078 20 36.6435
      vertex 67.4511 40 35.8345
      vertex 67.4511 20 35.8345
    endloop
  endfacet
  facet normal -0.368125 0 -0.929776
    outer loop
      vertex 67.4511 40 35.8345
      vertex 65.4078 20 36.6435
      vertex 65.4078 40 36.6435
    endloop
  endfacet
  facet normal -0.125335 0 -0.992115
    outer loop
      vertex 61.0988 20 37.4655
      vertex 63.2792 40 37.19
      vertex 63.2792 20 37.19
    endloop
  endfacet
  facet normal -0.125335 0 -0.992115
    outer loop
      vertex 63.2792 40 37.19
      vertex 61.0988 20 37.4655
      vertex 61.0988 40 37.4655
    endloop
  endfacet
  facet normal -0.248689 0 -0.968583
    outer loop
      vertex 63.2792 20 37.19
      vertex 65.4078 40 36.6435
      vertex 65.4078 20 36.6435
    endloop
  endfacet
  facet normal -0.248689 0 -0.968583
    outer loop
      vertex 65.4078 40 36.6435
      vertex 63.2792 20 37.19
      vertex 63.2792 40 37.19
    endloop
  endfacet
  facet normal -0.481755 0 -0.876306
    outer loop
      vertex 67.4511 20 35.8345
      vertex 69.377 40 34.7757
      vertex 69.377 20 34.7757
    endloop
  endfacet
  facet normal -0.481755 0 -0.876306
    outer loop
      vertex 69.377 40 34.7757
      vertex 67.4511 20 35.8345
      vertex 67.4511 40 35.8345
    endloop
  endfacet
  facet normal -0.684548 0 -0.728968
    outer loop
      vertex 71.1549 20 33.484
      vertex 72.757 40 31.9796
      vertex 72.757 20 31.9796
    endloop
  endfacet
  facet normal -0.684548 0 -0.728968
    outer loop
      vertex 72.757 40 31.9796
      vertex 71.1549 20 33.484
      vertex 71.1549 40 33.484
    endloop
  endfacet
  facet normal -0.587784 0 -0.809018
    outer loop
      vertex 69.377 20 34.7757
      vertex 71.1549 40 33.484
      vertex 71.1549 20 33.484
    endloop
  endfacet
  facet normal -0.587784 0 -0.809018
    outer loop
      vertex 71.1549 40 33.484
      vertex 69.377 20 34.7757
      vertex 69.377 40 34.7757
    endloop
  endfacet
  facet normal -0.770513 0 -0.637424
    outer loop
      vertex 74.1578 20 30.2862
      vertex 72.757 40 31.9796
      vertex 74.1578 40 30.2862
    endloop
  endfacet
  facet normal -0.770513 -0 -0.637424
    outer loop
      vertex 72.757 40 31.9796
      vertex 74.1578 20 30.2862
      vertex 72.757 20 31.9796
    endloop
  endfacet
  facet normal -0.844329 0 -0.535826
    outer loop
      vertex 75.3354 20 28.4307
      vertex 74.1578 40 30.2862
      vertex 75.3354 40 28.4307
    endloop
  endfacet
  facet normal -0.844329 -0 -0.535826
    outer loop
      vertex 74.1578 40 30.2862
      vertex 75.3354 20 28.4307
      vertex 74.1578 20 30.2862
    endloop
  endfacet
  facet normal -0.998027 0 -0.0627941
    outer loop
      vertex 77.431 20 21.0967
      vertex 77.5 40 20
      vertex 77.5 20 20
    endloop
  endfacet
  facet normal -0.998027 2.55807e-007 -0.0627895
    outer loop
      vertex 77.5 40 20
      vertex 77.431 20 21.0967
      vertex 77.3758 40 21.974
    endloop
  endfacet
  facet normal 0.587784 0 -0.809018
    outer loop
      vertex 48.8451 20 33.484
      vertex 50.623 40 34.7757
      vertex 50.623 20 34.7757
    endloop
  endfacet
  facet normal 0.587784 0 -0.809018
    outer loop
      vertex 50.623 40 34.7757
      vertex 48.8451 20 33.484
      vertex 48.8451 40 33.484
    endloop
  endfacet
  facet normal 0 0 -1
    outer loop
      vertex 58.9012 20 37.4655
      vertex 61.0988 40 37.4655
      vertex 61.0988 20 37.4655
    endloop
  endfacet
  facet normal -0 0 -1
    outer loop
      vertex 61.0988 40 37.4655
      vertex 58.9012 20 37.4655
      vertex 58.9012 40 37.4655
    endloop
  endfacet
  facet normal 0.481754 0 -0.876307
    outer loop
      vertex 50.623 20 34.7757
      vertex 52.5489 40 35.8345
      vertex 52.5489 20 35.8345
    endloop
  endfacet
  facet normal 0.481754 0 -0.876307
    outer loop
      vertex 52.5489 40 35.8345
      vertex 50.623 20 34.7757
      vertex 50.623 40 34.7757
    endloop
  endfacet
  facet normal 0.844329 0 -0.535826
    outer loop
      vertex 45.8422 20 30.2862
      vertex 44.6646 40 28.4307
      vertex 45.8422 40 30.2862
    endloop
  endfacet
  facet normal 0.844329 0 -0.535826
    outer loop
      vertex 44.6646 40 28.4307
      vertex 45.8422 20 30.2862
      vertex 44.6646 20 28.4307
    endloop
  endfacet
  facet normal 0.951056 0 -0.309018
    outer loop
      vertex 43.7289 20 26.4422
      vertex 43.0498 40 24.3521
      vertex 43.7289 40 26.4422
    endloop
  endfacet
  facet normal 0.951056 0 -0.309018
    outer loop
      vertex 43.0498 40 24.3521
      vertex 43.7289 20 26.4422
      vertex 43.0498 20 24.3521
    endloop
  endfacet
  facet normal 0.904827 0 -0.425779
    outer loop
      vertex 44.6646 20 28.4307
      vertex 43.7289 40 26.4422
      vertex 44.6646 40 28.4307
    endloop
  endfacet
  facet normal 0.904827 0 -0.425779
    outer loop
      vertex 43.7289 40 26.4422
      vertex 44.6646 20 28.4307
      vertex 43.7289 20 26.4422
    endloop
  endfacet
  facet normal -0.951057 0 -0.309017
    outer loop
      vertex 76.9502 20 24.3521
      vertex 76.2711 40 26.4422
      vertex 76.9502 40 24.3521
    endloop
  endfacet
  facet normal -0.951057 -0 -0.309017
    outer loop
      vertex 76.2711 40 26.4422
      vertex 76.9502 20 24.3521
      vertex 76.2711 20 26.4422
    endloop
  endfacet
  facet normal -0.998027 1.51089e-007 -0.0627871
    outer loop
      vertex 77.362 20 22.1933
      vertex 77.3758 40 21.974
      vertex 77.431 20 21.0967
    endloop
  endfacet
  facet normal -0.998026 0 -0.0628008
    outer loop
      vertex 77.3758 40 21.974
      vertex 77.362 20 22.1933
      vertex 77.362 40 22.1933
    endloop
  endfacet
  facet normal 0.125335 0 -0.992115
    outer loop
      vertex 56.7208 20 37.19
      vertex 58.9012 40 37.4655
      vertex 58.9012 20 37.4655
    endloop
  endfacet
  facet normal 0.125335 0 -0.992115
    outer loop
      vertex 58.9012 40 37.4655
      vertex 56.7208 20 37.19
      vertex 56.7208 40 37.19
    endloop
  endfacet
  facet normal 0.770513 0 -0.637424
    outer loop
      vertex 47.243 20 31.9796
      vertex 45.8422 40 30.2862
      vertex 47.243 40 31.9796
    endloop
  endfacet
  facet normal 0.770513 0 -0.637424
    outer loop
      vertex 45.8422 40 30.2862
      vertex 47.243 20 31.9796
      vertex 45.8422 20 30.2862
    endloop
  endfacet
  facet normal -0.998027 -0.0627931 0
    outer loop
      vertex 16 27 48
      vertex 15.9763 27.376 50
      vertex 15.9763 27.376 48
    endloop
  endfacet
  facet normal -0.998027 -0.0627931 0
    outer loop
      vertex 15.9763 27.376 50
      vertex 16 27 48
      vertex 16 27 50
    endloop
  endfacet
  facet normal 0.125333 -0.992115 0
    outer loop
      vertex 12.4379 29.9469 48
      vertex 12.8116 29.9941 50
      vertex 12.4379 29.9469 50
    endloop
  endfacet
  facet normal 0.125333 -0.992115 0
    outer loop
      vertex 12.8116 29.9941 50
      vertex 12.4379 29.9469 48
      vertex 12.8116 29.9941 48
    endloop
  endfacet
  facet normal -0.125333 0.992115 0
    outer loop
      vertex 13.5621 24.0531 48
      vertex 13.1884 24.0059 50
      vertex 13.5621 24.0531 50
    endloop
  endfacet
  facet normal -0.125333 0.992115 0
    outer loop
      vertex 13.1884 24.0059 50
      vertex 13.5621 24.0531 48
      vertex 13.1884 24.0059 48
    endloop
  endfacet
  facet normal -0.770515 0.637422 0
    outer loop
      vertex 15.1869 24.9464 48
      vertex 15.4271 25.2366 50
      vertex 15.4271 25.2366 48
    endloop
  endfacet
  facet normal -0.770515 0.637422 0
    outer loop
      vertex 15.4271 25.2366 50
      vertex 15.1869 24.9464 48
      vertex 15.1869 24.9464 50
    endloop
  endfacet
  facet normal -0.684546 -0.728969 0
    outer loop
      vertex 14.9123 29.3115 48
      vertex 15.1869 29.0536 50
      vertex 14.9123 29.3115 50
    endloop
  endfacet
  facet normal -0.684546 -0.728969 -0
    outer loop
      vertex 15.1869 29.0536 50
      vertex 14.9123 29.3115 48
      vertex 15.1869 29.0536 48
    endloop
  endfacet
  facet normal 0.770513 -0.637424 0
    outer loop
      vertex 10.5729 28.7634 50
      vertex 10.8131 29.0536 48
      vertex 10.8131 29.0536 50
    endloop
  endfacet
  facet normal 0.770513 -0.637424 0
    outer loop
      vertex 10.8131 29.0536 48
      vertex 10.5729 28.7634 50
      vertex 10.5729 28.7634 48
    endloop
  endfacet
  facet normal 0.481757 -0.876305 0
    outer loop
      vertex 11.3925 29.533 48
      vertex 11.7227 29.7145 50
      vertex 11.3925 29.533 50
    endloop
  endfacet
  facet normal 0.481757 -0.876305 0
    outer loop
      vertex 11.7227 29.7145 50
      vertex 11.3925 29.533 48
      vertex 11.7227 29.7145 48
    endloop
  endfacet
  facet normal -0.951056 0.309019 0
    outer loop
      vertex 15.7893 25.8956 48
      vertex 15.9057 26.2539 50
      vertex 15.9057 26.2539 48
    endloop
  endfacet
  facet normal -0.951056 0.309019 0
    outer loop
      vertex 15.9057 26.2539 50
      vertex 15.7893 25.8956 48
      vertex 15.7893 25.8956 50
    endloop
  endfacet
  facet normal -0.904827 -0.425779 0
    outer loop
      vertex 15.7893 28.1044 48
      vertex 15.6289 28.4453 50
      vertex 15.6289 28.4453 48
    endloop
  endfacet
  facet normal -0.904827 -0.425779 0
    outer loop
      vertex 15.6289 28.4453 50
      vertex 15.7893 28.1044 48
      vertex 15.7893 28.1044 50
    endloop
  endfacet
  facet normal -0.982288 -0.18738 0
    outer loop
      vertex 15.9763 27.376 48
      vertex 15.9057 27.7461 50
      vertex 15.9057 27.7461 48
    endloop
  endfacet
  facet normal -0.982288 -0.18738 0
    outer loop
      vertex 15.9057 27.7461 50
      vertex 15.9763 27.376 48
      vertex 15.9763 27.376 50
    endloop
  endfacet
  facet normal -0.368122 -0.929777 0
    outer loop
      vertex 13.9271 29.8532 48
      vertex 14.2773 29.7145 50
      vertex 13.9271 29.8532 50
    endloop
  endfacet
  facet normal -0.368122 -0.929777 -0
    outer loop
      vertex 14.2773 29.7145 50
      vertex 13.9271 29.8532 48
      vertex 14.2773 29.7145 48
    endloop
  endfacet
  facet normal -0.587784 -0.809018 0
    outer loop
      vertex 14.6075 29.533 48
      vertex 14.9123 29.3115 50
      vertex 14.6075 29.533 50
    endloop
  endfacet
  facet normal -0.587784 -0.809018 -0
    outer loop
      vertex 14.9123 29.3115 50
      vertex 14.6075 29.533 48
      vertex 14.9123 29.3115 48
    endloop
  endfacet
  facet normal 0.951056 -0.309018 0
    outer loop
      vertex 10.0942 27.7461 50
      vertex 10.2107 28.1044 48
      vertex 10.2107 28.1044 50
    endloop
  endfacet
  facet normal 0.951056 -0.309018 0
    outer loop
      vertex 10.2107 28.1044 48
      vertex 10.0942 27.7461 50
      vertex 10.0942 27.7461 48
    endloop
  endfacet
  facet normal 0.844328 -0.535827 0
    outer loop
      vertex 10.3711 28.4453 50
      vertex 10.5729 28.7634 48
      vertex 10.5729 28.7634 50
    endloop
  endfacet
  facet normal 0.844328 -0.535827 0
    outer loop
      vertex 10.5729 28.7634 48
      vertex 10.3711 28.4453 50
      vertex 10.3711 28.4453 48
    endloop
  endfacet
  facet normal 0.587784 -0.809018 0
    outer loop
      vertex 11.0877 29.3115 48
      vertex 11.3925 29.533 50
      vertex 11.0877 29.3115 50
    endloop
  endfacet
  facet normal 0.587784 -0.809018 0
    outer loop
      vertex 11.3925 29.533 50
      vertex 11.0877 29.3115 48
      vertex 11.3925 29.533 48
    endloop
  endfacet
  facet normal 0.248691 -0.968583 0
    outer loop
      vertex 12.0729 29.8532 48
      vertex 12.4379 29.9469 50
      vertex 12.0729 29.8532 50
    endloop
  endfacet
  facet normal 0.248691 -0.968583 0
    outer loop
      vertex 12.4379 29.9469 50
      vertex 12.0729 29.8532 48
      vertex 12.4379 29.9469 48
    endloop
  endfacet
  facet normal -0.248686 0.968584 0
    outer loop
      vertex 13.9271 24.1468 48
      vertex 13.5621 24.0531 50
      vertex 13.9271 24.1468 50
    endloop
  endfacet
  facet normal -0.248686 0.968584 0
    outer loop
      vertex 13.5621 24.0531 50
      vertex 13.9271 24.1468 48
      vertex 13.5621 24.0531 48
    endloop
  endfacet
  facet normal -0.481754 0.876307 0
    outer loop
      vertex 14.6075 24.467 48
      vertex 14.2773 24.2855 50
      vertex 14.6075 24.467 50
    endloop
  endfacet
  facet normal -0.481754 0.876307 0
    outer loop
      vertex 14.2773 24.2855 50
      vertex 14.6075 24.467 48
      vertex 14.2773 24.2855 48
    endloop
  endfacet
  facet normal -0.951056 -0.309018 0
    outer loop
      vertex 15.9057 27.7461 48
      vertex 15.7893 28.1044 50
      vertex 15.7893 28.1044 48
    endloop
  endfacet
  facet normal -0.951056 -0.309018 0
    outer loop
      vertex 15.7893 28.1044 50
      vertex 15.9057 27.7461 48
      vertex 15.9057 27.7461 50
    endloop
  endfacet
  facet normal -0.770513 -0.637424 0
    outer loop
      vertex 15.4271 28.7634 48
      vertex 15.1869 29.0536 50
      vertex 15.1869 29.0536 48
    endloop
  endfacet
  facet normal -0.770513 -0.637424 0
    outer loop
      vertex 15.1869 29.0536 50
      vertex 15.4271 28.7634 48
      vertex 15.4271 28.7634 50
    endloop
  endfacet
  facet normal -0.844328 -0.535827 0
    outer loop
      vertex 15.6289 28.4453 48
      vertex 15.4271 28.7634 50
      vertex 15.4271 28.7634 48
    endloop
  endfacet
  facet normal -0.844328 -0.535827 0
    outer loop
      vertex 15.4271 28.7634 50
      vertex 15.6289 28.4453 48
      vertex 15.6289 28.4453 50
    endloop
  endfacet
  facet normal -0.125333 -0.992115 0
    outer loop
      vertex 13.1884 29.9941 48
      vertex 13.5621 29.9469 50
      vertex 13.1884 29.9941 50
    endloop
  endfacet
  facet normal -0.125333 -0.992115 -0
    outer loop
      vertex 13.5621 29.9469 50
      vertex 13.1884 29.9941 48
      vertex 13.5621 29.9469 48
    endloop
  endfacet
  facet normal -0.248691 -0.968583 0
    outer loop
      vertex 13.5621 29.9469 48
      vertex 13.9271 29.8532 50
      vertex 13.5621 29.9469 50
    endloop
  endfacet
  facet normal -0.248691 -0.968583 -0
    outer loop
      vertex 13.9271 29.8532 50
      vertex 13.5621 29.9469 48
      vertex 13.9271 29.8532 48
    endloop
  endfacet
  facet normal 0 -1 0
    outer loop
      vertex 12.8116 29.9941 48
      vertex 13.1884 29.9941 50
      vertex 12.8116 29.9941 50
    endloop
  endfacet
  facet normal 0 -1 -0
    outer loop
      vertex 13.1884 29.9941 50
      vertex 12.8116 29.9941 48
      vertex 13.1884 29.9941 48
    endloop
  endfacet
  facet normal -0.481757 -0.876305 0
    outer loop
      vertex 14.2773 29.7145 48
      vertex 14.6075 29.533 50
      vertex 14.2773 29.7145 50
    endloop
  endfacet
  facet normal -0.481757 -0.876305 -0
    outer loop
      vertex 14.6075 29.533 50
      vertex 14.2773 29.7145 48
      vertex 14.6075 29.533 48
    endloop
  endfacet
  facet normal 0.904827 -0.425779 0
    outer loop
      vertex 10.2107 28.1044 50
      vertex 10.3711 28.4453 48
      vertex 10.3711 28.4453 50
    endloop
  endfacet
  facet normal 0.904827 -0.425779 0
    outer loop
      vertex 10.3711 28.4453 48
      vertex 10.2107 28.1044 50
      vertex 10.2107 28.1044 48
    endloop
  endfacet
  facet normal 0.982288 -0.18738 0
    outer loop
      vertex 10.0237 27.376 50
      vertex 10.0942 27.7461 48
      vertex 10.0942 27.7461 50
    endloop
  endfacet
  facet normal 0.982288 -0.18738 0
    outer loop
      vertex 10.0942 27.7461 48
      vertex 10.0237 27.376 50
      vertex 10.0237 27.376 48
    endloop
  endfacet
  facet normal 0.998027 -0.0627905 0
    outer loop
      vertex 10 27 50
      vertex 10.0237 27.376 48
      vertex 10.0237 27.376 50
    endloop
  endfacet
  facet normal 0.998027 -0.0627905 0
    outer loop
      vertex 10.0237 27.376 48
      vertex 10 27 50
      vertex 10 27 48
    endloop
  endfacet
  facet normal 0.998027 0.0627905 0
    outer loop
      vertex 10.0237 26.624 50
      vertex 10 27 48
      vertex 10 27 50
    endloop
  endfacet
  facet normal 0.998027 0.0627905 0
    outer loop
      vertex 10 27 48
      vertex 10.0237 26.624 50
      vertex 10.0237 26.624 48
    endloop
  endfacet
  facet normal 0.684546 -0.728969 0
    outer loop
      vertex 10.8131 29.0536 48
      vertex 11.0877 29.3115 50
      vertex 10.8131 29.0536 50
    endloop
  endfacet
  facet normal 0.684546 -0.728969 0
    outer loop
      vertex 11.0877 29.3115 50
      vertex 10.8131 29.0536 48
      vertex 11.0877 29.3115 48
    endloop
  endfacet
  facet normal 0.368122 -0.929777 0
    outer loop
      vertex 11.7227 29.7145 48
      vertex 12.0729 29.8532 50
      vertex 11.7227 29.7145 50
    endloop
  endfacet
  facet normal 0.368122 -0.929777 0
    outer loop
      vertex 12.0729 29.8532 50
      vertex 11.7227 29.7145 48
      vertex 12.0729 29.8532 48
    endloop
  endfacet
  facet normal -0.998027 0.0627931 0
    outer loop
      vertex 15.9763 26.624 48
      vertex 16 27 50
      vertex 16 27 48
    endloop
  endfacet
  facet normal -0.998027 0.0627931 0
    outer loop
      vertex 16 27 50
      vertex 15.9763 26.624 48
      vertex 15.9763 26.624 50
    endloop
  endfacet
  facet normal -0.844326 0.53583 0
    outer loop
      vertex 15.4271 25.2366 48
      vertex 15.6289 25.5547 50
      vertex 15.6289 25.5547 48
    endloop
  endfacet
  facet normal -0.844326 0.53583 0
    outer loop
      vertex 15.6289 25.5547 50
      vertex 15.4271 25.2366 48
      vertex 15.4271 25.2366 50
    endloop
  endfacet
  facet normal -0.982288 0.187379 0
    outer loop
      vertex 15.9057 26.2539 48
      vertex 15.9763 26.624 50
      vertex 15.9763 26.624 48
    endloop
  endfacet
  facet normal -0.982288 0.187379 0
    outer loop
      vertex 15.9763 26.624 50
      vertex 15.9057 26.2539 48
      vertex 15.9057 26.2539 50
    endloop
  endfacet
  facet normal 0.587784 0.809018 -0
    outer loop
      vertex 11.3925 24.467 48
      vertex 11.0877 24.6885 50
      vertex 11.3925 24.467 50
    endloop
  endfacet
  facet normal 0.587784 0.809018 0
    outer loop
      vertex 11.0877 24.6885 50
      vertex 11.3925 24.467 48
      vertex 11.0877 24.6885 48
    endloop
  endfacet
  facet normal 0.844326 0.53583 0
    outer loop
      vertex 10.5729 25.2366 50
      vertex 10.3711 25.5547 48
      vertex 10.3711 25.5547 50
    endloop
  endfacet
  facet normal 0.844326 0.53583 0
    outer loop
      vertex 10.3711 25.5547 48
      vertex 10.5729 25.2366 50
      vertex 10.5729 25.2366 48
    endloop
  endfacet
  facet normal 0.684546 0.728969 -0
    outer loop
      vertex 11.0877 24.6885 48
      vertex 10.8131 24.9464 50
      vertex 11.0877 24.6885 50
    endloop
  endfacet
  facet normal 0.684546 0.728969 0
    outer loop
      vertex 10.8131 24.9464 50
      vertex 11.0877 24.6885 48
      vertex 10.8131 24.9464 48
    endloop
  endfacet
  facet normal -0.587784 0.809018 0
    outer loop
      vertex 14.9123 24.6885 48
      vertex 14.6075 24.467 50
      vertex 14.9123 24.6885 50
    endloop
  endfacet
  facet normal -0.587784 0.809018 0
    outer loop
      vertex 14.6075 24.467 50
      vertex 14.9123 24.6885 48
      vertex 14.6075 24.467 48
    endloop
  endfacet
  facet normal -0.904828 0.425777 0
    outer loop
      vertex 15.6289 25.5547 48
      vertex 15.7893 25.8956 50
      vertex 15.7893 25.8956 48
    endloop
  endfacet
  facet normal -0.904828 0.425777 0
    outer loop
      vertex 15.7893 25.8956 50
      vertex 15.6289 25.5547 48
      vertex 15.6289 25.5547 50
    endloop
  endfacet
  facet normal 0.248686 0.968584 -0
    outer loop
      vertex 12.4379 24.0531 48
      vertex 12.0729 24.1468 50
      vertex 12.4379 24.0531 50
    endloop
  endfacet
  facet normal 0.248686 0.968584 0
    outer loop
      vertex 12.0729 24.1468 50
      vertex 12.4379 24.0531 48
      vertex 12.0729 24.1468 48
    endloop
  endfacet
  facet normal 0.368126 0.929776 -0
    outer loop
      vertex 12.0729 24.1468 48
      vertex 11.7227 24.2855 50
      vertex 12.0729 24.1468 50
    endloop
  endfacet
  facet normal 0.368126 0.929776 0
    outer loop
      vertex 11.7227 24.2855 50
      vertex 12.0729 24.1468 48
      vertex 11.7227 24.2855 48
    endloop
  endfacet
  facet normal 0.951056 0.309019 0
    outer loop
      vertex 10.2107 25.8956 50
      vertex 10.0942 26.2539 48
      vertex 10.0942 26.2539 50
    endloop
  endfacet
  facet normal 0.951056 0.309019 0
    outer loop
      vertex 10.0942 26.2539 48
      vertex 10.2107 25.8956 50
      vertex 10.2107 25.8956 48
    endloop
  endfacet
  facet normal 0.982288 0.187379 0
    outer loop
      vertex 10.0942 26.2539 50
      vertex 10.0237 26.624 48
      vertex 10.0237 26.624 50
    endloop
  endfacet
  facet normal 0.982288 0.187379 0
    outer loop
      vertex 10.0237 26.624 48
      vertex 10.0942 26.2539 50
      vertex 10.0942 26.2539 48
    endloop
  endfacet
  facet normal 0.904828 0.425777 0
    outer loop
      vertex 10.3711 25.5547 50
      vertex 10.2107 25.8956 48
      vertex 10.2107 25.8956 50
    endloop
  endfacet
  facet normal 0.904828 0.425777 0
    outer loop
      vertex 10.2107 25.8956 48
      vertex 10.3711 25.5547 50
      vertex 10.3711 25.5547 48
    endloop
  endfacet
  facet normal -0.684546 0.728969 0
    outer loop
      vertex 15.1869 24.9464 48
      vertex 14.9123 24.6885 50
      vertex 15.1869 24.9464 50
    endloop
  endfacet
  facet normal -0.684546 0.728969 0
    outer loop
      vertex 14.9123 24.6885 50
      vertex 15.1869 24.9464 48
      vertex 14.9123 24.6885 48
    endloop
  endfacet
  facet normal -0.368126 0.929776 0
    outer loop
      vertex 14.2773 24.2855 48
      vertex 13.9271 24.1468 50
      vertex 14.2773 24.2855 50
    endloop
  endfacet
  facet normal -0.368126 0.929776 0
    outer loop
      vertex 13.9271 24.1468 50
      vertex 14.2773 24.2855 48
      vertex 13.9271 24.1468 48
    endloop
  endfacet
  facet normal 0.481754 0.876307 -0
    outer loop
      vertex 11.7227 24.2855 48
      vertex 11.3925 24.467 50
      vertex 11.7227 24.2855 50
    endloop
  endfacet
  facet normal 0.481754 0.876307 0
    outer loop
      vertex 11.3925 24.467 50
      vertex 11.7227 24.2855 48
      vertex 11.3925 24.467 48
    endloop
  endfacet
  facet normal 0.770515 0.637422 0
    outer loop
      vertex 10.8131 24.9464 50
      vertex 10.5729 25.2366 48
      vertex 10.5729 25.2366 50
    endloop
  endfacet
  facet normal 0.770515 0.637422 0
    outer loop
      vertex 10.5729 25.2366 48
      vertex 10.8131 24.9464 50
      vertex 10.8131 24.9464 48
    endloop
  endfacet
  facet normal 0.125333 0.992115 -0
    outer loop
      vertex 12.8116 24.0059 48
      vertex 12.4379 24.0531 50
      vertex 12.8116 24.0059 50
    endloop
  endfacet
  facet normal 0.125333 0.992115 0
    outer loop
      vertex 12.4379 24.0531 50
      vertex 12.8116 24.0059 48
      vertex 12.4379 24.0531 48
    endloop
  endfacet
  facet normal 0 1 -0
    outer loop
      vertex 13.1884 24.0059 48
      vertex 12.8116 24.0059 50
      vertex 13.1884 24.0059 50
    endloop
  endfacet
  facet normal 0 1 0
    outer loop
      vertex 12.8116 24.0059 50
      vertex 13.1884 24.0059 48
      vertex 12.8116 24.0059 48
    endloop
  endfacet
  facet normal 0 -1 0
    outer loop
      vertex 0 0.00999928 50
      vertex 2 0.00999928 48
      vertex 80 0.00999928 50
    endloop
  endfacet
  facet normal 0 -1 0
    outer loop
      vertex 0 0.00999928 50
      vertex 2 0.00999928 2
      vertex 2 0.00999928 48
    endloop
  endfacet
  facet normal 0 -1 0
    outer loop
      vertex 0 0.00999928 0
      vertex 2 0.00999928 2
      vertex 0 0.00999928 50
    endloop
  endfacet
  facet normal 0 -1 -0
    outer loop
      vertex 2 0.00999928 2
      vertex 0 0.00999928 0
      vertex 2 0.00999928 0
    endloop
  endfacet
  facet normal 0 -1 0
    outer loop
      vertex 78 0.00999928 48
      vertex 80 0.00999928 50
      vertex 2 0.00999928 48
    endloop
  endfacet
  facet normal 0 -1 0
    outer loop
      vertex 78 0.00999928 3
      vertex 80 0.00999928 50
      vertex 78 0.00999928 48
    endloop
  endfacet
  facet normal 0 -1 0
    outer loop
      vertex 80 0.00999928 0
      vertex 78 0.00999928 3
      vertex 78 0.00999928 0
    endloop
  endfacet
  facet normal 0 -1 0
    outer loop
      vertex 78 0.00999928 3
      vertex 80 0.00999928 0
      vertex 80 0.00999928 50
    endloop
  endfacet
endsolid OpenSCAD_Model
